<ttFont>
    <TTGlyph name=".001" xMin="27" yMin="-160" xMax="471" yMax="484">
      <contour>
        <pt x="84" y="-71" on="1"/>
        <pt x="142" y="-71" on="0"/>
        <pt x="235" y="-39" on="0"/>
        <pt x="302" y="12" on="0"/>
        <pt x="343" y="78" on="0"/>
        <pt x="350" y="111" on="1"/>
        <pt x="347" y="113" on="1"/>
        <pt x="327" y="90" on="0"/>
        <pt x="263" y="64" on="0"/>
        <pt x="226" y="64" on="1"/>
        <pt x="179" y="64" on="0"/>
        <pt x="105" y="94" on="0"/>
        <pt x="54" y="148" on="0"/>
        <pt x="27" y="221" on="0"/>
        <pt x="27" y="265" on="1"/>
        <pt x="27" y="316" on="0"/>
        <pt x="62" y="397" on="0"/>
        <pt x="123" y="454" on="0"/>
        <pt x="204" y="484" on="0"/>
        <pt x="249" y="484" on="1"/>
        <pt x="297" y="484" on="0"/>
        <pt x="378" y="451" on="0"/>
        <pt x="437" y="384" on="0"/>
        <pt x="471" y="283" on="0"/>
        <pt x="471" y="215" on="1"/>
        <pt x="471" y="138" on="0"/>
        <pt x="422" y="1" on="0"/>
        <pt x="328" y="-101" on="0"/>
        <pt x="190" y="-160" on="0"/>
        <pt x="101" y="-160" on="1"/>
        <pt x="90" y="-160" on="0"/>
        <pt x="66" y="-158" on="0"/>
        <pt x="55" y="-156" on="1"/>
        <pt x="46" y="-68" on="1"/>
        <pt x="55" y="-70" on="0"/>
        <pt x="71" y="-71" on="0"/>
      </contour>
      <contour>
        <pt x="359" y="254" on="1"/>
        <pt x="359" y="282" on="0"/>
        <pt x="346" y="334" on="0"/>
        <pt x="318" y="374" on="0"/>
        <pt x="276" y="397" on="0"/>
        <pt x="247" y="397" on="1"/>
        <pt x="200" y="397" on="0"/>
        <pt x="141" y="325" on="0"/>
        <pt x="141" y="269" on="1"/>
        <pt x="141" y="214" on="0"/>
        <pt x="202" y="150" on="0"/>
        <pt x="250" y="150" on="1"/>
        <pt x="287" y="150" on="0"/>
        <pt x="332" y="177" on="0"/>
        <pt x="343" y="194" on="1"/>
        <pt x="352" y="208" on="0"/>
        <pt x="359" y="238" on="0"/>
      </contour>
    </TTGlyph>
    <TTGlyph name=".004" xMin="63" yMin="-162" xMax="491" yMax="475">
      <contour>
        <pt x="373" y="475" on="1"/>
        <pt x="491" y="475" on="1"/>
        <pt x="491" y="0" on="1"/>
        <pt x="402" y="0" on="1"/>
        <pt x="388" y="55" on="1"/>
        <pt x="384" y="55" on="1"/>
        <pt x="362" y="31" on="0"/>
        <pt x="292" y="-10" on="0"/>
        <pt x="236" y="-10" on="1"/>
        <pt x="218" y="-10" on="0"/>
        <pt x="184" y="-4" on="0"/>
        <pt x="169" y="4" on="1"/>
        <pt x="181" y="-73" on="1"/>
        <pt x="181" y="-162" on="1"/>
        <pt x="63" y="-162" on="1"/>
        <pt x="63" y="475" on="1"/>
        <pt x="181" y="475" on="1"/>
        <pt x="181" y="170" on="1"/>
        <pt x="181" y="121" on="0"/>
        <pt x="226" y="80" on="0"/>
        <pt x="261" y="80" on="1"/>
        <pt x="298" y="80" on="0"/>
        <pt x="353" y="111" on="0"/>
        <pt x="373" y="134" on="1"/>
      </contour>
    </TTGlyph>
    <TTGlyph name=".notdef" xMin="0" yMin="0" xMax="512" yMax="699">
      <contour>
        <pt x="0" y="699" on="1"/>
        <pt x="512" y="699" on="1"/>
        <pt x="512" y="0" on="1"/>
        <pt x="0" y="0" on="1"/>
      </contour>
      <contour>
        <pt x="410" y="640" on="1"/>
        <pt x="102" y="640" on="1"/>
        <pt x="256" y="409" on="1"/>
      </contour>
      <contour>
        <pt x="443" y="128" on="1"/>
        <pt x="443" y="570" on="1"/>
        <pt x="296" y="349" on="1"/>
      </contour>
      <contour>
        <pt x="410" y="59" on="1"/>
        <pt x="256" y="289" on="1"/>
        <pt x="102" y="59" on="1"/>
      </contour>
      <contour>
        <pt x="69" y="128" on="1"/>
        <pt x="216" y="349" on="1"/>
        <pt x="69" y="570" on="1"/>
      </contour>
    </TTGlyph>
    <TTGlyph name=".notdef#1" xMin="-207" yMin="631" xMax="51" yMax="891">
      <contour>
        <pt x="-170" y="631" on="1"/>
        <pt x="-170" y="640" on="1"/>
        <pt x="-174" y="646" on="0"/>
        <pt x="-187" y="667" on="0"/>
        <pt x="-199" y="696" on="0"/>
        <pt x="-207" y="733" on="0"/>
        <pt x="-207" y="755" on="1"/>
        <pt x="-207" y="821" on="0"/>
        <pt x="-119" y="891" on="0"/>
        <pt x="-53" y="891" on="1"/>
        <pt x="-20" y="891" on="0"/>
        <pt x="32" y="876" on="0"/>
        <pt x="51" y="865" on="1"/>
        <pt x="26" y="788" on="1"/>
        <pt x="12" y="795" on="0"/>
        <pt x="-15" y="803" on="0"/>
        <pt x="-33" y="803" on="1"/>
        <pt x="-68" y="803" on="0"/>
        <pt x="-108" y="763" on="0"/>
        <pt x="-108" y="731" on="1"/>
        <pt x="-108" y="699" on="0"/>
        <pt x="-86" y="646" on="0"/>
        <pt x="-76" y="634" on="1"/>
      </contour>
      <contour>
        <pt x="-62" y="715" on="1"/>
        <pt x="-62" y="730" on="0"/>
        <pt x="-42" y="751" on="0"/>
        <pt x="-25" y="751" on="1"/>
        <pt x="-9" y="751" on="0"/>
        <pt x="11" y="730" on="0"/>
        <pt x="11" y="715" on="1"/>
        <pt x="11" y="698" on="0"/>
        <pt x="-9" y="678" on="0"/>
        <pt x="-25" y="678" on="1"/>
        <pt x="-62" y="678" on="0"/>
      </contour>
    </TTGlyph>
    <TTGlyph name=".notdef#2" xMin="-207" yMin="631" xMax="58" yMax="891">
      <contour>
        <pt x="-170" y="631" on="1"/>
        <pt x="-170" y="640" on="1"/>
        <pt x="-174" y="646" on="0"/>
        <pt x="-187" y="667" on="0"/>
        <pt x="-199" y="696" on="0"/>
        <pt x="-207" y="733" on="0"/>
        <pt x="-207" y="755" on="1"/>
        <pt x="-207" y="821" on="0"/>
        <pt x="-119" y="891" on="0"/>
        <pt x="-53" y="891" on="1"/>
        <pt x="46" y="891" on="1"/>
        <pt x="46" y="807" on="1"/>
        <pt x="-33" y="807" on="1"/>
        <pt x="-70" y="807" on="0"/>
        <pt x="-108" y="763" on="0"/>
        <pt x="-108" y="731" on="1"/>
        <pt x="-108" y="699" on="0"/>
        <pt x="-86" y="646" on="0"/>
        <pt x="-76" y="634" on="1"/>
      </contour>
      <contour>
        <pt x="58" y="739" on="1"/>
        <pt x="58" y="700" on="0"/>
        <pt x="19" y="670" on="0"/>
        <pt x="-6" y="670" on="1"/>
        <pt x="-35" y="670" on="0"/>
        <pt x="-73" y="702" on="0"/>
        <pt x="-73" y="739" on="1"/>
        <pt x="-42" y="739" on="1"/>
        <pt x="-41" y="716" on="0"/>
        <pt x="-24" y="701" on="0"/>
        <pt x="-7" y="701" on="1"/>
        <pt x="26" y="701" on="0"/>
        <pt x="27" y="739" on="1"/>
      </contour>
      <contour>
        <pt x="-25" y="741" on="1"/>
        <pt x="-25" y="760" on="0"/>
        <pt x="-7" y="760" on="1"/>
        <pt x="10" y="760" on="0"/>
        <pt x="10" y="741" on="1"/>
        <pt x="10" y="722" on="0"/>
        <pt x="-7" y="722" on="1"/>
        <pt x="-25" y="722" on="0"/>
      </contour>
    </TTGlyph>
    <TTGlyph name="A" xMin="7" yMin="0" xMax="610" yMax="630">
      <contour>
        <pt x="219" y="246" on="1"/>
        <pt x="394" y="246" on="1"/>
        <pt x="361" y="339" on="1"/>
        <pt x="347" y="381" on="0"/>
        <pt x="322" y="455" on="0"/>
        <pt x="309" y="499" on="1"/>
        <pt x="307" y="499" on="1"/>
        <pt x="293" y="458" on="0"/>
        <pt x="267" y="381" on="0"/>
        <pt x="252" y="339" on="1"/>
      </contour>
      <contour>
        <pt x="249" y="630" on="1"/>
        <pt x="371" y="630" on="1"/>
        <pt x="610" y="0" on="1"/>
        <pt x="481" y="0" on="1"/>
        <pt x="425" y="155" on="1"/>
        <pt x="190" y="155" on="1"/>
        <pt x="134" y="0" on="1"/>
        <pt x="7" y="0" on="1"/>
      </contour>
    </TTGlyph>
    <TTGlyph name="AE" xMin="9" yMin="0" xMax="779" yMax="630">
      <contour>
        <pt x="328" y="630" on="1"/>
        <pt x="776" y="630" on="1"/>
        <pt x="776" y="534" on="1"/>
        <pt x="523" y="534" on="1"/>
        <pt x="523" y="375" on="1"/>
        <pt x="750" y="375" on="1"/>
        <pt x="750" y="280" on="1"/>
        <pt x="523" y="280" on="1"/>
        <pt x="523" y="96" on="1"/>
        <pt x="779" y="96" on="1"/>
        <pt x="779" y="0" on="1"/>
        <pt x="403" y="0" on="1"/>
        <pt x="403" y="157" on="1"/>
        <pt x="224" y="157" on="1"/>
        <pt x="148" y="0" on="1"/>
        <pt x="9" y="0" on="1"/>
      </contour>
      <contour>
        <pt x="403" y="541" on="1"/>
        <pt x="264" y="250" on="1"/>
        <pt x="403" y="250" on="1"/>
      </contour>
    </TTGlyph>
    <TTGlyph name="AEacute" xMin="9" yMin="0" xMax="779" yMax="824">
      <contour>
        <pt x="328" y="630" on="1"/>
        <pt x="776" y="630" on="1"/>
        <pt x="776" y="534" on="1"/>
        <pt x="523" y="534" on="1"/>
        <pt x="523" y="375" on="1"/>
        <pt x="750" y="375" on="1"/>
        <pt x="750" y="280" on="1"/>
        <pt x="523" y="280" on="1"/>
        <pt x="523" y="96" on="1"/>
        <pt x="779" y="96" on="1"/>
        <pt x="779" y="0" on="1"/>
        <pt x="403" y="0" on="1"/>
        <pt x="403" y="157" on="1"/>
        <pt x="224" y="157" on="1"/>
        <pt x="148" y="0" on="1"/>
        <pt x="9" y="0" on="1"/>
      </contour>
      <contour>
        <pt x="403" y="541" on="1"/>
        <pt x="264" y="250" on="1"/>
        <pt x="403" y="250" on="1"/>
      </contour>
      <contour>
        <pt x="452" y="700" on="1"/>
        <pt x="355" y="700" on="1"/>
        <pt x="435" y="824" on="1"/>
        <pt x="566" y="824" on="1"/>
      </contour>
    </TTGlyph>
    <TTGlyph name="Aacute" xMin="7" yMin="0" xMax="610" yMax="824">
      <contour>
        <pt x="355" y="700" on="1"/>
        <pt x="258" y="700" on="1"/>
        <pt x="338" y="824" on="1"/>
        <pt x="469" y="824" on="1"/>
      </contour>
      <contour>
        <pt x="219" y="246" on="1"/>
        <pt x="394" y="246" on="1"/>
        <pt x="361" y="339" on="1"/>
        <pt x="347" y="381" on="0"/>
        <pt x="322" y="455" on="0"/>
        <pt x="309" y="499" on="1"/>
        <pt x="307" y="499" on="1"/>
        <pt x="293" y="458" on="0"/>
        <pt x="267" y="381" on="0"/>
        <pt x="252" y="339" on="1"/>
      </contour>
      <contour>
        <pt x="249" y="630" on="1"/>
        <pt x="371" y="630" on="1"/>
        <pt x="610" y="0" on="1"/>
        <pt x="481" y="0" on="1"/>
        <pt x="425" y="155" on="1"/>
        <pt x="190" y="155" on="1"/>
        <pt x="134" y="0" on="1"/>
        <pt x="7" y="0" on="1"/>
      </contour>
    </TTGlyph>
    <TTGlyph name="Abreve" xMin="7" yMin="0" xMax="610" yMax="824">
      <contour>
        <pt x="245" y="824" on="1"/>
        <pt x="247" y="796" on="0"/>
        <pt x="274" y="764" on="0"/>
        <pt x="308" y="764" on="1"/>
        <pt x="364" y="764" on="0"/>
        <pt x="369" y="824" on="1"/>
        <pt x="441" y="824" on="1"/>
        <pt x="441" y="766" on="0"/>
        <pt x="372" y="697" on="0"/>
        <pt x="307" y="697" on="1"/>
        <pt x="271" y="697" on="0"/>
        <pt x="220" y="718" on="0"/>
        <pt x="187" y="753" on="0"/>
        <pt x="172" y="799" on="0"/>
        <pt x="172" y="824" on="1"/>
      </contour>
      <contour>
        <pt x="219" y="246" on="1"/>
        <pt x="394" y="246" on="1"/>
        <pt x="361" y="339" on="1"/>
        <pt x="347" y="381" on="0"/>
        <pt x="322" y="455" on="0"/>
        <pt x="309" y="499" on="1"/>
        <pt x="307" y="499" on="1"/>
        <pt x="293" y="458" on="0"/>
        <pt x="267" y="381" on="0"/>
        <pt x="252" y="339" on="1"/>
      </contour>
      <contour>
        <pt x="249" y="630" on="1"/>
        <pt x="371" y="630" on="1"/>
        <pt x="610" y="0" on="1"/>
        <pt x="481" y="0" on="1"/>
        <pt x="425" y="155" on="1"/>
        <pt x="190" y="155" on="1"/>
        <pt x="134" y="0" on="1"/>
        <pt x="7" y="0" on="1"/>
      </contour>
    </TTGlyph>
    <TTGlyph name="Acircumflex" xMin="7" yMin="0" xMax="610" yMax="829">
      <contour>
        <pt x="263" y="829" on="1"/>
        <pt x="352" y="829" on="1"/>
        <pt x="472" y="700" on="1"/>
        <pt x="377" y="700" on="1"/>
        <pt x="307" y="774" on="1"/>
        <pt x="237" y="700" on="1"/>
        <pt x="146" y="700" on="1"/>
      </contour>
      <contour>
        <pt x="219" y="246" on="1"/>
        <pt x="394" y="246" on="1"/>
        <pt x="361" y="339" on="1"/>
        <pt x="347" y="381" on="0"/>
        <pt x="322" y="455" on="0"/>
        <pt x="309" y="499" on="1"/>
        <pt x="307" y="499" on="1"/>
        <pt x="293" y="458" on="0"/>
        <pt x="267" y="381" on="0"/>
        <pt x="252" y="339" on="1"/>
      </contour>
      <contour>
        <pt x="249" y="630" on="1"/>
        <pt x="371" y="630" on="1"/>
        <pt x="610" y="0" on="1"/>
        <pt x="481" y="0" on="1"/>
        <pt x="425" y="155" on="1"/>
        <pt x="190" y="155" on="1"/>
        <pt x="134" y="0" on="1"/>
        <pt x="7" y="0" on="1"/>
      </contour>
    </TTGlyph>
    <TTGlyph name="Acute" xMin="26" yMin="700" xMax="236" yMax="824">
      <contour>
        <pt x="123" y="700" on="1"/>
        <pt x="26" y="700" on="1"/>
        <pt x="106" y="824" on="1"/>
        <pt x="236" y="824" on="1"/>
      </contour>
    </TTGlyph>
    <TTGlyph name="Adieresis" xMin="7" yMin="0" xMax="610" yMax="812">
      <contour>
        <pt x="156" y="754" on="1"/>
        <pt x="156" y="777" on="0"/>
        <pt x="191" y="812" on="0"/>
        <pt x="215" y="812" on="1"/>
        <pt x="240" y="812" on="0"/>
        <pt x="274" y="777" on="0"/>
        <pt x="274" y="754" on="1"/>
        <pt x="274" y="729" on="0"/>
        <pt x="240" y="694" on="0"/>
        <pt x="215" y="694" on="1"/>
        <pt x="191" y="694" on="0"/>
        <pt x="156" y="729" on="0"/>
      </contour>
      <contour>
        <pt x="342" y="754" on="1"/>
        <pt x="342" y="777" on="0"/>
        <pt x="376" y="812" on="0"/>
        <pt x="401" y="812" on="1"/>
        <pt x="425" y="812" on="0"/>
        <pt x="459" y="777" on="0"/>
        <pt x="459" y="754" on="1"/>
        <pt x="459" y="729" on="0"/>
        <pt x="425" y="694" on="0"/>
        <pt x="401" y="694" on="1"/>
        <pt x="376" y="694" on="0"/>
        <pt x="342" y="729" on="0"/>
      </contour>
      <contour>
        <pt x="219" y="246" on="1"/>
        <pt x="394" y="246" on="1"/>
        <pt x="361" y="339" on="1"/>
        <pt x="347" y="381" on="0"/>
        <pt x="322" y="455" on="0"/>
        <pt x="309" y="499" on="1"/>
        <pt x="307" y="499" on="1"/>
        <pt x="293" y="458" on="0"/>
        <pt x="267" y="381" on="0"/>
        <pt x="252" y="339" on="1"/>
      </contour>
      <contour>
        <pt x="249" y="630" on="1"/>
        <pt x="371" y="630" on="1"/>
        <pt x="610" y="0" on="1"/>
        <pt x="481" y="0" on="1"/>
        <pt x="425" y="155" on="1"/>
        <pt x="190" y="155" on="1"/>
        <pt x="134" y="0" on="1"/>
        <pt x="7" y="0" on="1"/>
      </contour>
    </TTGlyph>
    <TTGlyph name="Agrave" xMin="7" yMin="0" xMax="610" yMax="824">
      <contour>
        <pt x="150" y="824" on="1"/>
        <pt x="280" y="824" on="1"/>
        <pt x="360" y="700" on="1"/>
        <pt x="263" y="700" on="1"/>
      </contour>
      <contour>
        <pt x="219" y="246" on="1"/>
        <pt x="394" y="246" on="1"/>
        <pt x="361" y="339" on="1"/>
        <pt x="347" y="381" on="0"/>
        <pt x="322" y="455" on="0"/>
        <pt x="309" y="499" on="1"/>
        <pt x="307" y="499" on="1"/>
        <pt x="293" y="458" on="0"/>
        <pt x="267" y="381" on="0"/>
        <pt x="252" y="339" on="1"/>
      </contour>
      <contour>
        <pt x="249" y="630" on="1"/>
        <pt x="371" y="630" on="1"/>
        <pt x="610" y="0" on="1"/>
        <pt x="481" y="0" on="1"/>
        <pt x="425" y="155" on="1"/>
        <pt x="190" y="155" on="1"/>
        <pt x="134" y="0" on="1"/>
        <pt x="7" y="0" on="1"/>
      </contour>
    </TTGlyph>
    <TTGlyph name="Amacron" xMin="7" yMin="0" xMax="610" yMax="772">
      <contour>
        <pt x="433" y="772" on="1"/>
        <pt x="433" y="700" on="1"/>
        <pt x="181" y="700" on="1"/>
        <pt x="181" y="772" on="1"/>
      </contour>
      <contour>
        <pt x="219" y="246" on="1"/>
        <pt x="394" y="246" on="1"/>
        <pt x="361" y="339" on="1"/>
        <pt x="347" y="381" on="0"/>
        <pt x="322" y="455" on="0"/>
        <pt x="309" y="499" on="1"/>
        <pt x="307" y="499" on="1"/>
        <pt x="293" y="458" on="0"/>
        <pt x="267" y="381" on="0"/>
        <pt x="252" y="339" on="1"/>
      </contour>
      <contour>
        <pt x="249" y="630" on="1"/>
        <pt x="371" y="630" on="1"/>
        <pt x="610" y="0" on="1"/>
        <pt x="481" y="0" on="1"/>
        <pt x="425" y="155" on="1"/>
        <pt x="190" y="155" on="1"/>
        <pt x="134" y="0" on="1"/>
        <pt x="7" y="0" on="1"/>
      </contour>
    </TTGlyph>
    <TTGlyph name="Aogonek" xMin="7" yMin="-206" xMax="613" yMax="630">
      <contour>
        <pt x="249" y="630" on="1"/>
        <pt x="371" y="630" on="1"/>
        <pt x="610" y="0" on="1"/>
        <pt x="572" y="0" on="1"/>
        <pt x="504" y="-39" on="0"/>
        <pt x="504" y="-85" on="1"/>
        <pt x="504" y="-107" on="0"/>
        <pt x="530" y="-131" on="0"/>
        <pt x="552" y="-131" on="1"/>
        <pt x="577" y="-131" on="0"/>
        <pt x="596" y="-123" on="1"/>
        <pt x="613" y="-185" on="1"/>
        <pt x="596" y="-195" on="0"/>
        <pt x="553" y="-206" on="0"/>
        <pt x="529" y="-206" on="1"/>
        <pt x="483" y="-206" on="0"/>
        <pt x="422" y="-154" on="0"/>
        <pt x="422" y="-107" on="1"/>
        <pt x="422" y="-69" on="0"/>
        <pt x="458" y="-17" on="0"/>
        <pt x="481" y="0" on="1"/>
        <pt x="425" y="155" on="1"/>
        <pt x="190" y="155" on="1"/>
        <pt x="134" y="0" on="1"/>
        <pt x="7" y="0" on="1"/>
      </contour>
      <contour>
        <pt x="219" y="246" on="1"/>
        <pt x="394" y="246" on="1"/>
        <pt x="361" y="339" on="1"/>
        <pt x="347" y="381" on="0"/>
        <pt x="322" y="455" on="0"/>
        <pt x="309" y="499" on="1"/>
        <pt x="307" y="499" on="1"/>
        <pt x="293" y="458" on="0"/>
        <pt x="267" y="381" on="0"/>
        <pt x="252" y="339" on="1"/>
      </contour>
    </TTGlyph>
    <TTGlyph name="Aring" xMin="7" yMin="0" xMax="610" yMax="849">
      <contour>
        <pt x="206" y="761" on="1"/>
        <pt x="206" y="806" on="0"/>
        <pt x="264" y="849" on="0"/>
        <pt x="308" y="849" on="1"/>
        <pt x="353" y="849" on="0"/>
        <pt x="410" y="806" on="0"/>
        <pt x="410" y="761" on="1"/>
        <pt x="410" y="738" on="0"/>
        <pt x="393" y="705" on="0"/>
        <pt x="365" y="684" on="0"/>
        <pt x="328" y="673" on="0"/>
        <pt x="308" y="673" on="1"/>
        <pt x="266" y="673" on="0"/>
        <pt x="206" y="718" on="0"/>
      </contour>
      <contour>
        <pt x="265" y="761" on="1"/>
        <pt x="265" y="739" on="0"/>
        <pt x="288" y="714" on="0"/>
        <pt x="308" y="714" on="1"/>
        <pt x="328" y="714" on="0"/>
        <pt x="351" y="739" on="0"/>
        <pt x="351" y="761" on="1"/>
        <pt x="351" y="783" on="0"/>
        <pt x="328" y="808" on="0"/>
        <pt x="308" y="808" on="1"/>
        <pt x="288" y="808" on="0"/>
        <pt x="265" y="783" on="0"/>
      </contour>
      <contour>
        <pt x="219" y="246" on="1"/>
        <pt x="394" y="246" on="1"/>
        <pt x="361" y="339" on="1"/>
        <pt x="347" y="381" on="0"/>
        <pt x="322" y="455" on="0"/>
        <pt x="309" y="499" on="1"/>
        <pt x="307" y="499" on="1"/>
        <pt x="293" y="458" on="0"/>
        <pt x="267" y="381" on="0"/>
        <pt x="252" y="339" on="1"/>
      </contour>
      <contour>
        <pt x="249" y="630" on="1"/>
        <pt x="371" y="630" on="1"/>
        <pt x="610" y="0" on="1"/>
        <pt x="481" y="0" on="1"/>
        <pt x="425" y="155" on="1"/>
        <pt x="190" y="155" on="1"/>
        <pt x="134" y="0" on="1"/>
        <pt x="7" y="0" on="1"/>
      </contour>
    </TTGlyph>
    <TTGlyph name="Asmall" xMin="9" yMin="0" xMax="490" yMax="475">
      <contour>
        <pt x="190" y="191" on="1"/>
        <pt x="306" y="191" on="1"/>
        <pt x="282" y="259" on="1"/>
        <pt x="274" y="284" on="0"/>
        <pt x="256" y="338" on="0"/>
        <pt x="250" y="361" on="1"/>
        <pt x="248" y="361" on="1"/>
        <pt x="242" y="338" on="0"/>
        <pt x="224" y="284" on="0"/>
        <pt x="215" y="259" on="1"/>
      </contour>
      <contour>
        <pt x="187" y="475" on="1"/>
        <pt x="310" y="475" on="1"/>
        <pt x="490" y="0" on="1"/>
        <pt x="371" y="0" on="1"/>
        <pt x="333" y="108" on="1"/>
        <pt x="164" y="108" on="1"/>
        <pt x="125" y="0" on="1"/>
        <pt x="9" y="0" on="1"/>
      </contour>
    </TTGlyph>
    <TTGlyph name="Atilde" xMin="7" yMin="0" xMax="610" yMax="818">
      <contour>
        <pt x="154" y="700" on="1"/>
        <pt x="154" y="748" on="0"/>
        <pt x="199" y="815" on="0"/>
        <pt x="244" y="815" on="1"/>
        <pt x="263" y="815" on="0"/>
        <pt x="294" y="803" on="0"/>
        <pt x="322" y="789" on="0"/>
        <pt x="348" y="777" on="0"/>
        <pt x="363" y="777" on="1"/>
        <pt x="380" y="777" on="0"/>
        <pt x="396" y="801" on="0"/>
        <pt x="397" y="818" on="1"/>
        <pt x="457" y="818" on="1"/>
        <pt x="457" y="770" on="0"/>
        <pt x="413" y="704" on="0"/>
        <pt x="372" y="704" on="1"/>
        <pt x="352" y="704" on="0"/>
        <pt x="316" y="716" on="0"/>
        <pt x="286" y="729" on="0"/>
        <pt x="260" y="741" on="0"/>
        <pt x="249" y="741" on="1"/>
        <pt x="230" y="741" on="0"/>
        <pt x="216" y="717" on="0"/>
        <pt x="214" y="700" on="1"/>
      </contour>
      <contour>
        <pt x="219" y="246" on="1"/>
        <pt x="394" y="246" on="1"/>
        <pt x="361" y="339" on="1"/>
        <pt x="347" y="381" on="0"/>
        <pt x="322" y="455" on="0"/>
        <pt x="309" y="499" on="1"/>
        <pt x="307" y="499" on="1"/>
        <pt x="293" y="458" on="0"/>
        <pt x="267" y="381" on="0"/>
        <pt x="252" y="339" on="1"/>
      </contour>
      <contour>
        <pt x="249" y="630" on="1"/>
        <pt x="371" y="630" on="1"/>
        <pt x="610" y="0" on="1"/>
        <pt x="481" y="0" on="1"/>
        <pt x="425" y="155" on="1"/>
        <pt x="190" y="155" on="1"/>
        <pt x="134" y="0" on="1"/>
        <pt x="7" y="0" on="1"/>
      </contour>
    </TTGlyph>
    <TTGlyph name="B" xMin="73" yMin="0" xMax="515" yMax="630">
      <contour>
        <pt x="286" y="630" on="1"/>
        <pt x="383" y="630" on="0"/>
        <pt x="496" y="545" on="0"/>
        <pt x="496" y="467" on="1"/>
        <pt x="496" y="438" on="0"/>
        <pt x="477" y="393" on="0"/>
        <pt x="445" y="360" on="0"/>
        <pt x="403" y="338" on="0"/>
        <pt x="381" y="332" on="1"/>
        <pt x="408" y="327" on="0"/>
        <pt x="457" y="303" on="0"/>
        <pt x="494" y="264" on="0"/>
        <pt x="515" y="211" on="0"/>
        <pt x="515" y="177" on="1"/>
        <pt x="515" y="138" on="0"/>
        <pt x="481" y="73" on="0"/>
        <pt x="419" y="26" on="0"/>
        <pt x="332" y="0" on="0"/>
        <pt x="280" y="0" on="1"/>
        <pt x="73" y="0" on="1"/>
        <pt x="73" y="630" on="1"/>
      </contour>
      <contour>
        <pt x="195" y="374" on="1"/>
        <pt x="263" y="374" on="1"/>
        <pt x="309" y="374" on="0"/>
        <pt x="371" y="413" on="0"/>
        <pt x="371" y="458" on="1"/>
        <pt x="371" y="497" on="0"/>
        <pt x="316" y="536" on="0"/>
        <pt x="267" y="536" on="1"/>
        <pt x="195" y="536" on="1"/>
      </contour>
      <contour>
        <pt x="195" y="94" on="1"/>
        <pt x="264" y="94" on="1"/>
        <pt x="290" y="94" on="0"/>
        <pt x="336" y="104" on="0"/>
        <pt x="370" y="126" on="0"/>
        <pt x="389" y="163" on="0"/>
        <pt x="389" y="189" on="1"/>
        <pt x="389" y="214" on="0"/>
        <pt x="367" y="249" on="0"/>
        <pt x="331" y="271" on="0"/>
        <pt x="283" y="281" on="0"/>
        <pt x="257" y="281" on="1"/>
        <pt x="195" y="281" on="1"/>
      </contour>
    </TTGlyph>
    <TTGlyph name="Breve" xMin="17" yMin="697" xMax="286" yMax="824">
      <contour>
        <pt x="90" y="824" on="1"/>
        <pt x="92" y="796" on="0"/>
        <pt x="119" y="764" on="0"/>
        <pt x="153" y="764" on="1"/>
        <pt x="209" y="764" on="0"/>
        <pt x="214" y="824" on="1"/>
        <pt x="286" y="824" on="1"/>
        <pt x="286" y="766" on="0"/>
        <pt x="217" y="697" on="0"/>
        <pt x="152" y="697" on="1"/>
        <pt x="116" y="697" on="0"/>
        <pt x="65" y="718" on="0"/>
        <pt x="32" y="753" on="0"/>
        <pt x="17" y="799" on="0"/>
        <pt x="17" y="824" on="1"/>
      </contour>
    </TTGlyph>
    <TTGlyph name="Bsmall" xMin="69" yMin="0" xMax="449" yMax="475">
      <contour>
        <pt x="263" y="475" on="1"/>
        <pt x="347" y="475" on="0"/>
        <pt x="428" y="407" on="0"/>
        <pt x="428" y="353" on="1"/>
        <pt x="428" y="315" on="0"/>
        <pt x="383" y="265" on="0"/>
        <pt x="346" y="253" on="1"/>
        <pt x="396" y="241" on="0"/>
        <pt x="449" y="182" on="0"/>
        <pt x="449" y="136" on="1"/>
        <pt x="449" y="78" on="0"/>
        <pt x="355" y="0" on="0"/>
        <pt x="262" y="0" on="1"/>
        <pt x="69" y="0" on="1"/>
        <pt x="69" y="475" on="1"/>
      </contour>
      <contour>
        <pt x="186" y="288" on="1"/>
        <pt x="239" y="288" on="1"/>
        <pt x="268" y="288" on="0"/>
        <pt x="308" y="311" on="0"/>
        <pt x="308" y="338" on="1"/>
        <pt x="308" y="361" on="0"/>
        <pt x="275" y="387" on="0"/>
        <pt x="237" y="387" on="1"/>
        <pt x="186" y="387" on="1"/>
      </contour>
      <contour>
        <pt x="186" y="88" on="1"/>
        <pt x="240" y="88" on="1"/>
        <pt x="283" y="88" on="0"/>
        <pt x="327" y="115" on="0"/>
        <pt x="327" y="147" on="1"/>
        <pt x="327" y="168" on="0"/>
        <pt x="294" y="202" on="0"/>
        <pt x="252" y="202" on="1"/>
        <pt x="186" y="202" on="1"/>
      </contour>
    </TTGlyph>
    <TTGlyph name="C" xMin="41" yMin="-10" xMax="537" yMax="640">
      <contour>
        <pt x="372" y="86" on="1"/>
        <pt x="419" y="86" on="0"/>
        <pt x="483" y="102" on="0"/>
        <pt x="509" y="116" on="1"/>
        <pt x="535" y="24" on="1"/>
        <pt x="507" y="10" on="0"/>
        <pt x="421" y="-10" on="0"/>
        <pt x="359" y="-10" on="1"/>
        <pt x="291" y="-10" on="0"/>
        <pt x="174" y="34" on="0"/>
        <pt x="89" y="117" on="0"/>
        <pt x="41" y="238" on="0"/>
        <pt x="41" y="315" on="1"/>
        <pt x="41" y="390" on="0"/>
        <pt x="87" y="511" on="0"/>
        <pt x="172" y="595" on="0"/>
        <pt x="290" y="640" on="0"/>
        <pt x="362" y="640" on="1"/>
        <pt x="426" y="640" on="0"/>
        <pt x="508" y="618" on="0"/>
        <pt x="537" y="603" on="1"/>
        <pt x="509" y="511" on="1"/>
        <pt x="479" y="526" on="0"/>
        <pt x="417" y="544" on="0"/>
        <pt x="376" y="544" on="1"/>
        <pt x="334" y="544" on="0"/>
        <pt x="259" y="519" on="0"/>
        <pt x="204" y="464" on="0"/>
        <pt x="171" y="377" on="0"/>
        <pt x="171" y="315" on="1"/>
        <pt x="171" y="255" on="0"/>
        <pt x="203" y="168" on="0"/>
        <pt x="257" y="112" on="0"/>
        <pt x="330" y="86" on="0"/>
      </contour>
    </TTGlyph>
    <TTGlyph name="Cacute" xMin="41" yMin="-10" xMax="537" yMax="824">
      <contour>
        <pt x="372" y="86" on="1"/>
        <pt x="419" y="86" on="0"/>
        <pt x="483" y="102" on="0"/>
        <pt x="509" y="116" on="1"/>
        <pt x="535" y="24" on="1"/>
        <pt x="507" y="10" on="0"/>
        <pt x="421" y="-10" on="0"/>
        <pt x="359" y="-10" on="1"/>
        <pt x="291" y="-10" on="0"/>
        <pt x="174" y="34" on="0"/>
        <pt x="89" y="117" on="0"/>
        <pt x="41" y="238" on="0"/>
        <pt x="41" y="315" on="1"/>
        <pt x="41" y="390" on="0"/>
        <pt x="87" y="511" on="0"/>
        <pt x="172" y="595" on="0"/>
        <pt x="290" y="640" on="0"/>
        <pt x="362" y="640" on="1"/>
        <pt x="426" y="640" on="0"/>
        <pt x="508" y="618" on="0"/>
        <pt x="537" y="603" on="1"/>
        <pt x="509" y="511" on="1"/>
        <pt x="479" y="526" on="0"/>
        <pt x="417" y="544" on="0"/>
        <pt x="376" y="544" on="1"/>
        <pt x="334" y="544" on="0"/>
        <pt x="259" y="519" on="0"/>
        <pt x="204" y="464" on="0"/>
        <pt x="171" y="377" on="0"/>
        <pt x="171" y="315" on="1"/>
        <pt x="171" y="255" on="0"/>
        <pt x="203" y="168" on="0"/>
        <pt x="257" y="112" on="0"/>
        <pt x="330" y="86" on="0"/>
      </contour>
      <contour>
        <pt x="344" y="700" on="1"/>
        <pt x="247" y="700" on="1"/>
        <pt x="327" y="824" on="1"/>
        <pt x="457" y="824" on="1"/>
      </contour>
    </TTGlyph>
    <TTGlyph name="Caron" xMin="18" yMin="700" xMax="344" yMax="829">
      <contour>
        <pt x="18" y="829" on="1"/>
        <pt x="111" y="829" on="1"/>
        <pt x="181" y="755" on="1"/>
        <pt x="251" y="829" on="1"/>
        <pt x="344" y="829" on="1"/>
        <pt x="225" y="700" on="1"/>
        <pt x="136" y="700" on="1"/>
      </contour>
    </TTGlyph>
    <TTGlyph name="Ccaron" xMin="41" yMin="-10" xMax="537" yMax="829">
      <contour>
        <pt x="372" y="86" on="1"/>
        <pt x="419" y="86" on="0"/>
        <pt x="483" y="102" on="0"/>
        <pt x="509" y="116" on="1"/>
        <pt x="535" y="24" on="1"/>
        <pt x="507" y="10" on="0"/>
        <pt x="421" y="-10" on="0"/>
        <pt x="359" y="-10" on="1"/>
        <pt x="291" y="-10" on="0"/>
        <pt x="174" y="34" on="0"/>
        <pt x="89" y="117" on="0"/>
        <pt x="41" y="238" on="0"/>
        <pt x="41" y="315" on="1"/>
        <pt x="41" y="390" on="0"/>
        <pt x="87" y="511" on="0"/>
        <pt x="172" y="595" on="0"/>
        <pt x="290" y="640" on="0"/>
        <pt x="362" y="640" on="1"/>
        <pt x="426" y="640" on="0"/>
        <pt x="508" y="618" on="0"/>
        <pt x="537" y="603" on="1"/>
        <pt x="509" y="511" on="1"/>
        <pt x="479" y="526" on="0"/>
        <pt x="417" y="544" on="0"/>
        <pt x="376" y="544" on="1"/>
        <pt x="334" y="544" on="0"/>
        <pt x="259" y="519" on="0"/>
        <pt x="204" y="464" on="0"/>
        <pt x="171" y="377" on="0"/>
        <pt x="171" y="315" on="1"/>
        <pt x="171" y="255" on="0"/>
        <pt x="203" y="168" on="0"/>
        <pt x="257" y="112" on="0"/>
        <pt x="330" y="86" on="0"/>
      </contour>
      <contour>
        <pt x="181" y="829" on="1"/>
        <pt x="276" y="829" on="1"/>
        <pt x="345" y="754" on="1"/>
        <pt x="415" y="829" on="1"/>
        <pt x="507" y="829" on="1"/>
        <pt x="389" y="700" on="1"/>
        <pt x="300" y="700" on="1"/>
      </contour>
    </TTGlyph>
    <TTGlyph name="Ccedilla" xMin="41" yMin="-215" xMax="537" yMax="640">
      <contour>
        <pt x="372" y="86" on="1"/>
        <pt x="419" y="86" on="0"/>
        <pt x="483" y="102" on="0"/>
        <pt x="509" y="116" on="1"/>
        <pt x="535" y="24" on="1"/>
        <pt x="508" y="10" on="0"/>
        <pt x="427" y="-9" on="0"/>
        <pt x="369" y="-10" on="1"/>
        <pt x="355" y="-47" on="1"/>
        <pt x="400" y="-50" on="0"/>
        <pt x="442" y="-96" on="0"/>
        <pt x="442" y="-125" on="1"/>
        <pt x="442" y="-169" on="0"/>
        <pt x="373" y="-215" on="0"/>
        <pt x="322" y="-215" on="1"/>
        <pt x="298" y="-215" on="0"/>
        <pt x="256" y="-206" on="0"/>
        <pt x="243" y="-201" on="1"/>
        <pt x="258" y="-151" on="1"/>
        <pt x="283" y="-160" on="0"/>
        <pt x="310" y="-160" on="1"/>
        <pt x="364" y="-160" on="0"/>
        <pt x="364" y="-122" on="1"/>
        <pt x="364" y="-113" on="0"/>
        <pt x="357" y="-97" on="0"/>
        <pt x="338" y="-85" on="0"/>
        <pt x="305" y="-78" on="0"/>
        <pt x="278" y="-78" on="1"/>
        <pt x="307" y="-7" on="1"/>
        <pt x="249" y="1" on="0"/>
        <pt x="151" y="51" on="0"/>
        <pt x="81" y="134" on="0"/>
        <pt x="41" y="246" on="0"/>
        <pt x="41" y="315" on="1"/>
        <pt x="41" y="390" on="0"/>
        <pt x="87" y="511" on="0"/>
        <pt x="172" y="595" on="0"/>
        <pt x="290" y="640" on="0"/>
        <pt x="362" y="640" on="1"/>
        <pt x="426" y="640" on="0"/>
        <pt x="508" y="618" on="0"/>
        <pt x="537" y="603" on="1"/>
        <pt x="509" y="511" on="1"/>
        <pt x="479" y="526" on="0"/>
        <pt x="417" y="544" on="0"/>
        <pt x="376" y="544" on="1"/>
        <pt x="334" y="544" on="0"/>
        <pt x="259" y="519" on="0"/>
        <pt x="204" y="464" on="0"/>
        <pt x="171" y="377" on="0"/>
        <pt x="171" y="315" on="1"/>
        <pt x="171" y="255" on="0"/>
        <pt x="203" y="168" on="0"/>
        <pt x="257" y="112" on="0"/>
        <pt x="330" y="86" on="0"/>
      </contour>
    </TTGlyph>
    <TTGlyph name="Ccircumflex" xMin="41" yMin="-10" xMax="537" yMax="829">
      <contour>
        <pt x="372" y="86" on="1"/>
        <pt x="419" y="86" on="0"/>
        <pt x="483" y="102" on="0"/>
        <pt x="509" y="116" on="1"/>
        <pt x="535" y="24" on="1"/>
        <pt x="507" y="10" on="0"/>
        <pt x="421" y="-10" on="0"/>
        <pt x="359" y="-10" on="1"/>
        <pt x="291" y="-10" on="0"/>
        <pt x="174" y="34" on="0"/>
        <pt x="89" y="117" on="0"/>
        <pt x="41" y="238" on="0"/>
        <pt x="41" y="315" on="1"/>
        <pt x="41" y="390" on="0"/>
        <pt x="87" y="511" on="0"/>
        <pt x="172" y="595" on="0"/>
        <pt x="290" y="640" on="0"/>
        <pt x="362" y="640" on="1"/>
        <pt x="426" y="640" on="0"/>
        <pt x="508" y="618" on="0"/>
        <pt x="537" y="603" on="1"/>
        <pt x="509" y="511" on="1"/>
        <pt x="479" y="526" on="0"/>
        <pt x="417" y="544" on="0"/>
        <pt x="376" y="544" on="1"/>
        <pt x="334" y="544" on="0"/>
        <pt x="259" y="519" on="0"/>
        <pt x="204" y="464" on="0"/>
        <pt x="171" y="377" on="0"/>
        <pt x="171" y="315" on="1"/>
        <pt x="171" y="255" on="0"/>
        <pt x="203" y="168" on="0"/>
        <pt x="257" y="112" on="0"/>
        <pt x="330" y="86" on="0"/>
      </contour>
      <contour>
        <pt x="295" y="829" on="1"/>
        <pt x="384" y="829" on="1"/>
        <pt x="504" y="700" on="1"/>
        <pt x="409" y="700" on="1"/>
        <pt x="339" y="774" on="1"/>
        <pt x="269" y="700" on="1"/>
        <pt x="178" y="700" on="1"/>
      </contour>
    </TTGlyph>
    <TTGlyph name="Cdotaccent" xMin="41" yMin="-10" xMax="537" yMax="818">
      <contour>
        <pt x="372" y="86" on="1"/>
        <pt x="419" y="86" on="0"/>
        <pt x="483" y="102" on="0"/>
        <pt x="509" y="116" on="1"/>
        <pt x="535" y="24" on="1"/>
        <pt x="507" y="10" on="0"/>
        <pt x="421" y="-10" on="0"/>
        <pt x="359" y="-10" on="1"/>
        <pt x="291" y="-10" on="0"/>
        <pt x="174" y="34" on="0"/>
        <pt x="89" y="117" on="0"/>
        <pt x="41" y="238" on="0"/>
        <pt x="41" y="315" on="1"/>
        <pt x="41" y="390" on="0"/>
        <pt x="87" y="511" on="0"/>
        <pt x="172" y="595" on="0"/>
        <pt x="290" y="640" on="0"/>
        <pt x="362" y="640" on="1"/>
        <pt x="426" y="640" on="0"/>
        <pt x="508" y="618" on="0"/>
        <pt x="537" y="603" on="1"/>
        <pt x="509" y="511" on="1"/>
        <pt x="479" y="526" on="0"/>
        <pt x="417" y="544" on="0"/>
        <pt x="376" y="544" on="1"/>
        <pt x="334" y="544" on="0"/>
        <pt x="259" y="519" on="0"/>
        <pt x="204" y="464" on="0"/>
        <pt x="171" y="377" on="0"/>
        <pt x="171" y="315" on="1"/>
        <pt x="171" y="255" on="0"/>
        <pt x="203" y="168" on="0"/>
        <pt x="257" y="112" on="0"/>
        <pt x="330" y="86" on="0"/>
      </contour>
      <contour>
        <pt x="298" y="757" on="1"/>
        <pt x="298" y="782" on="0"/>
        <pt x="334" y="818" on="0"/>
        <pt x="360" y="818" on="1"/>
        <pt x="386" y="818" on="0"/>
        <pt x="421" y="782" on="0"/>
        <pt x="421" y="757" on="1"/>
        <pt x="421" y="731" on="0"/>
        <pt x="386" y="694" on="0"/>
        <pt x="360" y="694" on="1"/>
        <pt x="334" y="694" on="0"/>
        <pt x="298" y="731" on="0"/>
      </contour>
    </TTGlyph>
    <TTGlyph name="Cedilla" xMin="35" yMin="-215" xMax="233" yMax="0">
      <contour>
        <pt x="101" y="0" on="1"/>
        <pt x="164" y="0" on="1"/>
        <pt x="146" y="-47" on="1"/>
        <pt x="191" y="-50" on="0"/>
        <pt x="233" y="-96" on="0"/>
        <pt x="233" y="-125" on="1"/>
        <pt x="233" y="-169" on="0"/>
        <pt x="165" y="-215" on="0"/>
        <pt x="114" y="-215" on="1"/>
        <pt x="90" y="-215" on="0"/>
        <pt x="48" y="-206" on="0"/>
        <pt x="35" y="-201" on="1"/>
        <pt x="50" y="-151" on="1"/>
        <pt x="74" y="-160" on="0"/>
        <pt x="102" y="-160" on="1"/>
        <pt x="156" y="-160" on="0"/>
        <pt x="156" y="-122" on="1"/>
        <pt x="156" y="-104" on="0"/>
        <pt x="122" y="-78" on="0"/>
        <pt x="70" y="-78" on="1"/>
      </contour>
    </TTGlyph>
    <TTGlyph name="Circumflex" xMin="23" yMin="700" xMax="349" yMax="829">
      <contour>
        <pt x="140" y="829" on="1"/>
        <pt x="229" y="829" on="1"/>
        <pt x="349" y="700" on="1"/>
        <pt x="254" y="700" on="1"/>
        <pt x="184" y="774" on="1"/>
        <pt x="114" y="700" on="1"/>
        <pt x="23" y="700" on="1"/>
      </contour>
    </TTGlyph>
    <TTGlyph name="Csmall" xMin="42" yMin="-10" xMax="434" yMax="484">
      <contour>
        <pt x="312" y="78" on="1"/>
        <pt x="344" y="78" on="0"/>
        <pt x="393" y="93" on="0"/>
        <pt x="411" y="102" on="1"/>
        <pt x="434" y="19" on="1"/>
        <pt x="412" y="8" on="0"/>
        <pt x="340" y="-10" on="0"/>
        <pt x="297" y="-10" on="1"/>
        <pt x="243" y="-10" on="0"/>
        <pt x="149" y="21" on="0"/>
        <pt x="81" y="83" on="0"/>
        <pt x="42" y="175" on="0"/>
        <pt x="42" y="236" on="1"/>
        <pt x="42" y="292" on="0"/>
        <pt x="79" y="384" on="0"/>
        <pt x="146" y="449" on="0"/>
        <pt x="241" y="484" on="0"/>
        <pt x="298" y="484" on="1"/>
        <pt x="329" y="484" on="0"/>
        <pt x="395" y="472" on="0"/>
        <pt x="433" y="454" on="1"/>
        <pt x="407" y="370" on="1"/>
        <pt x="385" y="383" on="0"/>
        <pt x="336" y="397" on="0"/>
        <pt x="311" y="397" on="1"/>
        <pt x="243" y="397" on="0"/>
        <pt x="162" y="316" on="0"/>
        <pt x="162" y="239" on="1"/>
        <pt x="162" y="194" on="0"/>
        <pt x="188" y="132" on="0"/>
        <pt x="230" y="94" on="0"/>
        <pt x="284" y="78" on="0"/>
      </contour>
    </TTGlyph>
    <TTGlyph name="D" xMin="73" yMin="0" xMax="609" yMax="630">
      <contour>
        <pt x="288" y="630" on="1"/>
        <pt x="359" y="630" on="0"/>
        <pt x="477" y="592" on="0"/>
        <pt x="562" y="516" on="0"/>
        <pt x="609" y="403" on="0"/>
        <pt x="609" y="328" on="1"/>
        <pt x="609" y="241" on="0"/>
        <pt x="553" y="116" on="0"/>
        <pt x="457" y="37" on="0"/>
        <pt x="330" y="0" on="0"/>
        <pt x="258" y="0" on="1"/>
        <pt x="73" y="0" on="1"/>
        <pt x="73" y="630" on="1"/>
      </contour>
      <contour>
        <pt x="195" y="96" on="1"/>
        <pt x="249" y="96" on="1"/>
        <pt x="293" y="96" on="0"/>
        <pt x="376" y="117" on="0"/>
        <pt x="440" y="169" on="0"/>
        <pt x="479" y="259" on="0"/>
        <pt x="479" y="328" on="1"/>
        <pt x="479" y="428" on="0"/>
        <pt x="366" y="534" on="0"/>
        <pt x="270" y="534" on="1"/>
        <pt x="195" y="534" on="1"/>
      </contour>
    </TTGlyph>
    <TTGlyph name="Dcaron" xMin="73" yMin="0" xMax="609" yMax="829">
      <contour>
        <pt x="288" y="630" on="1"/>
        <pt x="359" y="630" on="0"/>
        <pt x="477" y="592" on="0"/>
        <pt x="562" y="516" on="0"/>
        <pt x="609" y="403" on="0"/>
        <pt x="609" y="328" on="1"/>
        <pt x="609" y="241" on="0"/>
        <pt x="553" y="116" on="0"/>
        <pt x="457" y="37" on="0"/>
        <pt x="330" y="0" on="0"/>
        <pt x="258" y="0" on="1"/>
        <pt x="73" y="0" on="1"/>
        <pt x="73" y="630" on="1"/>
      </contour>
      <contour>
        <pt x="195" y="96" on="1"/>
        <pt x="249" y="96" on="1"/>
        <pt x="293" y="96" on="0"/>
        <pt x="376" y="117" on="0"/>
        <pt x="440" y="169" on="0"/>
        <pt x="479" y="259" on="0"/>
        <pt x="479" y="328" on="1"/>
        <pt x="479" y="428" on="0"/>
        <pt x="366" y="534" on="0"/>
        <pt x="270" y="534" on="1"/>
        <pt x="195" y="534" on="1"/>
      </contour>
      <contour>
        <pt x="130" y="829" on="1"/>
        <pt x="223" y="829" on="1"/>
        <pt x="293" y="755" on="1"/>
        <pt x="363" y="829" on="1"/>
        <pt x="456" y="829" on="1"/>
        <pt x="338" y="700" on="1"/>
        <pt x="249" y="700" on="1"/>
      </contour>
    </TTGlyph>
    <TTGlyph name="Dcroat" xMin="25" yMin="0" xMax="644" yMax="630">
      <contour>
        <pt x="323" y="630" on="1"/>
        <pt x="394" y="630" on="0"/>
        <pt x="512" y="592" on="0"/>
        <pt x="597" y="516" on="0"/>
        <pt x="644" y="403" on="0"/>
        <pt x="644" y="328" on="1"/>
        <pt x="644" y="241" on="0"/>
        <pt x="588" y="116" on="0"/>
        <pt x="492" y="37" on="0"/>
        <pt x="365" y="0" on="0"/>
        <pt x="293" y="0" on="1"/>
        <pt x="108" y="0" on="1"/>
        <pt x="108" y="283" on="1"/>
        <pt x="25" y="283" on="1"/>
        <pt x="25" y="365" on="1"/>
        <pt x="108" y="365" on="1"/>
        <pt x="108" y="630" on="1"/>
      </contour>
      <contour>
        <pt x="350" y="365" on="1"/>
        <pt x="350" y="283" on="1"/>
        <pt x="230" y="283" on="1"/>
        <pt x="230" y="96" on="1"/>
        <pt x="284" y="96" on="1"/>
        <pt x="328" y="96" on="0"/>
        <pt x="411" y="117" on="0"/>
        <pt x="475" y="169" on="0"/>
        <pt x="514" y="259" on="0"/>
        <pt x="514" y="328" on="1"/>
        <pt x="514" y="428" on="0"/>
        <pt x="401" y="534" on="0"/>
        <pt x="305" y="534" on="1"/>
        <pt x="230" y="534" on="1"/>
        <pt x="230" y="365" on="1"/>
      </contour>
    </TTGlyph>
    <TTGlyph name="Dieresis" xMin="32" yMin="694" xMax="335" yMax="812">
      <contour>
        <pt x="32" y="754" on="1"/>
        <pt x="32" y="777" on="0"/>
        <pt x="66" y="812" on="0"/>
        <pt x="91" y="812" on="1"/>
        <pt x="115" y="812" on="0"/>
        <pt x="149" y="777" on="0"/>
        <pt x="149" y="754" on="1"/>
        <pt x="149" y="729" on="0"/>
        <pt x="115" y="694" on="0"/>
        <pt x="91" y="694" on="1"/>
        <pt x="66" y="694" on="0"/>
        <pt x="32" y="729" on="0"/>
      </contour>
      <contour>
        <pt x="217" y="754" on="1"/>
        <pt x="217" y="777" on="0"/>
        <pt x="252" y="812" on="0"/>
        <pt x="276" y="812" on="1"/>
        <pt x="301" y="812" on="0"/>
        <pt x="335" y="777" on="0"/>
        <pt x="335" y="754" on="1"/>
        <pt x="335" y="729" on="0"/>
        <pt x="301" y="694" on="0"/>
        <pt x="276" y="694" on="1"/>
        <pt x="252" y="694" on="0"/>
        <pt x="217" y="729" on="0"/>
      </contour>
    </TTGlyph>
    <TTGlyph name="DieresisAcute" xMin="30" yMin="695" xMax="496" yMax="829">
      <contour>
        <pt x="30" y="762" on="1"/>
        <pt x="30" y="785" on="0"/>
        <pt x="64" y="820" on="0"/>
        <pt x="89" y="820" on="1"/>
        <pt x="113" y="820" on="0"/>
        <pt x="147" y="785" on="0"/>
        <pt x="147" y="762" on="1"/>
        <pt x="147" y="737" on="0"/>
        <pt x="113" y="702" on="0"/>
        <pt x="89" y="702" on="1"/>
        <pt x="64" y="702" on="0"/>
        <pt x="30" y="737" on="0"/>
      </contour>
      <contour>
        <pt x="378" y="762" on="1"/>
        <pt x="378" y="785" on="0"/>
        <pt x="413" y="820" on="0"/>
        <pt x="437" y="820" on="1"/>
        <pt x="462" y="820" on="0"/>
        <pt x="496" y="785" on="0"/>
        <pt x="496" y="762" on="1"/>
        <pt x="496" y="737" on="0"/>
        <pt x="462" y="702" on="0"/>
        <pt x="437" y="702" on="1"/>
        <pt x="413" y="702" on="0"/>
        <pt x="378" y="737" on="0"/>
      </contour>
      <contour>
        <pt x="263" y="695" on="1"/>
        <pt x="166" y="695" on="1"/>
        <pt x="236" y="829" on="1"/>
        <pt x="366" y="829" on="1"/>
      </contour>
    </TTGlyph>
    <TTGlyph name="DieresisGrave" xMin="30" yMin="695" xMax="496" yMax="829">
      <contour>
        <pt x="496" y="762" on="1"/>
        <pt x="496" y="785" on="0"/>
        <pt x="462" y="820" on="0"/>
        <pt x="437" y="820" on="1"/>
        <pt x="413" y="820" on="0"/>
        <pt x="378" y="785" on="0"/>
        <pt x="378" y="762" on="1"/>
        <pt x="378" y="737" on="0"/>
        <pt x="413" y="702" on="0"/>
        <pt x="437" y="702" on="1"/>
        <pt x="462" y="702" on="0"/>
        <pt x="496" y="737" on="0"/>
      </contour>
      <contour>
        <pt x="147" y="762" on="1"/>
        <pt x="147" y="785" on="0"/>
        <pt x="113" y="820" on="0"/>
        <pt x="89" y="820" on="1"/>
        <pt x="64" y="820" on="0"/>
        <pt x="30" y="785" on="0"/>
        <pt x="30" y="762" on="1"/>
        <pt x="30" y="737" on="0"/>
        <pt x="64" y="702" on="0"/>
        <pt x="89" y="702" on="1"/>
        <pt x="113" y="702" on="0"/>
        <pt x="147" y="737" on="0"/>
      </contour>
      <contour>
        <pt x="159" y="829" on="1"/>
        <pt x="290" y="829" on="1"/>
        <pt x="360" y="695" on="1"/>
        <pt x="263" y="695" on="1"/>
      </contour>
    </TTGlyph>
    <TTGlyph name="Dotaccent" xMin="29" yMin="694" xMax="153" yMax="818">
      <contour>
        <pt x="29" y="757" on="1"/>
        <pt x="29" y="782" on="0"/>
        <pt x="66" y="818" on="0"/>
        <pt x="91" y="818" on="1"/>
        <pt x="117" y="818" on="0"/>
        <pt x="153" y="782" on="0"/>
        <pt x="153" y="757" on="1"/>
        <pt x="153" y="731" on="0"/>
        <pt x="117" y="694" on="0"/>
        <pt x="91" y="694" on="1"/>
        <pt x="66" y="694" on="0"/>
        <pt x="29" y="731" on="0"/>
      </contour>
    </TTGlyph>
    <TTGlyph name="Dsmall" xMin="69" yMin="0" xMax="504" yMax="475">
      <contour>
        <pt x="252" y="475" on="1"/>
        <pt x="302" y="475" on="0"/>
        <pt x="394" y="450" on="0"/>
        <pt x="463" y="395" on="0"/>
        <pt x="504" y="309" on="0"/>
        <pt x="504" y="248" on="1"/>
        <pt x="504" y="182" on="0"/>
        <pt x="463" y="88" on="0"/>
        <pt x="393" y="28" on="0"/>
        <pt x="296" y="0" on="0"/>
        <pt x="241" y="0" on="1"/>
        <pt x="69" y="0" on="1"/>
        <pt x="69" y="475" on="1"/>
      </contour>
      <contour>
        <pt x="187" y="89" on="1"/>
        <pt x="226" y="89" on="1"/>
        <pt x="251" y="89" on="0"/>
        <pt x="306" y="100" on="0"/>
        <pt x="353" y="134" on="0"/>
        <pt x="384" y="195" on="0"/>
        <pt x="384" y="245" on="1"/>
        <pt x="384" y="314" on="0"/>
        <pt x="304" y="386" on="0"/>
        <pt x="226" y="386" on="1"/>
        <pt x="187" y="386" on="1"/>
      </contour>
    </TTGlyph>
    <TTGlyph name="E" xMin="73" yMin="0" xMax="476" yMax="630">
      <contour>
        <pt x="73" y="630" on="1"/>
        <pt x="473" y="630" on="1"/>
        <pt x="473" y="534" on="1"/>
        <pt x="195" y="534" on="1"/>
        <pt x="195" y="375" on="1"/>
        <pt x="447" y="375" on="1"/>
        <pt x="447" y="280" on="1"/>
        <pt x="195" y="280" on="1"/>
        <pt x="195" y="96" on="1"/>
        <pt x="476" y="96" on="1"/>
        <pt x="476" y="0" on="1"/>
        <pt x="73" y="0" on="1"/>
      </contour>
    </TTGlyph>
    <TTGlyph name="Eacute" xMin="73" yMin="0" xMax="476" yMax="824">
      <contour>
        <pt x="73" y="630" on="1"/>
        <pt x="473" y="630" on="1"/>
        <pt x="473" y="534" on="1"/>
        <pt x="195" y="534" on="1"/>
        <pt x="195" y="375" on="1"/>
        <pt x="447" y="375" on="1"/>
        <pt x="447" y="280" on="1"/>
        <pt x="195" y="280" on="1"/>
        <pt x="195" y="96" on="1"/>
        <pt x="476" y="96" on="1"/>
        <pt x="476" y="0" on="1"/>
        <pt x="73" y="0" on="1"/>
      </contour>
      <contour>
        <pt x="278" y="700" on="1"/>
        <pt x="181" y="700" on="1"/>
        <pt x="261" y="824" on="1"/>
        <pt x="391" y="824" on="1"/>
      </contour>
    </TTGlyph>
    <TTGlyph name="Ebreve" xMin="73" yMin="0" xMax="476" yMax="830">
      <contour>
        <pt x="73" y="630" on="1"/>
        <pt x="473" y="630" on="1"/>
        <pt x="473" y="534" on="1"/>
        <pt x="195" y="534" on="1"/>
        <pt x="195" y="375" on="1"/>
        <pt x="447" y="375" on="1"/>
        <pt x="447" y="280" on="1"/>
        <pt x="195" y="280" on="1"/>
        <pt x="195" y="96" on="1"/>
        <pt x="476" y="96" on="1"/>
        <pt x="476" y="0" on="1"/>
        <pt x="73" y="0" on="1"/>
      </contour>
      <contour>
        <pt x="218" y="830" on="1"/>
        <pt x="220" y="802" on="0"/>
        <pt x="246" y="770" on="0"/>
        <pt x="280" y="770" on="1"/>
        <pt x="337" y="770" on="0"/>
        <pt x="342" y="830" on="1"/>
        <pt x="414" y="830" on="1"/>
        <pt x="414" y="772" on="0"/>
        <pt x="345" y="703" on="0"/>
        <pt x="280" y="703" on="1"/>
        <pt x="244" y="703" on="0"/>
        <pt x="193" y="724" on="0"/>
        <pt x="160" y="759" on="0"/>
        <pt x="145" y="805" on="0"/>
        <pt x="145" y="830" on="1"/>
      </contour>
    </TTGlyph>
    <TTGlyph name="Ecaron" xMin="73" yMin="0" xMax="476" yMax="829">
      <contour>
        <pt x="73" y="630" on="1"/>
        <pt x="473" y="630" on="1"/>
        <pt x="473" y="534" on="1"/>
        <pt x="195" y="534" on="1"/>
        <pt x="195" y="375" on="1"/>
        <pt x="447" y="375" on="1"/>
        <pt x="447" y="280" on="1"/>
        <pt x="195" y="280" on="1"/>
        <pt x="195" y="96" on="1"/>
        <pt x="476" y="96" on="1"/>
        <pt x="476" y="0" on="1"/>
        <pt x="73" y="0" on="1"/>
      </contour>
      <contour>
        <pt x="324" y="700" on="1"/>
        <pt x="235" y="700" on="1"/>
        <pt x="117" y="829" on="1"/>
        <pt x="212" y="829" on="1"/>
        <pt x="281" y="754" on="1"/>
        <pt x="350" y="829" on="1"/>
        <pt x="443" y="829" on="1"/>
      </contour>
    </TTGlyph>
    <TTGlyph name="Ecircumflex" xMin="73" yMin="0" xMax="476" yMax="829">
      <contour>
        <pt x="73" y="630" on="1"/>
        <pt x="473" y="630" on="1"/>
        <pt x="473" y="534" on="1"/>
        <pt x="195" y="534" on="1"/>
        <pt x="195" y="375" on="1"/>
        <pt x="447" y="375" on="1"/>
        <pt x="447" y="280" on="1"/>
        <pt x="195" y="280" on="1"/>
        <pt x="195" y="96" on="1"/>
        <pt x="476" y="96" on="1"/>
        <pt x="476" y="0" on="1"/>
        <pt x="73" y="0" on="1"/>
      </contour>
      <contour>
        <pt x="221" y="829" on="1"/>
        <pt x="310" y="829" on="1"/>
        <pt x="430" y="700" on="1"/>
        <pt x="335" y="700" on="1"/>
        <pt x="265" y="774" on="1"/>
        <pt x="195" y="700" on="1"/>
        <pt x="104" y="700" on="1"/>
      </contour>
    </TTGlyph>
    <TTGlyph name="Edieresis" xMin="73" yMin="0" xMax="476" yMax="812">
      <contour>
        <pt x="73" y="630" on="1"/>
        <pt x="473" y="630" on="1"/>
        <pt x="473" y="534" on="1"/>
        <pt x="195" y="534" on="1"/>
        <pt x="195" y="375" on="1"/>
        <pt x="447" y="375" on="1"/>
        <pt x="447" y="280" on="1"/>
        <pt x="195" y="280" on="1"/>
        <pt x="195" y="96" on="1"/>
        <pt x="476" y="96" on="1"/>
        <pt x="476" y="0" on="1"/>
        <pt x="73" y="0" on="1"/>
      </contour>
      <contour>
        <pt x="121" y="754" on="1"/>
        <pt x="121" y="777" on="0"/>
        <pt x="156" y="812" on="0"/>
        <pt x="180" y="812" on="1"/>
        <pt x="205" y="812" on="0"/>
        <pt x="239" y="777" on="0"/>
        <pt x="239" y="754" on="1"/>
        <pt x="239" y="729" on="0"/>
        <pt x="205" y="694" on="0"/>
        <pt x="180" y="694" on="1"/>
        <pt x="156" y="694" on="0"/>
        <pt x="121" y="729" on="0"/>
      </contour>
      <contour>
        <pt x="307" y="754" on="1"/>
        <pt x="307" y="777" on="0"/>
        <pt x="341" y="812" on="0"/>
        <pt x="366" y="812" on="1"/>
        <pt x="390" y="812" on="0"/>
        <pt x="424" y="777" on="0"/>
        <pt x="424" y="754" on="1"/>
        <pt x="424" y="729" on="0"/>
        <pt x="390" y="694" on="0"/>
        <pt x="366" y="694" on="1"/>
        <pt x="341" y="694" on="0"/>
        <pt x="307" y="729" on="0"/>
      </contour>
    </TTGlyph>
    <TTGlyph name="Edotaccent" xMin="73" yMin="0" xMax="476" yMax="818">
      <contour>
        <pt x="73" y="630" on="1"/>
        <pt x="473" y="630" on="1"/>
        <pt x="473" y="534" on="1"/>
        <pt x="195" y="534" on="1"/>
        <pt x="195" y="375" on="1"/>
        <pt x="447" y="375" on="1"/>
        <pt x="447" y="280" on="1"/>
        <pt x="195" y="280" on="1"/>
        <pt x="195" y="96" on="1"/>
        <pt x="476" y="96" on="1"/>
        <pt x="476" y="0" on="1"/>
        <pt x="73" y="0" on="1"/>
      </contour>
      <contour>
        <pt x="221" y="757" on="1"/>
        <pt x="221" y="782" on="0"/>
        <pt x="258" y="818" on="0"/>
        <pt x="283" y="818" on="1"/>
        <pt x="309" y="818" on="0"/>
        <pt x="345" y="782" on="0"/>
        <pt x="345" y="757" on="1"/>
        <pt x="345" y="731" on="0"/>
        <pt x="309" y="694" on="0"/>
        <pt x="283" y="694" on="1"/>
        <pt x="258" y="694" on="0"/>
        <pt x="221" y="731" on="0"/>
      </contour>
    </TTGlyph>
    <TTGlyph name="Egrave" xMin="73" yMin="0" xMax="476" yMax="824">
      <contour>
        <pt x="73" y="630" on="1"/>
        <pt x="473" y="630" on="1"/>
        <pt x="473" y="534" on="1"/>
        <pt x="195" y="534" on="1"/>
        <pt x="195" y="375" on="1"/>
        <pt x="447" y="375" on="1"/>
        <pt x="447" y="280" on="1"/>
        <pt x="195" y="280" on="1"/>
        <pt x="195" y="96" on="1"/>
        <pt x="476" y="96" on="1"/>
        <pt x="476" y="0" on="1"/>
        <pt x="73" y="0" on="1"/>
      </contour>
      <contour>
        <pt x="165" y="824" on="1"/>
        <pt x="295" y="824" on="1"/>
        <pt x="375" y="700" on="1"/>
        <pt x="278" y="700" on="1"/>
      </contour>
    </TTGlyph>
    <TTGlyph name="Emacron" xMin="73" yMin="0" xMax="476" yMax="772">
      <contour>
        <pt x="73" y="630" on="1"/>
        <pt x="473" y="630" on="1"/>
        <pt x="473" y="534" on="1"/>
        <pt x="195" y="534" on="1"/>
        <pt x="195" y="375" on="1"/>
        <pt x="447" y="375" on="1"/>
        <pt x="447" y="280" on="1"/>
        <pt x="195" y="280" on="1"/>
        <pt x="195" y="96" on="1"/>
        <pt x="476" y="96" on="1"/>
        <pt x="476" y="0" on="1"/>
        <pt x="73" y="0" on="1"/>
      </contour>
      <contour>
        <pt x="396" y="772" on="1"/>
        <pt x="396" y="700" on="1"/>
        <pt x="144" y="700" on="1"/>
        <pt x="144" y="772" on="1"/>
      </contour>
    </TTGlyph>
    <TTGlyph name="Eng" xMin="73" yMin="-245" xMax="598" yMax="630">
      <contour>
        <pt x="73" y="630" on="1"/>
        <pt x="183" y="630" on="1"/>
        <pt x="423" y="266" on="1"/>
        <pt x="443" y="236" on="0"/>
        <pt x="477" y="177" on="0"/>
        <pt x="487" y="158" on="1"/>
        <pt x="489" y="158" on="1"/>
        <pt x="483" y="227" on="0"/>
        <pt x="483" y="366" on="0"/>
        <pt x="483" y="435" on="1"/>
        <pt x="483" y="630" on="1"/>
        <pt x="598" y="630" on="1"/>
        <pt x="598" y="81" on="1"/>
        <pt x="598" y="23" on="0"/>
        <pt x="582" y="-76" on="0"/>
        <pt x="541" y="-157" on="0"/>
        <pt x="472" y="-221" on="0"/>
        <pt x="419" y="-245" on="1"/>
        <pt x="367" y="-162" on="1"/>
        <pt x="413" y="-137" on="0"/>
        <pt x="472" y="-63" on="0"/>
        <pt x="481" y="0" on="1"/>
        <pt x="259" y="335" on="1"/>
        <pt x="236" y="369" on="0"/>
        <pt x="195" y="443" on="0"/>
        <pt x="184" y="466" on="1"/>
        <pt x="182" y="466" on="1"/>
        <pt x="187" y="392" on="0"/>
        <pt x="188" y="253" on="0"/>
        <pt x="188" y="181" on="1"/>
        <pt x="188" y="0" on="1"/>
        <pt x="73" y="0" on="1"/>
      </contour>
    </TTGlyph>
    <TTGlyph name="Eogonek" xMin="73" yMin="-206" xMax="514" yMax="630">
      <contour>
        <pt x="73" y="630" on="1"/>
        <pt x="473" y="630" on="1"/>
        <pt x="473" y="534" on="1"/>
        <pt x="195" y="534" on="1"/>
        <pt x="195" y="375" on="1"/>
        <pt x="447" y="375" on="1"/>
        <pt x="447" y="280" on="1"/>
        <pt x="195" y="280" on="1"/>
        <pt x="195" y="96" on="1"/>
        <pt x="476" y="96" on="1"/>
        <pt x="476" y="0" on="1"/>
        <pt x="444" y="-19" on="0"/>
        <pt x="405" y="-59" on="0"/>
        <pt x="405" y="-85" on="1"/>
        <pt x="405" y="-107" on="0"/>
        <pt x="431" y="-131" on="0"/>
        <pt x="453" y="-131" on="1"/>
        <pt x="478" y="-131" on="0"/>
        <pt x="497" y="-123" on="1"/>
        <pt x="514" y="-185" on="1"/>
        <pt x="497" y="-195" on="0"/>
        <pt x="454" y="-206" on="0"/>
        <pt x="430" y="-206" on="1"/>
        <pt x="384" y="-206" on="0"/>
        <pt x="323" y="-154" on="0"/>
        <pt x="323" y="-107" on="1"/>
        <pt x="323" y="-70" on="0"/>
        <pt x="361" y="-18" on="0"/>
        <pt x="385" y="-3" on="1"/>
        <pt x="385" y="0" on="1"/>
        <pt x="73" y="0" on="1"/>
      </contour>
    </TTGlyph>
    <TTGlyph name="Esmall" xMin="69" yMin="0" xMax="403" yMax="475">
      <contour>
        <pt x="69" y="475" on="1"/>
        <pt x="401" y="475" on="1"/>
        <pt x="401" y="387" on="1"/>
        <pt x="185" y="387" on="1"/>
        <pt x="185" y="286" on="1"/>
        <pt x="379" y="286" on="1"/>
        <pt x="379" y="199" on="1"/>
        <pt x="185" y="199" on="1"/>
        <pt x="185" y="88" on="1"/>
        <pt x="403" y="88" on="1"/>
        <pt x="403" y="0" on="1"/>
        <pt x="69" y="0" on="1"/>
      </contour>
    </TTGlyph>
    <TTGlyph name="Eth" xMin="25" yMin="0" xMax="644" yMax="630">
      <contour>
        <pt x="323" y="630" on="1"/>
        <pt x="394" y="630" on="0"/>
        <pt x="512" y="592" on="0"/>
        <pt x="597" y="516" on="0"/>
        <pt x="644" y="403" on="0"/>
        <pt x="644" y="328" on="1"/>
        <pt x="644" y="241" on="0"/>
        <pt x="588" y="116" on="0"/>
        <pt x="492" y="37" on="0"/>
        <pt x="365" y="0" on="0"/>
        <pt x="293" y="0" on="1"/>
        <pt x="108" y="0" on="1"/>
        <pt x="108" y="283" on="1"/>
        <pt x="25" y="283" on="1"/>
        <pt x="25" y="365" on="1"/>
        <pt x="108" y="365" on="1"/>
        <pt x="108" y="630" on="1"/>
      </contour>
      <contour>
        <pt x="350" y="365" on="1"/>
        <pt x="350" y="283" on="1"/>
        <pt x="230" y="283" on="1"/>
        <pt x="230" y="96" on="1"/>
        <pt x="284" y="96" on="1"/>
        <pt x="328" y="96" on="0"/>
        <pt x="411" y="117" on="0"/>
        <pt x="475" y="169" on="0"/>
        <pt x="514" y="259" on="0"/>
        <pt x="514" y="328" on="1"/>
        <pt x="514" y="428" on="0"/>
        <pt x="401" y="534" on="0"/>
        <pt x="305" y="534" on="1"/>
        <pt x="230" y="534" on="1"/>
        <pt x="230" y="365" on="1"/>
      </contour>
    </TTGlyph>
    <TTGlyph name="Euro" xMin="5" yMin="-10" xMax="532" yMax="640">
      <contour>
        <pt x="372" y="86" on="1"/>
        <pt x="415" y="86" on="0"/>
        <pt x="478" y="102" on="0"/>
        <pt x="504" y="116" on="1"/>
        <pt x="530" y="24" on="1"/>
        <pt x="502" y="10" on="0"/>
        <pt x="421" y="-10" on="0"/>
        <pt x="359" y="-10" on="1"/>
        <pt x="306" y="-10" on="0"/>
        <pt x="213" y="19" on="0"/>
        <pt x="139" y="75" on="0"/>
        <pt x="88" y="159" on="0"/>
        <pt x="76" y="215" on="1"/>
        <pt x="5" y="215" on="1"/>
        <pt x="5" y="276" on="1"/>
        <pt x="67" y="276" on="1"/>
        <pt x="66" y="290" on="0"/>
        <pt x="66" y="307" on="0"/>
        <pt x="66" y="316" on="1"/>
        <pt x="66" y="331" on="1"/>
        <pt x="5" y="331" on="1"/>
        <pt x="5" y="392" on="1"/>
        <pt x="74" y="392" on="1"/>
        <pt x="94" y="510" on="0"/>
        <pt x="242" y="640" on="0"/>
        <pt x="362" y="640" on="1"/>
        <pt x="426" y="640" on="0"/>
        <pt x="503" y="618" on="0"/>
        <pt x="532" y="603" on="1"/>
        <pt x="504" y="511" on="1"/>
        <pt x="474" y="526" on="0"/>
        <pt x="413" y="544" on="0"/>
        <pt x="376" y="544" on="1"/>
        <pt x="345" y="544" on="0"/>
        <pt x="288" y="526" on="0"/>
        <pt x="241" y="489" on="0"/>
        <pt x="208" y="432" on="0"/>
        <pt x="202" y="392" on="1"/>
        <pt x="453" y="392" on="1"/>
        <pt x="453" y="331" on="1"/>
        <pt x="194" y="331" on="1"/>
        <pt x="194" y="319" on="1"/>
        <pt x="194" y="309" on="0"/>
        <pt x="194" y="291" on="0"/>
        <pt x="195" y="276" on="1"/>
        <pt x="453" y="276" on="1"/>
        <pt x="453" y="215" on="1"/>
        <pt x="207" y="215" on="1"/>
        <pt x="224" y="145" on="0"/>
        <pt x="315" y="86" on="0"/>
      </contour>
    </TTGlyph>
    <TTGlyph name="F" xMin="73" yMin="0" xMax="463" yMax="630">
      <contour>
        <pt x="463" y="630" on="1"/>
        <pt x="463" y="534" on="1"/>
        <pt x="195" y="534" on="1"/>
        <pt x="195" y="355" on="1"/>
        <pt x="441" y="355" on="1"/>
        <pt x="441" y="260" on="1"/>
        <pt x="195" y="260" on="1"/>
        <pt x="195" y="0" on="1"/>
        <pt x="73" y="0" on="1"/>
        <pt x="73" y="630" on="1"/>
      </contour>
    </TTGlyph>
    <TTGlyph name="Fsmall" xMin="69" yMin="0" xMax="392" yMax="475">
      <contour>
        <pt x="392" y="475" on="1"/>
        <pt x="392" y="387" on="1"/>
        <pt x="187" y="387" on="1"/>
        <pt x="187" y="270" on="1"/>
        <pt x="374" y="270" on="1"/>
        <pt x="374" y="182" on="1"/>
        <pt x="187" y="182" on="1"/>
        <pt x="187" y="0" on="1"/>
        <pt x="69" y="0" on="1"/>
        <pt x="69" y="475" on="1"/>
      </contour>
    </TTGlyph>
    <TTGlyph name="G" xMin="41" yMin="-10" xMax="574" yMax="640">
      <contour>
        <pt x="366" y="640" on="1"/>
        <pt x="423" y="640" on="0"/>
        <pt x="514" y="622" on="0"/>
        <pt x="551" y="604" on="1"/>
        <pt x="525" y="518" on="1"/>
        <pt x="490" y="535" on="0"/>
        <pt x="416" y="550" on="0"/>
        <pt x="378" y="550" on="1"/>
        <pt x="336" y="550" on="0"/>
        <pt x="261" y="524" on="0"/>
        <pt x="204" y="467" on="0"/>
        <pt x="171" y="378" on="0"/>
        <pt x="171" y="314" on="1"/>
        <pt x="171" y="201" on="0"/>
        <pt x="272" y="81" on="0"/>
        <pt x="366" y="81" on="1"/>
        <pt x="425" y="81" on="0"/>
        <pt x="458" y="94" on="1"/>
        <pt x="458" y="250" on="1"/>
        <pt x="349" y="250" on="1"/>
        <pt x="349" y="342" on="1"/>
        <pt x="574" y="342" on="1"/>
        <pt x="574" y="28" on="1"/>
        <pt x="534" y="11" on="0"/>
        <pt x="432" y="-10" on="0"/>
        <pt x="366" y="-10" on="1"/>
        <pt x="298" y="-10" on="0"/>
        <pt x="179" y="32" on="0"/>
        <pt x="91" y="114" on="0"/>
        <pt x="41" y="235" on="0"/>
        <pt x="41" y="314" on="1"/>
        <pt x="41" y="393" on="0"/>
        <pt x="91" y="515" on="0"/>
        <pt x="178" y="598" on="0"/>
        <pt x="297" y="640" on="0"/>
      </contour>
    </TTGlyph>
    <TTGlyph name="Gbreve" xMin="41" yMin="-10" xMax="574" yMax="830">
      <contour>
        <pt x="366" y="640" on="1"/>
        <pt x="423" y="640" on="0"/>
        <pt x="514" y="622" on="0"/>
        <pt x="551" y="604" on="1"/>
        <pt x="525" y="518" on="1"/>
        <pt x="490" y="535" on="0"/>
        <pt x="416" y="550" on="0"/>
        <pt x="378" y="550" on="1"/>
        <pt x="336" y="550" on="0"/>
        <pt x="261" y="524" on="0"/>
        <pt x="204" y="467" on="0"/>
        <pt x="171" y="378" on="0"/>
        <pt x="171" y="314" on="1"/>
        <pt x="171" y="201" on="0"/>
        <pt x="272" y="81" on="0"/>
        <pt x="366" y="81" on="1"/>
        <pt x="425" y="81" on="0"/>
        <pt x="458" y="94" on="1"/>
        <pt x="458" y="250" on="1"/>
        <pt x="349" y="250" on="1"/>
        <pt x="349" y="342" on="1"/>
        <pt x="574" y="342" on="1"/>
        <pt x="574" y="28" on="1"/>
        <pt x="534" y="11" on="0"/>
        <pt x="432" y="-10" on="0"/>
        <pt x="366" y="-10" on="1"/>
        <pt x="298" y="-10" on="0"/>
        <pt x="179" y="32" on="0"/>
        <pt x="91" y="114" on="0"/>
        <pt x="41" y="235" on="0"/>
        <pt x="41" y="314" on="1"/>
        <pt x="41" y="393" on="0"/>
        <pt x="91" y="515" on="0"/>
        <pt x="178" y="598" on="0"/>
        <pt x="297" y="640" on="0"/>
      </contour>
      <contour>
        <pt x="305" y="830" on="1"/>
        <pt x="307" y="802" on="0"/>
        <pt x="334" y="770" on="0"/>
        <pt x="368" y="770" on="1"/>
        <pt x="424" y="770" on="0"/>
        <pt x="429" y="830" on="1"/>
        <pt x="501" y="830" on="1"/>
        <pt x="501" y="772" on="0"/>
        <pt x="432" y="703" on="0"/>
        <pt x="367" y="703" on="1"/>
        <pt x="331" y="703" on="0"/>
        <pt x="280" y="724" on="0"/>
        <pt x="247" y="759" on="0"/>
        <pt x="232" y="805" on="0"/>
        <pt x="232" y="830" on="1"/>
      </contour>
    </TTGlyph>
    <TTGlyph name="Gcircumflex" xMin="41" yMin="-10" xMax="574" yMax="829">
      <contour>
        <pt x="366" y="640" on="1"/>
        <pt x="423" y="640" on="0"/>
        <pt x="514" y="622" on="0"/>
        <pt x="551" y="604" on="1"/>
        <pt x="525" y="518" on="1"/>
        <pt x="490" y="535" on="0"/>
        <pt x="416" y="550" on="0"/>
        <pt x="378" y="550" on="1"/>
        <pt x="336" y="550" on="0"/>
        <pt x="261" y="524" on="0"/>
        <pt x="204" y="467" on="0"/>
        <pt x="171" y="378" on="0"/>
        <pt x="171" y="314" on="1"/>
        <pt x="171" y="201" on="0"/>
        <pt x="272" y="81" on="0"/>
        <pt x="366" y="81" on="1"/>
        <pt x="425" y="81" on="0"/>
        <pt x="458" y="94" on="1"/>
        <pt x="458" y="250" on="1"/>
        <pt x="349" y="250" on="1"/>
        <pt x="349" y="342" on="1"/>
        <pt x="574" y="342" on="1"/>
        <pt x="574" y="28" on="1"/>
        <pt x="534" y="11" on="0"/>
        <pt x="432" y="-10" on="0"/>
        <pt x="366" y="-10" on="1"/>
        <pt x="298" y="-10" on="0"/>
        <pt x="179" y="32" on="0"/>
        <pt x="91" y="114" on="0"/>
        <pt x="41" y="235" on="0"/>
        <pt x="41" y="314" on="1"/>
        <pt x="41" y="393" on="0"/>
        <pt x="91" y="515" on="0"/>
        <pt x="178" y="598" on="0"/>
        <pt x="297" y="640" on="0"/>
      </contour>
      <contour>
        <pt x="299" y="829" on="1"/>
        <pt x="388" y="829" on="1"/>
        <pt x="508" y="700" on="1"/>
        <pt x="413" y="700" on="1"/>
        <pt x="343" y="774" on="1"/>
        <pt x="273" y="700" on="1"/>
        <pt x="182" y="700" on="1"/>
      </contour>
    </TTGlyph>
    <TTGlyph name="Gcommaaccent" xMin="41" yMin="-329" xMax="574" yMax="640">
      <contour>
        <pt x="366" y="640" on="1"/>
        <pt x="423" y="640" on="0"/>
        <pt x="514" y="622" on="0"/>
        <pt x="551" y="604" on="1"/>
        <pt x="525" y="518" on="1"/>
        <pt x="490" y="535" on="0"/>
        <pt x="416" y="550" on="0"/>
        <pt x="378" y="550" on="1"/>
        <pt x="336" y="550" on="0"/>
        <pt x="261" y="524" on="0"/>
        <pt x="204" y="467" on="0"/>
        <pt x="171" y="378" on="0"/>
        <pt x="171" y="314" on="1"/>
        <pt x="171" y="201" on="0"/>
        <pt x="272" y="81" on="0"/>
        <pt x="366" y="81" on="1"/>
        <pt x="425" y="81" on="0"/>
        <pt x="458" y="94" on="1"/>
        <pt x="458" y="250" on="1"/>
        <pt x="349" y="250" on="1"/>
        <pt x="349" y="342" on="1"/>
        <pt x="574" y="342" on="1"/>
        <pt x="574" y="28" on="1"/>
        <pt x="534" y="11" on="0"/>
        <pt x="432" y="-10" on="0"/>
        <pt x="366" y="-10" on="1"/>
        <pt x="298" y="-10" on="0"/>
        <pt x="179" y="32" on="0"/>
        <pt x="91" y="114" on="0"/>
        <pt x="41" y="235" on="0"/>
        <pt x="41" y="314" on="1"/>
        <pt x="41" y="393" on="0"/>
        <pt x="91" y="515" on="0"/>
        <pt x="178" y="598" on="0"/>
        <pt x="297" y="640" on="0"/>
      </contour>
      <contour>
        <pt x="353" y="-193" on="1"/>
        <pt x="331" y="-188" on="0"/>
        <pt x="297" y="-156" on="0"/>
        <pt x="297" y="-129" on="1"/>
        <pt x="297" y="-103" on="0"/>
        <pt x="331" y="-65" on="0"/>
        <pt x="362" y="-65" on="1"/>
        <pt x="374" y="-65" on="0"/>
        <pt x="401" y="-75" on="0"/>
        <pt x="424" y="-98" on="0"/>
        <pt x="438" y="-134" on="0"/>
        <pt x="438" y="-160" on="1"/>
        <pt x="438" y="-186" on="0"/>
        <pt x="420" y="-236" on="0"/>
        <pt x="389" y="-281" on="0"/>
        <pt x="348" y="-317" on="0"/>
        <pt x="326" y="-329" on="1"/>
        <pt x="297" y="-289" on="1"/>
        <pt x="324" y="-274" on="0"/>
        <pt x="366" y="-223" on="0"/>
        <pt x="370" y="-196" on="1"/>
      </contour>
    </TTGlyph>
    <TTGlyph name="Gdotaccent" xMin="41" yMin="-10" xMax="574" yMax="818">
      <contour>
        <pt x="366" y="640" on="1"/>
        <pt x="423" y="640" on="0"/>
        <pt x="514" y="622" on="0"/>
        <pt x="551" y="604" on="1"/>
        <pt x="525" y="518" on="1"/>
        <pt x="490" y="535" on="0"/>
        <pt x="416" y="550" on="0"/>
        <pt x="378" y="550" on="1"/>
        <pt x="336" y="550" on="0"/>
        <pt x="261" y="524" on="0"/>
        <pt x="204" y="467" on="0"/>
        <pt x="171" y="378" on="0"/>
        <pt x="171" y="314" on="1"/>
        <pt x="171" y="201" on="0"/>
        <pt x="272" y="81" on="0"/>
        <pt x="366" y="81" on="1"/>
        <pt x="425" y="81" on="0"/>
        <pt x="458" y="94" on="1"/>
        <pt x="458" y="250" on="1"/>
        <pt x="349" y="250" on="1"/>
        <pt x="349" y="342" on="1"/>
        <pt x="574" y="342" on="1"/>
        <pt x="574" y="28" on="1"/>
        <pt x="534" y="11" on="0"/>
        <pt x="432" y="-10" on="0"/>
        <pt x="366" y="-10" on="1"/>
        <pt x="298" y="-10" on="0"/>
        <pt x="179" y="32" on="0"/>
        <pt x="91" y="114" on="0"/>
        <pt x="41" y="235" on="0"/>
        <pt x="41" y="314" on="1"/>
        <pt x="41" y="393" on="0"/>
        <pt x="91" y="515" on="0"/>
        <pt x="178" y="598" on="0"/>
        <pt x="297" y="640" on="0"/>
      </contour>
      <contour>
        <pt x="304" y="757" on="1"/>
        <pt x="304" y="782" on="0"/>
        <pt x="340" y="818" on="0"/>
        <pt x="366" y="818" on="1"/>
        <pt x="392" y="818" on="0"/>
        <pt x="427" y="782" on="0"/>
        <pt x="427" y="757" on="1"/>
        <pt x="427" y="731" on="0"/>
        <pt x="392" y="694" on="0"/>
        <pt x="366" y="694" on="1"/>
        <pt x="340" y="694" on="0"/>
        <pt x="304" y="731" on="0"/>
      </contour>
    </TTGlyph>
    <TTGlyph name="Grave" xMin="18" yMin="700" xMax="229" yMax="824">
      <contour>
        <pt x="18" y="824" on="1"/>
        <pt x="149" y="824" on="1"/>
        <pt x="229" y="700" on="1"/>
        <pt x="132" y="700" on="1"/>
      </contour>
    </TTGlyph>
    <TTGlyph name="Gsmall" xMin="42" yMin="-10" xMax="462" yMax="484">
      <contour>
        <pt x="304" y="78" on="1"/>
        <pt x="318" y="78" on="0"/>
        <pt x="348" y="81" on="0"/>
        <pt x="359" y="86" on="1"/>
        <pt x="359" y="177" on="1"/>
        <pt x="277" y="177" on="1"/>
        <pt x="277" y="262" on="1"/>
        <pt x="462" y="262" on="1"/>
        <pt x="462" y="18" on="1"/>
        <pt x="429" y="4" on="0"/>
        <pt x="342" y="-10" on="0"/>
        <pt x="297" y="-10" on="1"/>
        <pt x="243" y="-10" on="0"/>
        <pt x="150" y="21" on="0"/>
        <pt x="81" y="82" on="0"/>
        <pt x="42" y="173" on="0"/>
        <pt x="42" y="234" on="1"/>
        <pt x="42" y="291" on="0"/>
        <pt x="79" y="384" on="0"/>
        <pt x="146" y="449" on="0"/>
        <pt x="240" y="484" on="0"/>
        <pt x="297" y="484" on="1"/>
        <pt x="334" y="484" on="0"/>
        <pt x="410" y="472" on="0"/>
        <pt x="448" y="455" on="1"/>
        <pt x="424" y="371" on="1"/>
        <pt x="399" y="385" on="0"/>
        <pt x="340" y="397" on="0"/>
        <pt x="311" y="397" on="1"/>
        <pt x="240" y="397" on="0"/>
        <pt x="162" y="312" on="0"/>
        <pt x="162" y="237" on="1"/>
        <pt x="162" y="192" on="0"/>
        <pt x="186" y="131" on="0"/>
        <pt x="225" y="94" on="0"/>
        <pt x="277" y="78" on="0"/>
      </contour>
    </TTGlyph>
    <TTGlyph name="H" xMin="73" yMin="0" xMax="576" yMax="630">
      <contour>
        <pt x="73" y="0" on="1"/>
        <pt x="73" y="630" on="1"/>
        <pt x="195" y="630" on="1"/>
        <pt x="195" y="375" on="1"/>
        <pt x="454" y="375" on="1"/>
        <pt x="454" y="630" on="1"/>
        <pt x="576" y="630" on="1"/>
        <pt x="576" y="0" on="1"/>
        <pt x="454" y="0" on="1"/>
        <pt x="454" y="277" on="1"/>
        <pt x="195" y="277" on="1"/>
        <pt x="195" y="0" on="1"/>
      </contour>
    </TTGlyph>
    <TTGlyph name="Hbar" xMin="20" yMin="0" xMax="643" yMax="630">
      <contour>
        <pt x="80" y="0" on="1"/>
        <pt x="80" y="478" on="1"/>
        <pt x="20" y="478" on="1"/>
        <pt x="20" y="555" on="1"/>
        <pt x="80" y="555" on="1"/>
        <pt x="80" y="630" on="1"/>
        <pt x="202" y="630" on="1"/>
        <pt x="202" y="555" on="1"/>
        <pt x="461" y="555" on="1"/>
        <pt x="461" y="630" on="1"/>
        <pt x="583" y="630" on="1"/>
        <pt x="583" y="555" on="1"/>
        <pt x="643" y="555" on="1"/>
        <pt x="643" y="478" on="1"/>
        <pt x="583" y="478" on="1"/>
        <pt x="583" y="0" on="1"/>
        <pt x="461" y="0" on="1"/>
        <pt x="461" y="277" on="1"/>
        <pt x="202" y="277" on="1"/>
        <pt x="202" y="0" on="1"/>
      </contour>
      <contour>
        <pt x="461" y="375" on="1"/>
        <pt x="461" y="478" on="1"/>
        <pt x="202" y="478" on="1"/>
        <pt x="202" y="375" on="1"/>
      </contour>
    </TTGlyph>
    <TTGlyph name="Hcircumflex" xMin="73" yMin="0" xMax="576" yMax="829">
      <contour>
        <pt x="73" y="0" on="1"/>
        <pt x="73" y="630" on="1"/>
        <pt x="195" y="630" on="1"/>
        <pt x="195" y="375" on="1"/>
        <pt x="454" y="375" on="1"/>
        <pt x="454" y="630" on="1"/>
        <pt x="576" y="630" on="1"/>
        <pt x="576" y="0" on="1"/>
        <pt x="454" y="0" on="1"/>
        <pt x="454" y="277" on="1"/>
        <pt x="195" y="277" on="1"/>
        <pt x="195" y="0" on="1"/>
      </contour>
      <contour>
        <pt x="283" y="829" on="1"/>
        <pt x="372" y="829" on="1"/>
        <pt x="492" y="700" on="1"/>
        <pt x="397" y="700" on="1"/>
        <pt x="327" y="774" on="1"/>
        <pt x="257" y="700" on="1"/>
        <pt x="166" y="700" on="1"/>
      </contour>
    </TTGlyph>
    <TTGlyph name="Hsmall" xMin="69" yMin="0" xMax="490" yMax="475">
      <contour>
        <pt x="69" y="0" on="1"/>
        <pt x="69" y="475" on="1"/>
        <pt x="184" y="475" on="1"/>
        <pt x="184" y="293" on="1"/>
        <pt x="374" y="293" on="1"/>
        <pt x="374" y="475" on="1"/>
        <pt x="490" y="475" on="1"/>
        <pt x="490" y="0" on="1"/>
        <pt x="374" y="0" on="1"/>
        <pt x="374" y="203" on="1"/>
        <pt x="184" y="203" on="1"/>
        <pt x="184" y="0" on="1"/>
      </contour>
    </TTGlyph>
    <TTGlyph name="Hungarumlaut" xMin="25" yMin="700" xMax="427" yMax="824">
      <contour>
        <pt x="117" y="700" on="1"/>
        <pt x="25" y="700" on="1"/>
        <pt x="105" y="824" on="1"/>
        <pt x="226" y="824" on="1"/>
      </contour>
      <contour>
        <pt x="319" y="700" on="1"/>
        <pt x="227" y="700" on="1"/>
        <pt x="307" y="824" on="1"/>
        <pt x="427" y="824" on="1"/>
      </contour>
    </TTGlyph>
    <TTGlyph name="I" xMin="73" yMin="0" xMax="195" yMax="630">
      <contour>
        <pt x="195" y="630" on="1"/>
        <pt x="195" y="0" on="1"/>
        <pt x="73" y="0" on="1"/>
        <pt x="73" y="630" on="1"/>
      </contour>
    </TTGlyph>
    <TTGlyph name="IJ" xMin="73" yMin="-165" xMax="458" yMax="630">
      <contour>
        <pt x="195" y="630" on="1"/>
        <pt x="195" y="0" on="1"/>
        <pt x="73" y="0" on="1"/>
        <pt x="73" y="630" on="1"/>
      </contour>
      <contour>
        <pt x="458" y="630" on="1"/>
        <pt x="458" y="115" on="1"/>
        <pt x="458" y="39" on="0"/>
        <pt x="439" y="-56" on="0"/>
        <pt x="410" y="-93" on="1"/>
        <pt x="378" y="-133" on="0"/>
        <pt x="279" y="-165" on="0"/>
        <pt x="226" y="-165" on="1"/>
        <pt x="226" y="-70" on="1"/>
        <pt x="254" y="-70" on="0"/>
        <pt x="293" y="-53" on="0"/>
        <pt x="307" y="-39" on="1"/>
        <pt x="325" y="-22" on="0"/>
        <pt x="336" y="32" on="0"/>
        <pt x="336" y="64" on="1"/>
        <pt x="336" y="630" on="1"/>
      </contour>
    </TTGlyph>
    <TTGlyph name="I_01" xMin="-10" yMin="0" xMax="526" yMax="854">
      <contour>
        <pt x="75" y="552" on="1"/>
        <pt x="-10" y="552" on="1"/>
        <pt x="-10" y="636" on="1"/>
        <pt x="57" y="636" on="1"/>
        <pt x="46" y="647" on="0"/>
        <pt x="33" y="690" on="0"/>
        <pt x="33" y="714" on="1"/>
        <pt x="33" y="779" on="0"/>
        <pt x="127" y="854" on="0"/>
        <pt x="204" y="854" on="1"/>
        <pt x="261" y="854" on="0"/>
        <pt x="357" y="816" on="0"/>
        <pt x="436" y="752" on="0"/>
        <pt x="497" y="670" on="0"/>
        <pt x="520" y="626" on="1"/>
        <pt x="526" y="613" on="1"/>
        <pt x="447" y="581" on="1"/>
        <pt x="437" y="598" on="1"/>
        <pt x="416" y="632" on="0"/>
        <pt x="368" y="693" on="0"/>
        <pt x="315" y="739" on="0"/>
        <pt x="256" y="765" on="0"/>
        <pt x="224" y="765" on="1"/>
        <pt x="182" y="765" on="0"/>
        <pt x="141" y="724" on="0"/>
        <pt x="141" y="693" on="1"/>
        <pt x="141" y="673" on="0"/>
        <pt x="151" y="645" on="0"/>
        <pt x="157" y="636" on="1"/>
        <pt x="268" y="636" on="1"/>
        <pt x="268" y="552" on="1"/>
        <pt x="183" y="552" on="1"/>
        <pt x="183" y="0" on="1"/>
        <pt x="75" y="0" on="1"/>
      </contour>
    </TTGlyph>
    <TTGlyph name="I_02" xMin="-10" yMin="0" xMax="657" yMax="859">
      <contour>
        <pt x="75" y="552" on="1"/>
        <pt x="-10" y="552" on="1"/>
        <pt x="-10" y="636" on="1"/>
        <pt x="62" y="636" on="1"/>
        <pt x="57" y="644" on="0"/>
        <pt x="47" y="677" on="0"/>
        <pt x="47" y="700" on="1"/>
        <pt x="47" y="733" on="0"/>
        <pt x="76" y="791" on="0"/>
        <pt x="132" y="834" on="0"/>
        <pt x="214" y="859" on="0"/>
        <pt x="268" y="859" on="1"/>
        <pt x="341" y="859" on="0"/>
        <pt x="459" y="814" on="0"/>
        <pt x="553" y="747" on="0"/>
        <pt x="623" y="666" on="0"/>
        <pt x="649" y="630" on="1"/>
        <pt x="657" y="617" on="1"/>
        <pt x="580" y="575" on="1"/>
        <pt x="569" y="592" on="1"/>
        <pt x="545" y="623" on="0"/>
        <pt x="485" y="687" on="0"/>
        <pt x="413" y="739" on="0"/>
        <pt x="327" y="771" on="0"/>
        <pt x="277" y="771" on="1"/>
        <pt x="215" y="771" on="0"/>
        <pt x="158" y="717" on="0"/>
        <pt x="158" y="679" on="1"/>
        <pt x="158" y="651" on="0"/>
        <pt x="165" y="636" on="1"/>
        <pt x="268" y="636" on="1"/>
        <pt x="268" y="552" on="1"/>
        <pt x="183" y="552" on="1"/>
        <pt x="183" y="0" on="1"/>
        <pt x="75" y="0" on="1"/>
      </contour>
    </TTGlyph>
    <TTGlyph name="I_03" xMin="-10" yMin="0" xMax="720" yMax="859">
      <contour>
        <pt x="75" y="552" on="1"/>
        <pt x="-10" y="552" on="1"/>
        <pt x="-10" y="636" on="1"/>
        <pt x="62" y="636" on="1"/>
        <pt x="57" y="646" on="0"/>
        <pt x="48" y="678" on="0"/>
        <pt x="48" y="694" on="1"/>
        <pt x="48" y="732" on="0"/>
        <pt x="82" y="793" on="0"/>
        <pt x="145" y="836" on="0"/>
        <pt x="231" y="859" on="0"/>
        <pt x="284" y="859" on="1"/>
        <pt x="365" y="859" on="0"/>
        <pt x="499" y="814" on="0"/>
        <pt x="606" y="745" on="0"/>
        <pt x="686" y="664" on="0"/>
        <pt x="713" y="628" on="1"/>
        <pt x="720" y="617" on="1"/>
        <pt x="646" y="570" on="1"/>
        <pt x="634" y="585" on="1"/>
        <pt x="603" y="622" on="0"/>
        <pt x="531" y="690" on="0"/>
        <pt x="447" y="741" on="0"/>
        <pt x="351" y="771" on="0"/>
        <pt x="297" y="771" on="1"/>
        <pt x="228" y="771" on="0"/>
        <pt x="159" y="717" on="0"/>
        <pt x="159" y="670" on="1"/>
        <pt x="159" y="649" on="0"/>
        <pt x="165" y="636" on="1"/>
        <pt x="268" y="636" on="1"/>
        <pt x="268" y="552" on="1"/>
        <pt x="183" y="552" on="1"/>
        <pt x="183" y="0" on="1"/>
        <pt x="75" y="0" on="1"/>
      </contour>
    </TTGlyph>
    <TTGlyph name="I_04" xMin="-10" yMin="0" xMax="760" yMax="862">
      <contour>
        <pt x="75" y="552" on="1"/>
        <pt x="-10" y="552" on="1"/>
        <pt x="-10" y="636" on="1"/>
        <pt x="68" y="636" on="1"/>
        <pt x="62" y="646" on="0"/>
        <pt x="53" y="676" on="0"/>
        <pt x="53" y="696" on="1"/>
        <pt x="53" y="734" on="0"/>
        <pt x="91" y="796" on="0"/>
        <pt x="159" y="839" on="0"/>
        <pt x="253" y="862" on="0"/>
        <pt x="308" y="862" on="1"/>
        <pt x="390" y="862" on="0"/>
        <pt x="527" y="821" on="0"/>
        <pt x="639" y="755" on="0"/>
        <pt x="724" y="672" on="0"/>
        <pt x="753" y="630" on="1"/>
        <pt x="760" y="619" on="1"/>
        <pt x="687" y="574" on="1"/>
        <pt x="672" y="592" on="1"/>
        <pt x="644" y="625" on="0"/>
        <pt x="572" y="690" on="0"/>
        <pt x="483" y="741" on="0"/>
        <pt x="378" y="773" on="0"/>
        <pt x="317" y="773" on="1"/>
        <pt x="242" y="773" on="0"/>
        <pt x="164" y="717" on="0"/>
        <pt x="164" y="673" on="1"/>
        <pt x="164" y="661" on="0"/>
        <pt x="166" y="645" on="0"/>
        <pt x="170" y="636" on="1"/>
        <pt x="268" y="636" on="1"/>
        <pt x="268" y="552" on="1"/>
        <pt x="183" y="552" on="1"/>
        <pt x="183" y="0" on="1"/>
        <pt x="75" y="0" on="1"/>
      </contour>
    </TTGlyph>
    <TTGlyph name="I_05" xMin="-10" yMin="0" xMax="790" yMax="862">
      <contour>
        <pt x="75" y="552" on="1"/>
        <pt x="-10" y="552" on="1"/>
        <pt x="-10" y="636" on="1"/>
        <pt x="68" y="636" on="1"/>
        <pt x="62" y="646" on="0"/>
        <pt x="53" y="678" on="0"/>
        <pt x="53" y="698" on="1"/>
        <pt x="53" y="735" on="0"/>
        <pt x="92" y="795" on="0"/>
        <pt x="163" y="838" on="0"/>
        <pt x="260" y="862" on="0"/>
        <pt x="318" y="862" on="1"/>
        <pt x="403" y="862" on="0"/>
        <pt x="546" y="820" on="0"/>
        <pt x="661" y="753" on="0"/>
        <pt x="750" y="671" on="0"/>
        <pt x="781" y="632" on="1"/>
        <pt x="790" y="620" on="1"/>
        <pt x="722" y="568" on="1"/>
        <pt x="708" y="584" on="1"/>
        <pt x="678" y="618" on="0"/>
        <pt x="601" y="685" on="0"/>
        <pt x="505" y="739" on="0"/>
        <pt x="392" y="773" on="0"/>
        <pt x="327" y="773" on="1"/>
        <pt x="247" y="773" on="0"/>
        <pt x="164" y="716" on="0"/>
        <pt x="164" y="674" on="1"/>
        <pt x="164" y="663" on="0"/>
        <pt x="166" y="644" on="0"/>
        <pt x="170" y="636" on="1"/>
        <pt x="268" y="636" on="1"/>
        <pt x="268" y="552" on="1"/>
        <pt x="183" y="552" on="1"/>
        <pt x="183" y="0" on="1"/>
        <pt x="75" y="0" on="1"/>
      </contour>
    </TTGlyph>
    <TTGlyph name="I_06" xMin="-10" yMin="0" xMax="828" yMax="862">
      <contour>
        <pt x="75" y="552" on="1"/>
        <pt x="-10" y="552" on="1"/>
        <pt x="-10" y="636" on="1"/>
        <pt x="68" y="636" on="1"/>
        <pt x="63" y="646" on="0"/>
        <pt x="53" y="678" on="0"/>
        <pt x="53" y="698" on="1"/>
        <pt x="53" y="735" on="0"/>
        <pt x="92" y="795" on="0"/>
        <pt x="163" y="838" on="0"/>
        <pt x="260" y="862" on="0"/>
        <pt x="318" y="862" on="1"/>
        <pt x="414" y="862" on="0"/>
        <pt x="571" y="822" on="0"/>
        <pt x="695" y="756" on="0"/>
        <pt x="787" y="672" on="0"/>
        <pt x="819" y="629" on="1"/>
        <pt x="828" y="618" on="1"/>
        <pt x="760" y="569" on="1"/>
        <pt x="747" y="585" on="1"/>
        <pt x="717" y="621" on="0"/>
        <pt x="633" y="689" on="0"/>
        <pt x="526" y="742" on="0"/>
        <pt x="399" y="773" on="0"/>
        <pt x="327" y="773" on="1"/>
        <pt x="247" y="773" on="0"/>
        <pt x="164" y="716" on="0"/>
        <pt x="164" y="674" on="1"/>
        <pt x="164" y="663" on="0"/>
        <pt x="166" y="645" on="0"/>
        <pt x="170" y="636" on="1"/>
        <pt x="268" y="636" on="1"/>
        <pt x="268" y="552" on="1"/>
        <pt x="183" y="552" on="1"/>
        <pt x="183" y="0" on="1"/>
        <pt x="75" y="0" on="1"/>
      </contour>
    </TTGlyph>
    <TTGlyph name="I_07" xMin="-10" yMin="0" xMax="867" yMax="862">
      <contour>
        <pt x="75" y="552" on="1"/>
        <pt x="-10" y="552" on="1"/>
        <pt x="-10" y="636" on="1"/>
        <pt x="68" y="636" on="1"/>
        <pt x="63" y="646" on="0"/>
        <pt x="54" y="677" on="0"/>
        <pt x="54" y="695" on="1"/>
        <pt x="54" y="732" on="0"/>
        <pt x="94" y="793" on="0"/>
        <pt x="167" y="837" on="0"/>
        <pt x="270" y="862" on="0"/>
        <pt x="333" y="862" on="1"/>
        <pt x="431" y="862" on="0"/>
        <pt x="595" y="820" on="0"/>
        <pt x="726" y="754" on="0"/>
        <pt x="824" y="672" on="0"/>
        <pt x="856" y="632" on="1"/>
        <pt x="867" y="617" on="1"/>
        <pt x="801" y="568" on="1"/>
        <pt x="788" y="583" on="1"/>
        <pt x="754" y="620" on="0"/>
        <pt x="664" y="689" on="0"/>
        <pt x="551" y="742" on="0"/>
        <pt x="418" y="773" on="0"/>
        <pt x="342" y="773" on="1"/>
        <pt x="251" y="773" on="0"/>
        <pt x="164" y="710" on="0"/>
        <pt x="164" y="667" on="1"/>
        <pt x="164" y="648" on="0"/>
        <pt x="170" y="636" on="1"/>
        <pt x="268" y="636" on="1"/>
        <pt x="268" y="552" on="1"/>
        <pt x="183" y="552" on="1"/>
        <pt x="183" y="0" on="1"/>
        <pt x="75" y="0" on="1"/>
      </contour>
    </TTGlyph>
    <TTGlyph name="I_08" xMin="-10" yMin="0" xMax="907" yMax="862">
      <contour>
        <pt x="75" y="552" on="1"/>
        <pt x="-10" y="552" on="1"/>
        <pt x="-10" y="636" on="1"/>
        <pt x="67" y="636" on="1"/>
        <pt x="62" y="646" on="0"/>
        <pt x="53" y="677" on="0"/>
        <pt x="53" y="695" on="1"/>
        <pt x="53" y="732" on="0"/>
        <pt x="94" y="793" on="0"/>
        <pt x="171" y="837" on="0"/>
        <pt x="279" y="862" on="0"/>
        <pt x="346" y="862" on="1"/>
        <pt x="455" y="862" on="0"/>
        <pt x="632" y="815" on="0"/>
        <pt x="768" y="746" on="0"/>
        <pt x="866" y="666" on="0"/>
        <pt x="896" y="632" on="1"/>
        <pt x="907" y="620" on="1"/>
        <pt x="843" y="569" on="1"/>
        <pt x="829" y="583" on="1"/>
        <pt x="794" y="616" on="0"/>
        <pt x="702" y="684" on="0"/>
        <pt x="586" y="739" on="0"/>
        <pt x="442" y="773" on="0"/>
        <pt x="355" y="773" on="1"/>
        <pt x="257" y="773" on="0"/>
        <pt x="164" y="710" on="0"/>
        <pt x="164" y="668" on="1"/>
        <pt x="164" y="647" on="0"/>
        <pt x="169" y="636" on="1"/>
        <pt x="268" y="636" on="1"/>
        <pt x="268" y="552" on="1"/>
        <pt x="183" y="552" on="1"/>
        <pt x="183" y="0" on="1"/>
        <pt x="75" y="0" on="1"/>
      </contour>
    </TTGlyph>
    <TTGlyph name="I_09" xMin="-10" yMin="0" xMax="950" yMax="862">
      <contour>
        <pt x="75" y="552" on="1"/>
        <pt x="-10" y="552" on="1"/>
        <pt x="-10" y="636" on="1"/>
        <pt x="67" y="636" on="1"/>
        <pt x="62" y="645" on="0"/>
        <pt x="53" y="677" on="0"/>
        <pt x="53" y="697" on="1"/>
        <pt x="53" y="734" on="0"/>
        <pt x="96" y="794" on="0"/>
        <pt x="176" y="838" on="0"/>
        <pt x="290" y="862" on="0"/>
        <pt x="361" y="862" on="1"/>
        <pt x="470" y="862" on="0"/>
        <pt x="651" y="821" on="0"/>
        <pt x="794" y="756" on="0"/>
        <pt x="901" y="674" on="0"/>
        <pt x="937" y="632" on="1"/>
        <pt x="950" y="617" on="1"/>
        <pt x="885" y="570" on="1"/>
        <pt x="870" y="586" on="1"/>
        <pt x="836" y="621" on="0"/>
        <pt x="738" y="688" on="0"/>
        <pt x="612" y="741" on="0"/>
        <pt x="459" y="773" on="0"/>
        <pt x="370" y="773" on="1"/>
        <pt x="263" y="773" on="0"/>
        <pt x="164" y="712" on="0"/>
        <pt x="164" y="670" on="1"/>
        <pt x="164" y="661" on="0"/>
        <pt x="166" y="644" on="0"/>
        <pt x="168" y="636" on="1"/>
        <pt x="268" y="636" on="1"/>
        <pt x="268" y="552" on="1"/>
        <pt x="183" y="552" on="1"/>
        <pt x="183" y="0" on="1"/>
        <pt x="75" y="0" on="1"/>
      </contour>
    </TTGlyph>
    <TTGlyph name="I_10" xMin="-10" yMin="0" xMax="981" yMax="862">
      <contour>
        <pt x="75" y="552" on="1"/>
        <pt x="-10" y="552" on="1"/>
        <pt x="-10" y="636" on="1"/>
        <pt x="59" y="636" on="1"/>
        <pt x="54" y="645" on="0"/>
        <pt x="46" y="675" on="0"/>
        <pt x="46" y="695" on="1"/>
        <pt x="46" y="732" on="0"/>
        <pt x="88" y="793" on="0"/>
        <pt x="167" y="837" on="0"/>
        <pt x="282" y="862" on="0"/>
        <pt x="355" y="862" on="1"/>
        <pt x="469" y="862" on="0"/>
        <pt x="661" y="816" on="0"/>
        <pt x="815" y="747" on="0"/>
        <pt x="930" y="666" on="0"/>
        <pt x="967" y="631" on="1"/>
        <pt x="981" y="618" on="1"/>
        <pt x="915" y="570" on="1"/>
        <pt x="898" y="584" on="1"/>
        <pt x="860" y="616" on="0"/>
        <pt x="749" y="683" on="0"/>
        <pt x="613" y="738" on="0"/>
        <pt x="453" y="773" on="0"/>
        <pt x="365" y="773" on="1"/>
        <pt x="309" y="773" on="0"/>
        <pt x="231" y="757" on="0"/>
        <pt x="181" y="728" on="0"/>
        <pt x="158" y="691" on="0"/>
        <pt x="158" y="670" on="1"/>
        <pt x="158" y="651" on="0"/>
        <pt x="162" y="636" on="1"/>
        <pt x="268" y="636" on="1"/>
        <pt x="268" y="552" on="1"/>
        <pt x="183" y="552" on="1"/>
        <pt x="183" y="0" on="1"/>
        <pt x="75" y="0" on="1"/>
      </contour>
    </TTGlyph>
    <TTGlyph name="I_11" xMin="-10" yMin="0" xMax="1044" yMax="862">
      <contour>
        <pt x="75" y="552" on="1"/>
        <pt x="-10" y="552" on="1"/>
        <pt x="-10" y="636" on="1"/>
        <pt x="59" y="636" on="1"/>
        <pt x="54" y="645" on="0"/>
        <pt x="46" y="672" on="0"/>
        <pt x="46" y="689" on="1"/>
        <pt x="46" y="728" on="0"/>
        <pt x="94" y="792" on="0"/>
        <pt x="182" y="837" on="0"/>
        <pt x="304" y="862" on="0"/>
        <pt x="379" y="862" on="1"/>
        <pt x="499" y="862" on="0"/>
        <pt x="701" y="821" on="0"/>
        <pt x="865" y="755" on="0"/>
        <pt x="991" y="673" on="0"/>
        <pt x="1035" y="632" on="1"/>
        <pt x="1044" y="623" on="1"/>
        <pt x="981" y="570" on="1"/>
        <pt x="963" y="585" on="1"/>
        <pt x="919" y="621" on="0"/>
        <pt x="801" y="688" on="0"/>
        <pt x="656" y="741" on="0"/>
        <pt x="485" y="773" on="0"/>
        <pt x="388" y="773" on="1"/>
        <pt x="269" y="773" on="0"/>
        <pt x="158" y="710" on="0"/>
        <pt x="158" y="665" on="1"/>
        <pt x="158" y="648" on="0"/>
        <pt x="162" y="636" on="1"/>
        <pt x="268" y="636" on="1"/>
        <pt x="268" y="552" on="1"/>
        <pt x="183" y="552" on="1"/>
        <pt x="183" y="0" on="1"/>
        <pt x="75" y="0" on="1"/>
      </contour>
    </TTGlyph>
    <TTGlyph name="I_12" xMin="-10" yMin="0" xMax="1084" yMax="862">
      <contour>
        <pt x="70" y="552" on="1"/>
        <pt x="-10" y="552" on="1"/>
        <pt x="-10" y="636" on="1"/>
        <pt x="60" y="636" on="1"/>
        <pt x="55" y="644" on="0"/>
        <pt x="47" y="672" on="0"/>
        <pt x="47" y="692" on="1"/>
        <pt x="47" y="732" on="0"/>
        <pt x="98" y="796" on="0"/>
        <pt x="190" y="839" on="0"/>
        <pt x="320" y="862" on="0"/>
        <pt x="399" y="862" on="1"/>
        <pt x="519" y="862" on="0"/>
        <pt x="726" y="823" on="0"/>
        <pt x="897" y="758" on="0"/>
        <pt x="1029" y="676" on="0"/>
        <pt x="1075" y="633" on="1"/>
        <pt x="1084" y="624" on="1"/>
        <pt x="1021" y="572" on="1"/>
        <pt x="1003" y="587" on="1"/>
        <pt x="958" y="624" on="0"/>
        <pt x="833" y="691" on="0"/>
        <pt x="682" y="742" on="0"/>
        <pt x="505" y="773" on="0"/>
        <pt x="408" y="773" on="1"/>
        <pt x="283" y="773" on="0"/>
        <pt x="159" y="713" on="0"/>
        <pt x="159" y="661" on="1"/>
        <pt x="159" y="653" on="0"/>
        <pt x="160" y="641" on="0"/>
        <pt x="162" y="636" on="1"/>
        <pt x="258" y="636" on="1"/>
        <pt x="258" y="552" on="1"/>
        <pt x="178" y="552" on="1"/>
        <pt x="178" y="0" on="1"/>
        <pt x="70" y="0" on="1"/>
      </contour>
    </TTGlyph>
    <TTGlyph name="I_13" xMin="-10" yMin="0" xMax="1129" yMax="862">
      <contour>
        <pt x="70" y="552" on="1"/>
        <pt x="-10" y="552" on="1"/>
        <pt x="-10" y="636" on="1"/>
        <pt x="60" y="636" on="1"/>
        <pt x="47" y="654" on="0"/>
        <pt x="47" y="691" on="1"/>
        <pt x="47" y="731" on="0"/>
        <pt x="98" y="795" on="0"/>
        <pt x="190" y="839" on="0"/>
        <pt x="320" y="862" on="0"/>
        <pt x="399" y="862" on="1"/>
        <pt x="525" y="862" on="0"/>
        <pt x="747" y="823" on="0"/>
        <pt x="930" y="758" on="0"/>
        <pt x="1072" y="676" on="0"/>
        <pt x="1120" y="633" on="1"/>
        <pt x="1129" y="624" on="1"/>
        <pt x="1066" y="572" on="1"/>
        <pt x="1048" y="587" on="1"/>
        <pt x="1001" y="624" on="0"/>
        <pt x="870" y="691" on="0"/>
        <pt x="707" y="742" on="0"/>
        <pt x="516" y="773" on="0"/>
        <pt x="408" y="773" on="1"/>
        <pt x="283" y="773" on="0"/>
        <pt x="159" y="712" on="0"/>
        <pt x="159" y="661" on="1"/>
        <pt x="159" y="652" on="0"/>
        <pt x="160" y="641" on="0"/>
        <pt x="162" y="636" on="1"/>
        <pt x="258" y="636" on="1"/>
        <pt x="258" y="552" on="1"/>
        <pt x="178" y="552" on="1"/>
        <pt x="178" y="0" on="1"/>
        <pt x="70" y="0" on="1"/>
      </contour>
    </TTGlyph>
    <TTGlyph name="I_14" xMin="-10" yMin="0" xMax="1194" yMax="862">
      <contour>
        <pt x="70" y="552" on="1"/>
        <pt x="-10" y="552" on="1"/>
        <pt x="-10" y="636" on="1"/>
        <pt x="60" y="636" on="1"/>
        <pt x="55" y="644" on="0"/>
        <pt x="47" y="671" on="0"/>
        <pt x="47" y="688" on="1"/>
        <pt x="47" y="728" on="0"/>
        <pt x="99" y="793" on="0"/>
        <pt x="194" y="838" on="0"/>
        <pt x="325" y="862" on="0"/>
        <pt x="404" y="862" on="1"/>
        <pt x="541" y="862" on="0"/>
        <pt x="785" y="823" on="0"/>
        <pt x="986" y="759" on="0"/>
        <pt x="1139" y="676" on="0"/>
        <pt x="1185" y="633" on="1"/>
        <pt x="1194" y="624" on="1"/>
        <pt x="1131" y="572" on="1"/>
        <pt x="1113" y="587" on="1"/>
        <pt x="1066" y="627" on="0"/>
        <pt x="922" y="695" on="0"/>
        <pt x="742" y="745" on="0"/>
        <pt x="529" y="773" on="0"/>
        <pt x="413" y="773" on="1"/>
        <pt x="288" y="773" on="0"/>
        <pt x="159" y="711" on="0"/>
        <pt x="159" y="660" on="1"/>
        <pt x="159" y="646" on="0"/>
        <pt x="162" y="636" on="1"/>
        <pt x="258" y="636" on="1"/>
        <pt x="258" y="552" on="1"/>
        <pt x="178" y="552" on="1"/>
        <pt x="178" y="0" on="1"/>
        <pt x="70" y="0" on="1"/>
      </contour>
    </TTGlyph>
    <TTGlyph name="I_15" xMin="-10" yMin="0" xMax="1239" yMax="862">
      <contour>
        <pt x="70" y="552" on="1"/>
        <pt x="-10" y="552" on="1"/>
        <pt x="-10" y="636" on="1"/>
        <pt x="60" y="636" on="1"/>
        <pt x="55" y="644" on="0"/>
        <pt x="47" y="670" on="0"/>
        <pt x="47" y="688" on="1"/>
        <pt x="47" y="727" on="0"/>
        <pt x="98" y="791" on="0"/>
        <pt x="194" y="837" on="0"/>
        <pt x="332" y="862" on="0"/>
        <pt x="419" y="862" on="1"/>
        <pt x="562" y="862" on="0"/>
        <pt x="814" y="824" on="0"/>
        <pt x="1022" y="761" on="0"/>
        <pt x="1180" y="678" on="0"/>
        <pt x="1230" y="633" on="1"/>
        <pt x="1239" y="624" on="1"/>
        <pt x="1176" y="572" on="1"/>
        <pt x="1158" y="587" on="1"/>
        <pt x="1108" y="627" on="0"/>
        <pt x="957" y="696" on="0"/>
        <pt x="768" y="745" on="0"/>
        <pt x="547" y="773" on="0"/>
        <pt x="428" y="773" on="1"/>
        <pt x="289" y="773" on="0"/>
        <pt x="159" y="709" on="0"/>
        <pt x="159" y="662" on="1"/>
        <pt x="159" y="652" on="0"/>
        <pt x="160" y="641" on="0"/>
        <pt x="162" y="636" on="1"/>
        <pt x="258" y="636" on="1"/>
        <pt x="258" y="552" on="1"/>
        <pt x="178" y="552" on="1"/>
        <pt x="178" y="0" on="1"/>
        <pt x="70" y="0" on="1"/>
      </contour>
    </TTGlyph>
    <TTGlyph name="I_16" xMin="-10" yMin="0" xMax="1294" yMax="862">
      <contour>
        <pt x="70" y="552" on="1"/>
        <pt x="-10" y="552" on="1"/>
        <pt x="-10" y="636" on="1"/>
        <pt x="60" y="636" on="1"/>
        <pt x="55" y="644" on="0"/>
        <pt x="47" y="670" on="0"/>
        <pt x="47" y="688" on="1"/>
        <pt x="47" y="727" on="0"/>
        <pt x="99" y="791" on="0"/>
        <pt x="199" y="837" on="0"/>
        <pt x="348" y="862" on="0"/>
        <pt x="444" y="862" on="1"/>
        <pt x="590" y="862" on="0"/>
        <pt x="851" y="824" on="0"/>
        <pt x="1068" y="761" on="0"/>
        <pt x="1234" y="678" on="0"/>
        <pt x="1285" y="633" on="1"/>
        <pt x="1294" y="624" on="1"/>
        <pt x="1231" y="572" on="1"/>
        <pt x="1213" y="587" on="1"/>
        <pt x="1162" y="627" on="0"/>
        <pt x="1004" y="696" on="0"/>
        <pt x="805" y="745" on="0"/>
        <pt x="575" y="773" on="0"/>
        <pt x="453" y="773" on="1"/>
        <pt x="373" y="773" on="0"/>
        <pt x="262" y="756" on="0"/>
        <pt x="191" y="726" on="0"/>
        <pt x="159" y="686" on="0"/>
        <pt x="159" y="662" on="1"/>
        <pt x="159" y="652" on="0"/>
        <pt x="160" y="641" on="0"/>
        <pt x="162" y="636" on="1"/>
        <pt x="258" y="636" on="1"/>
        <pt x="258" y="552" on="1"/>
        <pt x="178" y="552" on="1"/>
        <pt x="178" y="0" on="1"/>
        <pt x="70" y="0" on="1"/>
      </contour>
    </TTGlyph>
    <TTGlyph name="I_17" xMin="-10" yMin="0" xMax="1339" yMax="862">
      <contour>
        <pt x="70" y="552" on="1"/>
        <pt x="-10" y="552" on="1"/>
        <pt x="-10" y="636" on="1"/>
        <pt x="60" y="636" on="1"/>
        <pt x="55" y="644" on="0"/>
        <pt x="47" y="670" on="0"/>
        <pt x="47" y="688" on="1"/>
        <pt x="47" y="727" on="0"/>
        <pt x="101" y="791" on="0"/>
        <pt x="208" y="837" on="0"/>
        <pt x="365" y="862" on="0"/>
        <pt x="469" y="862" on="1"/>
        <pt x="625" y="862" on="0"/>
        <pt x="895" y="825" on="0"/>
        <pt x="1116" y="763" on="0"/>
        <pt x="1280" y="679" on="0"/>
        <pt x="1330" y="633" on="1"/>
        <pt x="1339" y="624" on="1"/>
        <pt x="1276" y="572" on="1"/>
        <pt x="1258" y="587" on="1"/>
        <pt x="1208" y="628" on="0"/>
        <pt x="1051" y="697" on="0"/>
        <pt x="849" y="746" on="0"/>
        <pt x="609" y="773" on="0"/>
        <pt x="478" y="773" on="1"/>
        <pt x="391" y="773" on="0"/>
        <pt x="270" y="756" on="0"/>
        <pt x="193" y="726" on="0"/>
        <pt x="159" y="686" on="0"/>
        <pt x="159" y="662" on="1"/>
        <pt x="159" y="652" on="0"/>
        <pt x="160" y="641" on="0"/>
        <pt x="162" y="636" on="1"/>
        <pt x="258" y="636" on="1"/>
        <pt x="258" y="552" on="1"/>
        <pt x="178" y="552" on="1"/>
        <pt x="178" y="0" on="1"/>
        <pt x="70" y="0" on="1"/>
      </contour>
    </TTGlyph>
    <TTGlyph name="I_18" xMin="-10" yMin="0" xMax="1394" yMax="862">
      <contour>
        <pt x="70" y="552" on="1"/>
        <pt x="-10" y="552" on="1"/>
        <pt x="-10" y="636" on="1"/>
        <pt x="60" y="636" on="1"/>
        <pt x="55" y="644" on="0"/>
        <pt x="47" y="670" on="0"/>
        <pt x="47" y="688" on="1"/>
        <pt x="47" y="727" on="0"/>
        <pt x="102" y="791" on="0"/>
        <pt x="214" y="837" on="0"/>
        <pt x="384" y="862" on="0"/>
        <pt x="499" y="862" on="1"/>
        <pt x="671" y="862" on="0"/>
        <pt x="955" y="822" on="0"/>
        <pt x="1177" y="757" on="0"/>
        <pt x="1337" y="675" on="0"/>
        <pt x="1385" y="632" on="1"/>
        <pt x="1394" y="624" on="1"/>
        <pt x="1334" y="571" on="1"/>
        <pt x="1315" y="585" on="1"/>
        <pt x="1260" y="626" on="0"/>
        <pt x="1109" y="695" on="0"/>
        <pt x="911" y="745" on="0"/>
        <pt x="661" y="773" on="0"/>
        <pt x="508" y="773" on="1"/>
        <pt x="409" y="773" on="0"/>
        <pt x="275" y="756" on="0"/>
        <pt x="194" y="726" on="0"/>
        <pt x="159" y="686" on="0"/>
        <pt x="159" y="662" on="1"/>
        <pt x="159" y="652" on="0"/>
        <pt x="160" y="641" on="0"/>
        <pt x="162" y="636" on="1"/>
        <pt x="258" y="636" on="1"/>
        <pt x="258" y="552" on="1"/>
        <pt x="178" y="552" on="1"/>
        <pt x="178" y="0" on="1"/>
        <pt x="70" y="0" on="1"/>
      </contour>
    </TTGlyph>
    <TTGlyph name="I_19" xMin="-10" yMin="0" xMax="1449" yMax="862">
      <contour>
        <pt x="70" y="552" on="1"/>
        <pt x="-10" y="552" on="1"/>
        <pt x="-10" y="636" on="1"/>
        <pt x="60" y="636" on="1"/>
        <pt x="55" y="644" on="0"/>
        <pt x="47" y="670" on="0"/>
        <pt x="47" y="688" on="1"/>
        <pt x="47" y="727" on="0"/>
        <pt x="102" y="791" on="0"/>
        <pt x="214" y="837" on="0"/>
        <pt x="384" y="862" on="0"/>
        <pt x="499" y="862" on="1"/>
        <pt x="681" y="862" on="0"/>
        <pt x="983" y="825" on="0"/>
        <pt x="1220" y="762" on="0"/>
        <pt x="1390" y="679" on="0"/>
        <pt x="1440" y="632" on="1"/>
        <pt x="1449" y="623" on="1"/>
        <pt x="1393" y="571" on="1"/>
        <pt x="1375" y="585" on="1"/>
        <pt x="1268" y="670" on="0"/>
        <pt x="835" y="773" on="0"/>
        <pt x="508" y="773" on="1"/>
        <pt x="409" y="773" on="0"/>
        <pt x="275" y="756" on="0"/>
        <pt x="194" y="726" on="0"/>
        <pt x="159" y="686" on="0"/>
        <pt x="159" y="662" on="1"/>
        <pt x="159" y="652" on="0"/>
        <pt x="160" y="641" on="0"/>
        <pt x="162" y="636" on="1"/>
        <pt x="258" y="636" on="1"/>
        <pt x="258" y="552" on="1"/>
        <pt x="178" y="552" on="1"/>
        <pt x="178" y="0" on="1"/>
        <pt x="70" y="0" on="1"/>
      </contour>
    </TTGlyph>
    <TTGlyph name="I_20" xMin="-10" yMin="0" xMax="1524" yMax="862">
      <contour>
        <pt x="70" y="552" on="1"/>
        <pt x="-10" y="552" on="1"/>
        <pt x="-10" y="636" on="1"/>
        <pt x="60" y="636" on="1"/>
        <pt x="55" y="644" on="0"/>
        <pt x="47" y="667" on="0"/>
        <pt x="47" y="685" on="1"/>
        <pt x="47" y="724" on="0"/>
        <pt x="101" y="789" on="0"/>
        <pt x="213" y="836" on="0"/>
        <pt x="388" y="862" on="0"/>
        <pt x="509" y="862" on="1"/>
        <pt x="693" y="862" on="0"/>
        <pt x="1016" y="825" on="0"/>
        <pt x="1276" y="762" on="0"/>
        <pt x="1464" y="679" on="0"/>
        <pt x="1515" y="632" on="1"/>
        <pt x="1524" y="623" on="1"/>
        <pt x="1468" y="571" on="1"/>
        <pt x="1450" y="585" on="1"/>
        <pt x="1396" y="627" on="0"/>
        <pt x="1217" y="697" on="0"/>
        <pt x="977" y="746" on="0"/>
        <pt x="684" y="773" on="0"/>
        <pt x="518" y="773" on="1"/>
        <pt x="416" y="773" on="0"/>
        <pt x="278" y="756" on="0"/>
        <pt x="195" y="726" on="0"/>
        <pt x="159" y="686" on="0"/>
        <pt x="159" y="662" on="1"/>
        <pt x="159" y="652" on="0"/>
        <pt x="160" y="641" on="0"/>
        <pt x="162" y="636" on="1"/>
        <pt x="258" y="636" on="1"/>
        <pt x="258" y="552" on="1"/>
        <pt x="178" y="552" on="1"/>
        <pt x="178" y="0" on="1"/>
        <pt x="70" y="0" on="1"/>
      </contour>
    </TTGlyph>
    <TTGlyph name="I_21" xMin="-10" yMin="0" xMax="1589" yMax="862">
      <contour>
        <pt x="70" y="552" on="1"/>
        <pt x="-10" y="552" on="1"/>
        <pt x="-10" y="636" on="1"/>
        <pt x="60" y="636" on="1"/>
        <pt x="55" y="644" on="0"/>
        <pt x="47" y="667" on="0"/>
        <pt x="47" y="685" on="1"/>
        <pt x="47" y="724" on="0"/>
        <pt x="102" y="789" on="0"/>
        <pt x="218" y="836" on="0"/>
        <pt x="399" y="862" on="0"/>
        <pt x="524" y="862" on="1"/>
        <pt x="711" y="862" on="0"/>
        <pt x="1051" y="825" on="0"/>
        <pt x="1328" y="762" on="0"/>
        <pt x="1530" y="679" on="0"/>
        <pt x="1580" y="632" on="1"/>
        <pt x="1589" y="623" on="1"/>
        <pt x="1533" y="571" on="1"/>
        <pt x="1515" y="585" on="1"/>
        <pt x="1461" y="628" on="0"/>
        <pt x="1268" y="698" on="0"/>
        <pt x="1011" y="747" on="0"/>
        <pt x="702" y="773" on="0"/>
        <pt x="533" y="773" on="1"/>
        <pt x="426" y="773" on="0"/>
        <pt x="283" y="756" on="0"/>
        <pt x="196" y="726" on="0"/>
        <pt x="159" y="686" on="0"/>
        <pt x="159" y="662" on="1"/>
        <pt x="159" y="652" on="0"/>
        <pt x="160" y="641" on="0"/>
        <pt x="162" y="636" on="1"/>
        <pt x="258" y="636" on="1"/>
        <pt x="258" y="552" on="1"/>
        <pt x="178" y="552" on="1"/>
        <pt x="178" y="0" on="1"/>
        <pt x="70" y="0" on="1"/>
      </contour>
    </TTGlyph>
    <TTGlyph name="I_22" xMin="-10" yMin="0" xMax="1704" yMax="862">
      <contour>
        <pt x="70" y="552" on="1"/>
        <pt x="-10" y="552" on="1"/>
        <pt x="-10" y="636" on="1"/>
        <pt x="60" y="636" on="1"/>
        <pt x="55" y="644" on="0"/>
        <pt x="47" y="667" on="0"/>
        <pt x="47" y="685" on="1"/>
        <pt x="47" y="724" on="0"/>
        <pt x="107" y="789" on="0"/>
        <pt x="233" y="836" on="0"/>
        <pt x="431" y="862" on="0"/>
        <pt x="569" y="862" on="1"/>
        <pt x="794" y="862" on="0"/>
        <pt x="1162" y="828" on="0"/>
        <pt x="1446" y="767" on="0"/>
        <pt x="1642" y="683" on="0"/>
        <pt x="1695" y="632" on="1"/>
        <pt x="1704" y="623" on="1"/>
        <pt x="1653" y="571" on="1"/>
        <pt x="1635" y="585" on="1"/>
        <pt x="1579" y="631" on="0"/>
        <pt x="1386" y="701" on="0"/>
        <pt x="1119" y="749" on="0"/>
        <pt x="780" y="773" on="0"/>
        <pt x="578" y="773" on="1"/>
        <pt x="458" y="773" on="0"/>
        <pt x="297" y="756" on="0"/>
        <pt x="200" y="726" on="0"/>
        <pt x="159" y="686" on="0"/>
        <pt x="159" y="662" on="1"/>
        <pt x="159" y="652" on="0"/>
        <pt x="160" y="641" on="0"/>
        <pt x="162" y="636" on="1"/>
        <pt x="258" y="636" on="1"/>
        <pt x="258" y="552" on="1"/>
        <pt x="178" y="552" on="1"/>
        <pt x="178" y="0" on="1"/>
        <pt x="70" y="0" on="1"/>
      </contour>
    </TTGlyph>
    <TTGlyph name="I_23" xMin="-10" yMin="0" xMax="2034" yMax="862">
      <contour>
        <pt x="70" y="552" on="1"/>
        <pt x="-10" y="552" on="1"/>
        <pt x="-10" y="636" on="1"/>
        <pt x="60" y="636" on="1"/>
        <pt x="55" y="644" on="0"/>
        <pt x="47" y="667" on="0"/>
        <pt x="47" y="685" on="1"/>
        <pt x="47" y="724" on="0"/>
        <pt x="106" y="789" on="0"/>
        <pt x="236" y="836" on="0"/>
        <pt x="445" y="862" on="0"/>
        <pt x="594" y="862" on="1"/>
        <pt x="873" y="862" on="0"/>
        <pt x="1350" y="829" on="0"/>
        <pt x="1720" y="768" on="0"/>
        <pt x="1971" y="683" on="0"/>
        <pt x="2025" y="632" on="1"/>
        <pt x="2034" y="623" on="1"/>
        <pt x="1983" y="571" on="1"/>
        <pt x="1965" y="585" on="1"/>
        <pt x="1906" y="633" on="0"/>
        <pt x="1654" y="704" on="0"/>
        <pt x="1298" y="751" on="0"/>
        <pt x="854" y="773" on="0"/>
        <pt x="603" y="773" on="1"/>
        <pt x="472" y="773" on="0"/>
        <pt x="300" y="756" on="0"/>
        <pt x="199" y="726" on="0"/>
        <pt x="159" y="686" on="0"/>
        <pt x="159" y="662" on="1"/>
        <pt x="159" y="652" on="0"/>
        <pt x="160" y="641" on="0"/>
        <pt x="162" y="636" on="1"/>
        <pt x="258" y="636" on="1"/>
        <pt x="258" y="552" on="1"/>
        <pt x="178" y="552" on="1"/>
        <pt x="178" y="0" on="1"/>
        <pt x="70" y="0" on="1"/>
      </contour>
    </TTGlyph>
    <TTGlyph name="Iacute" xMin="73" yMin="0" xMax="298" yMax="824">
      <contour>
        <pt x="195" y="630" on="1"/>
        <pt x="195" y="0" on="1"/>
        <pt x="73" y="0" on="1"/>
        <pt x="73" y="630" on="1"/>
      </contour>
      <contour>
        <pt x="184" y="700" on="1"/>
        <pt x="87" y="700" on="1"/>
        <pt x="167" y="824" on="1"/>
        <pt x="298" y="824" on="1"/>
      </contour>
    </TTGlyph>
    <TTGlyph name="Ibreve" xMin="0" yMin="0" xMax="269" yMax="824">
      <contour>
        <pt x="195" y="630" on="1"/>
        <pt x="195" y="0" on="1"/>
        <pt x="73" y="0" on="1"/>
        <pt x="73" y="630" on="1"/>
      </contour>
      <contour>
        <pt x="73" y="824" on="1"/>
        <pt x="75" y="796" on="0"/>
        <pt x="101" y="764" on="0"/>
        <pt x="135" y="764" on="1"/>
        <pt x="192" y="764" on="0"/>
        <pt x="197" y="824" on="1"/>
        <pt x="269" y="824" on="1"/>
        <pt x="269" y="766" on="0"/>
        <pt x="200" y="697" on="0"/>
        <pt x="135" y="697" on="1"/>
        <pt x="99" y="697" on="0"/>
        <pt x="48" y="718" on="0"/>
        <pt x="15" y="753" on="0"/>
        <pt x="0" y="799" on="0"/>
        <pt x="0" y="824" on="1"/>
      </contour>
    </TTGlyph>
    <TTGlyph name="Icircumflex" xMin="-27" yMin="0" xMax="299" yMax="829">
      <contour>
        <pt x="195" y="630" on="1"/>
        <pt x="195" y="0" on="1"/>
        <pt x="73" y="0" on="1"/>
        <pt x="73" y="630" on="1"/>
      </contour>
      <contour>
        <pt x="90" y="829" on="1"/>
        <pt x="179" y="829" on="1"/>
        <pt x="299" y="700" on="1"/>
        <pt x="204" y="700" on="1"/>
        <pt x="134" y="774" on="1"/>
        <pt x="64" y="700" on="1"/>
        <pt x="-27" y="700" on="1"/>
      </contour>
    </TTGlyph>
    <TTGlyph name="Idieresis" xMin="-19" yMin="0" xMax="284" yMax="812">
      <contour>
        <pt x="195" y="630" on="1"/>
        <pt x="195" y="0" on="1"/>
        <pt x="73" y="0" on="1"/>
        <pt x="73" y="630" on="1"/>
      </contour>
      <contour>
        <pt x="-19" y="754" on="1"/>
        <pt x="-19" y="777" on="0"/>
        <pt x="15" y="812" on="0"/>
        <pt x="40" y="812" on="1"/>
        <pt x="64" y="812" on="0"/>
        <pt x="98" y="777" on="0"/>
        <pt x="98" y="754" on="1"/>
        <pt x="98" y="729" on="0"/>
        <pt x="64" y="694" on="0"/>
        <pt x="40" y="694" on="1"/>
        <pt x="15" y="694" on="0"/>
        <pt x="-19" y="729" on="0"/>
      </contour>
      <contour>
        <pt x="166" y="754" on="1"/>
        <pt x="166" y="777" on="0"/>
        <pt x="201" y="812" on="0"/>
        <pt x="225" y="812" on="1"/>
        <pt x="250" y="812" on="0"/>
        <pt x="284" y="777" on="0"/>
        <pt x="284" y="754" on="1"/>
        <pt x="284" y="729" on="0"/>
        <pt x="250" y="694" on="0"/>
        <pt x="225" y="694" on="1"/>
        <pt x="201" y="694" on="0"/>
        <pt x="166" y="729" on="0"/>
      </contour>
    </TTGlyph>
    <TTGlyph name="Idotaccent" xMin="71" yMin="0" xMax="195" yMax="818">
      <contour>
        <pt x="195" y="630" on="1"/>
        <pt x="195" y="0" on="1"/>
        <pt x="73" y="0" on="1"/>
        <pt x="73" y="630" on="1"/>
      </contour>
      <contour>
        <pt x="71" y="757" on="1"/>
        <pt x="71" y="782" on="0"/>
        <pt x="107" y="818" on="0"/>
        <pt x="133" y="818" on="1"/>
        <pt x="159" y="818" on="0"/>
        <pt x="194" y="782" on="0"/>
        <pt x="194" y="757" on="1"/>
        <pt x="194" y="731" on="0"/>
        <pt x="159" y="694" on="0"/>
        <pt x="133" y="694" on="1"/>
        <pt x="107" y="694" on="0"/>
        <pt x="71" y="731" on="0"/>
      </contour>
    </TTGlyph>
    <TTGlyph name="Igrave" xMin="-31" yMin="0" xMax="195" yMax="824">
      <contour>
        <pt x="195" y="630" on="1"/>
        <pt x="195" y="0" on="1"/>
        <pt x="73" y="0" on="1"/>
        <pt x="73" y="630" on="1"/>
      </contour>
      <contour>
        <pt x="-31" y="824" on="1"/>
        <pt x="100" y="824" on="1"/>
        <pt x="180" y="700" on="1"/>
        <pt x="83" y="700" on="1"/>
      </contour>
    </TTGlyph>
    <TTGlyph name="Imacron" xMin="9" yMin="0" xMax="261" yMax="772">
      <contour>
        <pt x="195" y="630" on="1"/>
        <pt x="195" y="0" on="1"/>
        <pt x="73" y="0" on="1"/>
        <pt x="73" y="630" on="1"/>
      </contour>
      <contour>
        <pt x="261" y="772" on="1"/>
        <pt x="261" y="700" on="1"/>
        <pt x="9" y="700" on="1"/>
        <pt x="9" y="772" on="1"/>
      </contour>
    </TTGlyph>
    <TTGlyph name="Iogonek" xMin="14" yMin="-206" xMax="205" yMax="630">
      <contour>
        <pt x="195" y="630" on="1"/>
        <pt x="195" y="0" on="1"/>
        <pt x="162" y="0" on="1"/>
        <pt x="133" y="-19" on="0"/>
        <pt x="96" y="-61" on="0"/>
        <pt x="96" y="-85" on="1"/>
        <pt x="96" y="-107" on="0"/>
        <pt x="122" y="-131" on="0"/>
        <pt x="144" y="-131" on="1"/>
        <pt x="169" y="-131" on="0"/>
        <pt x="188" y="-123" on="1"/>
        <pt x="205" y="-185" on="1"/>
        <pt x="188" y="-195" on="0"/>
        <pt x="145" y="-206" on="0"/>
        <pt x="121" y="-206" on="1"/>
        <pt x="75" y="-206" on="0"/>
        <pt x="14" y="-152" on="0"/>
        <pt x="14" y="-105" on="1"/>
        <pt x="14" y="-67" on="0"/>
        <pt x="52" y="-16" on="0"/>
        <pt x="73" y="0" on="1"/>
        <pt x="73" y="630" on="1"/>
      </contour>
    </TTGlyph>
    <TTGlyph name="Ismall" xMin="69" yMin="0" xMax="187" yMax="475">
      <contour>
        <pt x="187" y="475" on="1"/>
        <pt x="187" y="0" on="1"/>
        <pt x="69" y="0" on="1"/>
        <pt x="69" y="475" on="1"/>
      </contour>
    </TTGlyph>
    <TTGlyph name="Itilde" xMin="-22" yMin="0" xMax="281" yMax="819">
      <contour>
        <pt x="195" y="630" on="1"/>
        <pt x="195" y="0" on="1"/>
        <pt x="73" y="0" on="1"/>
        <pt x="73" y="630" on="1"/>
      </contour>
      <contour>
        <pt x="-22" y="700" on="1"/>
        <pt x="-22" y="748" on="0"/>
        <pt x="23" y="816" on="0"/>
        <pt x="68" y="816" on="1"/>
        <pt x="87" y="816" on="0"/>
        <pt x="118" y="804" on="0"/>
        <pt x="146" y="789" on="0"/>
        <pt x="172" y="777" on="0"/>
        <pt x="187" y="777" on="1"/>
        <pt x="204" y="777" on="0"/>
        <pt x="220" y="802" on="0"/>
        <pt x="221" y="819" on="1"/>
        <pt x="281" y="819" on="1"/>
        <pt x="281" y="771" on="0"/>
        <pt x="237" y="704" on="0"/>
        <pt x="196" y="704" on="1"/>
        <pt x="176" y="704" on="0"/>
        <pt x="140" y="716" on="0"/>
        <pt x="110" y="730" on="0"/>
        <pt x="84" y="742" on="0"/>
        <pt x="73" y="742" on="1"/>
        <pt x="54" y="742" on="0"/>
        <pt x="40" y="717" on="0"/>
        <pt x="38" y="700" on="1"/>
      </contour>
    </TTGlyph>
    <TTGlyph name="J" xMin="-18" yMin="-165" xMax="214" yMax="630">
      <contour>
        <pt x="214" y="630" on="1"/>
        <pt x="214" y="115" on="1"/>
        <pt x="214" y="39" on="0"/>
        <pt x="196" y="-56" on="0"/>
        <pt x="166" y="-93" on="1"/>
        <pt x="134" y="-133" on="0"/>
        <pt x="36" y="-165" on="0"/>
        <pt x="-18" y="-165" on="1"/>
        <pt x="-18" y="-70" on="1"/>
        <pt x="10" y="-70" on="0"/>
        <pt x="49" y="-53" on="0"/>
        <pt x="63" y="-39" on="1"/>
        <pt x="81" y="-22" on="0"/>
        <pt x="92" y="32" on="0"/>
        <pt x="92" y="64" on="1"/>
        <pt x="92" y="630" on="1"/>
      </contour>
    </TTGlyph>
    <TTGlyph name="Jcircumflex" xMin="-18" yMin="-165" xMax="319" yMax="829">
      <contour>
        <pt x="214" y="630" on="1"/>
        <pt x="214" y="115" on="1"/>
        <pt x="214" y="39" on="0"/>
        <pt x="196" y="-56" on="0"/>
        <pt x="166" y="-93" on="1"/>
        <pt x="134" y="-133" on="0"/>
        <pt x="36" y="-165" on="0"/>
        <pt x="-18" y="-165" on="1"/>
        <pt x="-18" y="-70" on="1"/>
        <pt x="10" y="-70" on="0"/>
        <pt x="49" y="-53" on="0"/>
        <pt x="63" y="-39" on="1"/>
        <pt x="81" y="-22" on="0"/>
        <pt x="92" y="32" on="0"/>
        <pt x="92" y="64" on="1"/>
        <pt x="92" y="630" on="1"/>
      </contour>
      <contour>
        <pt x="110" y="829" on="1"/>
        <pt x="199" y="829" on="1"/>
        <pt x="319" y="700" on="1"/>
        <pt x="224" y="700" on="1"/>
        <pt x="154" y="774" on="1"/>
        <pt x="84" y="700" on="1"/>
        <pt x="-7" y="700" on="1"/>
      </contour>
    </TTGlyph>
    <TTGlyph name="Jsmall" xMin="-8" yMin="-173" xMax="190" yMax="475">
      <contour>
        <pt x="190" y="475" on="1"/>
        <pt x="190" y="73" on="1"/>
        <pt x="190" y="19" on="0"/>
        <pt x="179" y="-66" on="0"/>
        <pt x="156" y="-101" on="1"/>
        <pt x="129" y="-143" on="0"/>
        <pt x="46" y="-173" on="0"/>
        <pt x="-8" y="-173" on="1"/>
        <pt x="-8" y="-81" on="1"/>
        <pt x="9" y="-81" on="0"/>
        <pt x="46" y="-68" on="0"/>
        <pt x="57" y="-49" on="1"/>
        <pt x="67" y="-32" on="0"/>
        <pt x="72" y="21" on="0"/>
        <pt x="72" y="44" on="1"/>
        <pt x="72" y="475" on="1"/>
      </contour>
    </TTGlyph>
    <TTGlyph name="K" xMin="73" yMin="0" xMax="599" yMax="630">
      <contour>
        <pt x="73" y="0" on="1"/>
        <pt x="73" y="630" on="1"/>
        <pt x="195" y="630" on="1"/>
        <pt x="195" y="358" on="1"/>
        <pt x="427" y="630" on="1"/>
        <pt x="579" y="630" on="1"/>
        <pt x="335" y="354" on="1"/>
        <pt x="599" y="0" on="1"/>
        <pt x="448" y="0" on="1"/>
        <pt x="247" y="275" on="1"/>
        <pt x="195" y="219" on="1"/>
        <pt x="195" y="0" on="1"/>
      </contour>
    </TTGlyph>
    <TTGlyph name="Kcommaaccent" xMin="73" yMin="-329" xMax="599" yMax="630">
      <contour>
        <pt x="73" y="0" on="1"/>
        <pt x="73" y="630" on="1"/>
        <pt x="195" y="630" on="1"/>
        <pt x="195" y="358" on="1"/>
        <pt x="427" y="630" on="1"/>
        <pt x="579" y="630" on="1"/>
        <pt x="335" y="354" on="1"/>
        <pt x="599" y="0" on="1"/>
        <pt x="448" y="0" on="1"/>
        <pt x="247" y="275" on="1"/>
        <pt x="195" y="219" on="1"/>
        <pt x="195" y="0" on="1"/>
      </contour>
      <contour>
        <pt x="302" y="-193" on="1"/>
        <pt x="280" y="-188" on="0"/>
        <pt x="246" y="-156" on="0"/>
        <pt x="246" y="-129" on="1"/>
        <pt x="246" y="-103" on="0"/>
        <pt x="280" y="-65" on="0"/>
        <pt x="311" y="-65" on="1"/>
        <pt x="323" y="-65" on="0"/>
        <pt x="350" y="-75" on="0"/>
        <pt x="373" y="-98" on="0"/>
        <pt x="387" y="-134" on="0"/>
        <pt x="387" y="-160" on="1"/>
        <pt x="387" y="-186" on="0"/>
        <pt x="369" y="-236" on="0"/>
        <pt x="338" y="-281" on="0"/>
        <pt x="297" y="-317" on="0"/>
        <pt x="275" y="-329" on="1"/>
        <pt x="246" y="-289" on="1"/>
        <pt x="273" y="-274" on="0"/>
        <pt x="315" y="-223" on="0"/>
        <pt x="319" y="-196" on="1"/>
      </contour>
    </TTGlyph>
    <TTGlyph name="Ksmall" xMin="69" yMin="0" xMax="501" yMax="475">
      <contour>
        <pt x="69" y="0" on="1"/>
        <pt x="69" y="475" on="1"/>
        <pt x="182" y="475" on="1"/>
        <pt x="182" y="282" on="1"/>
        <pt x="345" y="475" on="1"/>
        <pt x="484" y="475" on="1"/>
        <pt x="296" y="268" on="1"/>
        <pt x="501" y="0" on="1"/>
        <pt x="360" y="0" on="1"/>
        <pt x="220" y="199" on="1"/>
        <pt x="182" y="156" on="1"/>
        <pt x="182" y="0" on="1"/>
      </contour>
    </TTGlyph>
    <TTGlyph name="L" xMin="73" yMin="0" xMax="454" yMax="630">
      <contour>
        <pt x="73" y="630" on="1"/>
        <pt x="195" y="630" on="1"/>
        <pt x="195" y="98" on="1"/>
        <pt x="454" y="98" on="1"/>
        <pt x="454" y="0" on="1"/>
        <pt x="73" y="0" on="1"/>
      </contour>
    </TTGlyph>
    <TTGlyph name="Lacute" xMin="73" yMin="0" xMax="454" yMax="824">
      <contour>
        <pt x="73" y="630" on="1"/>
        <pt x="195" y="630" on="1"/>
        <pt x="195" y="98" on="1"/>
        <pt x="454" y="98" on="1"/>
        <pt x="454" y="0" on="1"/>
        <pt x="73" y="0" on="1"/>
      </contour>
      <contour>
        <pt x="180" y="700" on="1"/>
        <pt x="83" y="700" on="1"/>
        <pt x="163" y="824" on="1"/>
        <pt x="293" y="824" on="1"/>
      </contour>
    </TTGlyph>
    <TTGlyph name="Lcaron" xMin="73" yMin="0" xMax="454" yMax="741">
      <contour>
        <pt x="73" y="630" on="1"/>
        <pt x="195" y="630" on="1"/>
        <pt x="195" y="98" on="1"/>
        <pt x="454" y="98" on="1"/>
        <pt x="454" y="0" on="1"/>
        <pt x="73" y="0" on="1"/>
      </contour>
      <contour>
        <pt x="320" y="613" on="1"/>
        <pt x="299" y="618" on="0"/>
        <pt x="264" y="650" on="0"/>
        <pt x="264" y="677" on="1"/>
        <pt x="264" y="703" on="0"/>
        <pt x="298" y="741" on="0"/>
        <pt x="329" y="741" on="1"/>
        <pt x="341" y="741" on="0"/>
        <pt x="368" y="731" on="0"/>
        <pt x="391" y="708" on="0"/>
        <pt x="405" y="672" on="0"/>
        <pt x="405" y="646" on="1"/>
        <pt x="405" y="620" on="0"/>
        <pt x="387" y="570" on="0"/>
        <pt x="357" y="525" on="0"/>
        <pt x="316" y="489" on="0"/>
        <pt x="294" y="477" on="1"/>
        <pt x="265" y="517" on="1"/>
        <pt x="291" y="532" on="0"/>
        <pt x="334" y="583" on="0"/>
        <pt x="338" y="610" on="1"/>
      </contour>
    </TTGlyph>
    <TTGlyph name="Lcommaaccent" xMin="73" yMin="-329" xMax="454" yMax="630">
      <contour>
        <pt x="73" y="630" on="1"/>
        <pt x="195" y="630" on="1"/>
        <pt x="195" y="98" on="1"/>
        <pt x="454" y="98" on="1"/>
        <pt x="454" y="0" on="1"/>
        <pt x="73" y="0" on="1"/>
      </contour>
      <contour>
        <pt x="247" y="-193" on="1"/>
        <pt x="225" y="-188" on="0"/>
        <pt x="191" y="-156" on="0"/>
        <pt x="191" y="-129" on="1"/>
        <pt x="191" y="-103" on="0"/>
        <pt x="225" y="-65" on="0"/>
        <pt x="256" y="-65" on="1"/>
        <pt x="268" y="-65" on="0"/>
        <pt x="295" y="-75" on="0"/>
        <pt x="318" y="-98" on="0"/>
        <pt x="332" y="-134" on="0"/>
        <pt x="332" y="-160" on="1"/>
        <pt x="332" y="-186" on="0"/>
        <pt x="314" y="-236" on="0"/>
        <pt x="283" y="-281" on="0"/>
        <pt x="242" y="-317" on="0"/>
        <pt x="220" y="-329" on="1"/>
        <pt x="191" y="-289" on="1"/>
        <pt x="218" y="-274" on="0"/>
        <pt x="260" y="-223" on="0"/>
        <pt x="264" y="-196" on="1"/>
      </contour>
    </TTGlyph>
    <TTGlyph name="Ldot" xMin="73" yMin="0" xMax="454" yMax="630">
      <contour>
        <pt x="73" y="630" on="1"/>
        <pt x="195" y="630" on="1"/>
        <pt x="195" y="98" on="1"/>
        <pt x="454" y="98" on="1"/>
        <pt x="454" y="0" on="1"/>
        <pt x="73" y="0" on="1"/>
      </contour>
      <contour>
        <pt x="261" y="341" on="1"/>
        <pt x="261" y="368" on="0"/>
        <pt x="296" y="407" on="0"/>
        <pt x="324" y="407" on="1"/>
        <pt x="350" y="407" on="0"/>
        <pt x="385" y="369" on="0"/>
        <pt x="385" y="341" on="1"/>
        <pt x="385" y="315" on="0"/>
        <pt x="349" y="275" on="0"/>
        <pt x="324" y="275" on="1"/>
        <pt x="296" y="275" on="0"/>
        <pt x="261" y="315" on="0"/>
      </contour>
    </TTGlyph>
    <TTGlyph name="Lslash" xMin="-41" yMin="0" xMax="454" yMax="630">
      <contour>
        <pt x="73" y="630" on="1"/>
        <pt x="195" y="630" on="1"/>
        <pt x="195" y="397" on="1"/>
        <pt x="307" y="491" on="1"/>
        <pt x="352" y="436" on="1"/>
        <pt x="195" y="303" on="1"/>
        <pt x="195" y="98" on="1"/>
        <pt x="454" y="98" on="1"/>
        <pt x="454" y="0" on="1"/>
        <pt x="73" y="0" on="1"/>
        <pt x="73" y="215" on="1"/>
        <pt x="4" y="158" on="1"/>
        <pt x="-41" y="213" on="1"/>
        <pt x="73" y="308" on="1"/>
      </contour>
    </TTGlyph>
    <TTGlyph name="Lsmall" xMin="69" yMin="0" xMax="393" yMax="475">
      <contour>
        <pt x="69" y="475" on="1"/>
        <pt x="187" y="475" on="1"/>
        <pt x="187" y="87" on="1"/>
        <pt x="393" y="87" on="1"/>
        <pt x="393" y="0" on="1"/>
        <pt x="69" y="0" on="1"/>
      </contour>
    </TTGlyph>
    <TTGlyph name="M" xMin="64" yMin="0" xMax="762" yMax="630">
      <contour>
        <pt x="112" y="630" on="1"/>
        <pt x="267" y="630" on="1"/>
        <pt x="367" y="316" on="1"/>
        <pt x="380" y="275" on="0"/>
        <pt x="403" y="194" on="0"/>
        <pt x="412" y="155" on="1"/>
        <pt x="416" y="155" on="1"/>
        <pt x="420" y="172" on="0"/>
        <pt x="431" y="213" on="0"/>
        <pt x="443" y="256" on="0"/>
        <pt x="454" y="298" on="0"/>
        <pt x="460" y="316" on="1"/>
        <pt x="557" y="630" on="1"/>
        <pt x="712" y="630" on="1"/>
        <pt x="762" y="0" on="1"/>
        <pt x="645" y="0" on="1"/>
        <pt x="637" y="103" on="0"/>
        <pt x="624" y="308" on="0"/>
        <pt x="622" y="411" on="1"/>
        <pt x="619" y="510" on="1"/>
        <pt x="616" y="510" on="1"/>
        <pt x="601" y="451" on="0"/>
        <pt x="567" y="327" on="0"/>
        <pt x="550" y="276" on="1"/>
        <pt x="462" y="0" on="1"/>
        <pt x="363" y="0" on="1"/>
        <pt x="273" y="276" on="1"/>
        <pt x="250" y="346" on="0"/>
        <pt x="219" y="463" on="0"/>
        <pt x="208" y="510" on="1"/>
        <pt x="206" y="510" on="1"/>
        <pt x="204" y="432" on="0"/>
        <pt x="195" y="262" on="0"/>
        <pt x="190" y="190" on="1"/>
        <pt x="179" y="0" on="1"/>
        <pt x="64" y="0" on="1"/>
      </contour>
    </TTGlyph>
    <TTGlyph name="Macron" xMin="30" yMin="700" xMax="282" yMax="772">
      <contour>
        <pt x="282" y="772" on="1"/>
        <pt x="282" y="700" on="1"/>
        <pt x="30" y="700" on="1"/>
        <pt x="30" y="772" on="1"/>
      </contour>
    </TTGlyph>
    <TTGlyph name="Msmall" xMin="59" yMin="0" xMax="629" yMax="475">
      <contour>
        <pt x="98" y="475" on="1"/>
        <pt x="241" y="475" on="1"/>
        <pt x="294" y="301" on="1"/>
        <pt x="306" y="262" on="0"/>
        <pt x="334" y="165" on="0"/>
        <pt x="343" y="121" on="1"/>
        <pt x="346" y="121" on="1"/>
        <pt x="354" y="163" on="0"/>
        <pt x="381" y="261" on="0"/>
        <pt x="393" y="301" on="1"/>
        <pt x="445" y="475" on="1"/>
        <pt x="589" y="475" on="1"/>
        <pt x="629" y="0" on="1"/>
        <pt x="519" y="0" on="1"/>
        <pt x="508" y="175" on="1"/>
        <pt x="505" y="215" on="0"/>
        <pt x="501" y="309" on="0"/>
        <pt x="500" y="359" on="1"/>
        <pt x="498" y="359" on="1"/>
        <pt x="484" y="296" on="0"/>
        <pt x="453" y="196" on="0"/>
        <pt x="442" y="161" on="1"/>
        <pt x="391" y="0" on="1"/>
        <pt x="296" y="0" on="1"/>
        <pt x="243" y="161" on="1"/>
        <pt x="229" y="203" on="0"/>
        <pt x="199" y="308" on="0"/>
        <pt x="188" y="359" on="1"/>
        <pt x="185" y="359" on="1"/>
        <pt x="186" y="311" on="0"/>
        <pt x="180" y="213" on="0"/>
        <pt x="178" y="175" on="1"/>
        <pt x="175" y="130" on="0"/>
        <pt x="169" y="44" on="0"/>
        <pt x="167" y="0" on="1"/>
        <pt x="59" y="0" on="1"/>
      </contour>
    </TTGlyph>
    <TTGlyph name="N" xMin="73" yMin="0" xMax="598" yMax="630">
      <contour>
        <pt x="73" y="630" on="1"/>
        <pt x="183" y="630" on="1"/>
        <pt x="423" y="276" on="1"/>
        <pt x="443" y="246" on="0"/>
        <pt x="477" y="187" on="0"/>
        <pt x="487" y="168" on="1"/>
        <pt x="489" y="168" on="1"/>
        <pt x="483" y="237" on="0"/>
        <pt x="483" y="376" on="0"/>
        <pt x="483" y="445" on="1"/>
        <pt x="483" y="630" on="1"/>
        <pt x="598" y="630" on="1"/>
        <pt x="598" y="0" on="1"/>
        <pt x="488" y="0" on="1"/>
        <pt x="259" y="335" on="1"/>
        <pt x="236" y="369" on="0"/>
        <pt x="195" y="443" on="0"/>
        <pt x="184" y="466" on="1"/>
        <pt x="182" y="466" on="1"/>
        <pt x="187" y="392" on="0"/>
        <pt x="188" y="253" on="0"/>
        <pt x="188" y="181" on="1"/>
        <pt x="188" y="0" on="1"/>
        <pt x="73" y="0" on="1"/>
      </contour>
    </TTGlyph>
    <TTGlyph name="Nacute" xMin="73" yMin="0" xMax="598" yMax="824">
      <contour>
        <pt x="359" y="700" on="1"/>
        <pt x="262" y="700" on="1"/>
        <pt x="342" y="824" on="1"/>
        <pt x="472" y="824" on="1"/>
      </contour>
      <contour>
        <pt x="73" y="630" on="1"/>
        <pt x="183" y="630" on="1"/>
        <pt x="423" y="276" on="1"/>
        <pt x="443" y="246" on="0"/>
        <pt x="477" y="187" on="0"/>
        <pt x="487" y="168" on="1"/>
        <pt x="489" y="168" on="1"/>
        <pt x="483" y="237" on="0"/>
        <pt x="483" y="376" on="0"/>
        <pt x="483" y="445" on="1"/>
        <pt x="483" y="630" on="1"/>
        <pt x="598" y="630" on="1"/>
        <pt x="598" y="0" on="1"/>
        <pt x="488" y="0" on="1"/>
        <pt x="259" y="335" on="1"/>
        <pt x="236" y="369" on="0"/>
        <pt x="195" y="443" on="0"/>
        <pt x="184" y="466" on="1"/>
        <pt x="182" y="466" on="1"/>
        <pt x="187" y="392" on="0"/>
        <pt x="188" y="253" on="0"/>
        <pt x="188" y="181" on="1"/>
        <pt x="188" y="0" on="1"/>
        <pt x="73" y="0" on="1"/>
      </contour>
    </TTGlyph>
    <TTGlyph name="Ncaron" xMin="73" yMin="0" xMax="598" yMax="829">
      <contour>
        <pt x="391" y="700" on="1"/>
        <pt x="302" y="700" on="1"/>
        <pt x="184" y="829" on="1"/>
        <pt x="279" y="829" on="1"/>
        <pt x="348" y="754" on="1"/>
        <pt x="417" y="829" on="1"/>
        <pt x="510" y="829" on="1"/>
      </contour>
      <contour>
        <pt x="73" y="630" on="1"/>
        <pt x="183" y="630" on="1"/>
        <pt x="423" y="276" on="1"/>
        <pt x="443" y="246" on="0"/>
        <pt x="477" y="187" on="0"/>
        <pt x="487" y="168" on="1"/>
        <pt x="489" y="168" on="1"/>
        <pt x="483" y="237" on="0"/>
        <pt x="483" y="376" on="0"/>
        <pt x="483" y="445" on="1"/>
        <pt x="483" y="630" on="1"/>
        <pt x="598" y="630" on="1"/>
        <pt x="598" y="0" on="1"/>
        <pt x="488" y="0" on="1"/>
        <pt x="259" y="335" on="1"/>
        <pt x="236" y="369" on="0"/>
        <pt x="195" y="443" on="0"/>
        <pt x="184" y="466" on="1"/>
        <pt x="182" y="466" on="1"/>
        <pt x="187" y="392" on="0"/>
        <pt x="188" y="253" on="0"/>
        <pt x="188" y="181" on="1"/>
        <pt x="188" y="0" on="1"/>
        <pt x="73" y="0" on="1"/>
      </contour>
    </TTGlyph>
    <TTGlyph name="Ncommaaccent" xMin="73" yMin="-329" xMax="598" yMax="630">
      <contour>
        <pt x="317" y="-193" on="1"/>
        <pt x="295" y="-188" on="0"/>
        <pt x="261" y="-156" on="0"/>
        <pt x="261" y="-129" on="1"/>
        <pt x="261" y="-103" on="0"/>
        <pt x="295" y="-65" on="0"/>
        <pt x="326" y="-65" on="1"/>
        <pt x="338" y="-65" on="0"/>
        <pt x="365" y="-75" on="0"/>
        <pt x="388" y="-98" on="0"/>
        <pt x="402" y="-134" on="0"/>
        <pt x="402" y="-160" on="1"/>
        <pt x="402" y="-186" on="0"/>
        <pt x="384" y="-236" on="0"/>
        <pt x="353" y="-281" on="0"/>
        <pt x="312" y="-317" on="0"/>
        <pt x="290" y="-329" on="1"/>
        <pt x="261" y="-289" on="1"/>
        <pt x="288" y="-274" on="0"/>
        <pt x="330" y="-223" on="0"/>
        <pt x="334" y="-196" on="1"/>
      </contour>
      <contour>
        <pt x="73" y="630" on="1"/>
        <pt x="183" y="630" on="1"/>
        <pt x="423" y="276" on="1"/>
        <pt x="443" y="246" on="0"/>
        <pt x="477" y="187" on="0"/>
        <pt x="487" y="168" on="1"/>
        <pt x="489" y="168" on="1"/>
        <pt x="483" y="237" on="0"/>
        <pt x="483" y="376" on="0"/>
        <pt x="483" y="445" on="1"/>
        <pt x="483" y="630" on="1"/>
        <pt x="598" y="630" on="1"/>
        <pt x="598" y="0" on="1"/>
        <pt x="488" y="0" on="1"/>
        <pt x="259" y="335" on="1"/>
        <pt x="236" y="369" on="0"/>
        <pt x="195" y="443" on="0"/>
        <pt x="184" y="466" on="1"/>
        <pt x="182" y="466" on="1"/>
        <pt x="187" y="392" on="0"/>
        <pt x="188" y="253" on="0"/>
        <pt x="188" y="181" on="1"/>
        <pt x="188" y="0" on="1"/>
        <pt x="73" y="0" on="1"/>
      </contour>
    </TTGlyph>
    <TTGlyph name="Nsmall" xMin="69" yMin="0" xMax="504" yMax="475">
      <contour>
        <pt x="69" y="475" on="1"/>
        <pt x="184" y="475" on="1"/>
        <pt x="292" y="318" on="1"/>
        <pt x="321" y="276" on="0"/>
        <pt x="378" y="184" on="0"/>
        <pt x="396" y="147" on="1"/>
        <pt x="398" y="147" on="1"/>
        <pt x="396" y="177" on="0"/>
        <pt x="393" y="236" on="0"/>
        <pt x="393" y="264" on="1"/>
        <pt x="393" y="475" on="1"/>
        <pt x="504" y="475" on="1"/>
        <pt x="504" y="0" on="1"/>
        <pt x="389" y="0" on="1"/>
        <pt x="278" y="159" on="1"/>
        <pt x="249" y="201" on="0"/>
        <pt x="197" y="286" on="0"/>
        <pt x="178" y="331" on="1"/>
        <pt x="175" y="331" on="1"/>
        <pt x="177" y="299" on="0"/>
        <pt x="180" y="237" on="0"/>
        <pt x="180" y="205" on="1"/>
        <pt x="180" y="0" on="1"/>
        <pt x="69" y="0" on="1"/>
      </contour>
    </TTGlyph>
    <TTGlyph name="Ntilde" xMin="73" yMin="0" xMax="603" yMax="818">
      <contour>
        <pt x="73" y="630" on="1"/>
        <pt x="253" y="630" on="1"/>
        <pt x="425" y="260" on="1"/>
        <pt x="485" y="105" on="1"/>
        <pt x="489" y="105" on="1"/>
        <pt x="483" y="281" on="1"/>
        <pt x="483" y="630" on="1"/>
        <pt x="603" y="630" on="1"/>
        <pt x="603" y="0" on="1"/>
        <pt x="423" y="0" on="1"/>
        <pt x="257" y="354" on="1"/>
        <pt x="191" y="529" on="1"/>
        <pt x="187" y="529" on="1"/>
        <pt x="193" y="333" on="1"/>
        <pt x="193" y="0" on="1"/>
        <pt x="73" y="0" on="1"/>
      </contour>
      <contour>
        <pt x="204" y="700" on="1"/>
        <pt x="204" y="748" on="0"/>
        <pt x="248" y="815" on="0"/>
        <pt x="293" y="815" on="1"/>
        <pt x="312" y="815" on="0"/>
        <pt x="344" y="803" on="0"/>
        <pt x="371" y="789" on="0"/>
        <pt x="397" y="777" on="0"/>
        <pt x="412" y="777" on="1"/>
        <pt x="429" y="777" on="0"/>
        <pt x="445" y="801" on="0"/>
        <pt x="447" y="818" on="1"/>
        <pt x="507" y="818" on="1"/>
        <pt x="507" y="770" on="0"/>
        <pt x="463" y="704" on="0"/>
        <pt x="421" y="704" on="1"/>
        <pt x="401" y="704" on="0"/>
        <pt x="366" y="716" on="0"/>
        <pt x="336" y="729" on="0"/>
        <pt x="309" y="741" on="0"/>
        <pt x="298" y="741" on="1"/>
        <pt x="280" y="741" on="0"/>
        <pt x="265" y="717" on="0"/>
        <pt x="264" y="700" on="1"/>
      </contour>
    </TTGlyph>
    <TTGlyph name="O" xMin="42" yMin="-10" xMax="656" yMax="640">
      <contour>
        <pt x="351" y="640" on="1"/>
        <pt x="417" y="640" on="0"/>
        <pt x="529" y="597" on="0"/>
        <pt x="610" y="514" on="0"/>
        <pt x="656" y="393" on="0"/>
        <pt x="656" y="314" on="1"/>
        <pt x="656" y="237" on="0"/>
        <pt x="609" y="117" on="0"/>
        <pt x="526" y="34" on="0"/>
        <pt x="413" y="-10" on="0"/>
        <pt x="347" y="-10" on="1"/>
        <pt x="281" y="-10" on="0"/>
        <pt x="169" y="32" on="0"/>
        <pt x="88" y="114" on="0"/>
        <pt x="42" y="235" on="0"/>
        <pt x="42" y="314" on="1"/>
        <pt x="42" y="391" on="0"/>
        <pt x="89" y="512" on="0"/>
        <pt x="172" y="596" on="0"/>
        <pt x="285" y="640" on="0"/>
      </contour>
      <contour>
        <pt x="172" y="314" on="1"/>
        <pt x="172" y="255" on="0"/>
        <pt x="200" y="169" on="0"/>
        <pt x="249" y="112" on="0"/>
        <pt x="314" y="84" on="0"/>
        <pt x="351" y="84" on="1"/>
        <pt x="388" y="84" on="0"/>
        <pt x="452" y="112" on="0"/>
        <pt x="499" y="169" on="0"/>
        <pt x="526" y="255" on="0"/>
        <pt x="526" y="314" on="1"/>
        <pt x="526" y="374" on="0"/>
        <pt x="498" y="462" on="0"/>
        <pt x="449" y="519" on="0"/>
        <pt x="384" y="546" on="0"/>
        <pt x="347" y="546" on="1"/>
        <pt x="310" y="546" on="0"/>
        <pt x="246" y="517" on="0"/>
        <pt x="199" y="460" on="0"/>
        <pt x="172" y="372" on="0"/>
      </contour>
    </TTGlyph>
    <TTGlyph name="OE" xMin="42" yMin="-10" xMax="827" yMax="640">
      <contour>
        <pt x="344" y="-10" on="1"/>
        <pt x="278" y="-10" on="0"/>
        <pt x="167" y="31" on="0"/>
        <pt x="87" y="113" on="0"/>
        <pt x="42" y="234" on="0"/>
        <pt x="42" y="315" on="1"/>
        <pt x="42" y="392" on="0"/>
        <pt x="87" y="513" on="0"/>
        <pt x="168" y="596" on="0"/>
        <pt x="280" y="640" on="0"/>
        <pt x="346" y="640" on="1"/>
        <pt x="371" y="640" on="0"/>
        <pt x="422" y="635" on="0"/>
        <pt x="444" y="630" on="1"/>
        <pt x="824" y="630" on="1"/>
        <pt x="824" y="534" on="1"/>
        <pt x="551" y="534" on="1"/>
        <pt x="551" y="375" on="1"/>
        <pt x="798" y="375" on="1"/>
        <pt x="798" y="280" on="1"/>
        <pt x="551" y="280" on="1"/>
        <pt x="551" y="96" on="1"/>
        <pt x="827" y="96" on="1"/>
        <pt x="827" y="0" on="1"/>
        <pt x="440" y="0" on="1"/>
        <pt x="417" y="-5" on="0"/>
        <pt x="367" y="-10" on="0"/>
      </contour>
      <contour>
        <pt x="347" y="546" on="1"/>
        <pt x="308" y="546" on="0"/>
        <pt x="244" y="518" on="0"/>
        <pt x="198" y="461" on="0"/>
        <pt x="172" y="374" on="0"/>
        <pt x="172" y="316" on="1"/>
        <pt x="172" y="257" on="0"/>
        <pt x="198" y="170" on="0"/>
        <pt x="245" y="113" on="0"/>
        <pt x="309" y="84" on="0"/>
        <pt x="348" y="84" on="1"/>
        <pt x="369" y="84" on="0"/>
        <pt x="411" y="92" on="0"/>
        <pt x="429" y="102" on="1"/>
        <pt x="429" y="529" on="1"/>
        <pt x="410" y="538" on="0"/>
        <pt x="369" y="546" on="0"/>
      </contour>
    </TTGlyph>
    <TTGlyph name="Oacute" xMin="42" yMin="-10" xMax="656" yMax="824">
      <contour>
        <pt x="351" y="640" on="1"/>
        <pt x="417" y="640" on="0"/>
        <pt x="529" y="597" on="0"/>
        <pt x="610" y="514" on="0"/>
        <pt x="656" y="393" on="0"/>
        <pt x="656" y="314" on="1"/>
        <pt x="656" y="237" on="0"/>
        <pt x="609" y="117" on="0"/>
        <pt x="526" y="34" on="0"/>
        <pt x="413" y="-10" on="0"/>
        <pt x="347" y="-10" on="1"/>
        <pt x="281" y="-10" on="0"/>
        <pt x="169" y="32" on="0"/>
        <pt x="88" y="114" on="0"/>
        <pt x="42" y="235" on="0"/>
        <pt x="42" y="314" on="1"/>
        <pt x="42" y="391" on="0"/>
        <pt x="89" y="512" on="0"/>
        <pt x="172" y="596" on="0"/>
        <pt x="285" y="640" on="0"/>
      </contour>
      <contour>
        <pt x="172" y="314" on="1"/>
        <pt x="172" y="255" on="0"/>
        <pt x="200" y="169" on="0"/>
        <pt x="249" y="112" on="0"/>
        <pt x="314" y="84" on="0"/>
        <pt x="351" y="84" on="1"/>
        <pt x="388" y="84" on="0"/>
        <pt x="452" y="112" on="0"/>
        <pt x="499" y="169" on="0"/>
        <pt x="526" y="255" on="0"/>
        <pt x="526" y="314" on="1"/>
        <pt x="526" y="374" on="0"/>
        <pt x="498" y="462" on="0"/>
        <pt x="449" y="519" on="0"/>
        <pt x="384" y="546" on="0"/>
        <pt x="347" y="546" on="1"/>
        <pt x="310" y="546" on="0"/>
        <pt x="246" y="517" on="0"/>
        <pt x="199" y="460" on="0"/>
        <pt x="172" y="372" on="0"/>
      </contour>
      <contour>
        <pt x="345" y="700" on="1"/>
        <pt x="248" y="700" on="1"/>
        <pt x="328" y="824" on="1"/>
        <pt x="459" y="824" on="1"/>
      </contour>
    </TTGlyph>
    <TTGlyph name="Obreve" xMin="42" yMin="-10" xMax="656" yMax="824">
      <contour>
        <pt x="351" y="640" on="1"/>
        <pt x="417" y="640" on="0"/>
        <pt x="529" y="597" on="0"/>
        <pt x="610" y="514" on="0"/>
        <pt x="656" y="393" on="0"/>
        <pt x="656" y="314" on="1"/>
        <pt x="656" y="237" on="0"/>
        <pt x="609" y="117" on="0"/>
        <pt x="526" y="34" on="0"/>
        <pt x="413" y="-10" on="0"/>
        <pt x="347" y="-10" on="1"/>
        <pt x="281" y="-10" on="0"/>
        <pt x="169" y="32" on="0"/>
        <pt x="88" y="114" on="0"/>
        <pt x="42" y="235" on="0"/>
        <pt x="42" y="314" on="1"/>
        <pt x="42" y="391" on="0"/>
        <pt x="89" y="512" on="0"/>
        <pt x="172" y="596" on="0"/>
        <pt x="285" y="640" on="0"/>
      </contour>
      <contour>
        <pt x="172" y="314" on="1"/>
        <pt x="172" y="255" on="0"/>
        <pt x="200" y="169" on="0"/>
        <pt x="249" y="112" on="0"/>
        <pt x="314" y="84" on="0"/>
        <pt x="351" y="84" on="1"/>
        <pt x="388" y="84" on="0"/>
        <pt x="452" y="112" on="0"/>
        <pt x="499" y="169" on="0"/>
        <pt x="526" y="255" on="0"/>
        <pt x="526" y="314" on="1"/>
        <pt x="526" y="374" on="0"/>
        <pt x="498" y="462" on="0"/>
        <pt x="449" y="519" on="0"/>
        <pt x="384" y="546" on="0"/>
        <pt x="347" y="546" on="1"/>
        <pt x="310" y="546" on="0"/>
        <pt x="246" y="517" on="0"/>
        <pt x="199" y="460" on="0"/>
        <pt x="172" y="372" on="0"/>
      </contour>
      <contour>
        <pt x="285" y="824" on="1"/>
        <pt x="287" y="796" on="0"/>
        <pt x="314" y="764" on="0"/>
        <pt x="348" y="764" on="1"/>
        <pt x="404" y="764" on="0"/>
        <pt x="409" y="824" on="1"/>
        <pt x="481" y="824" on="1"/>
        <pt x="481" y="766" on="0"/>
        <pt x="412" y="697" on="0"/>
        <pt x="347" y="697" on="1"/>
        <pt x="311" y="697" on="0"/>
        <pt x="260" y="718" on="0"/>
        <pt x="227" y="753" on="0"/>
        <pt x="212" y="799" on="0"/>
        <pt x="212" y="824" on="1"/>
      </contour>
    </TTGlyph>
    <TTGlyph name="Ocircumflex" xMin="42" yMin="-10" xMax="656" yMax="829">
      <contour>
        <pt x="351" y="640" on="1"/>
        <pt x="417" y="640" on="0"/>
        <pt x="529" y="597" on="0"/>
        <pt x="610" y="514" on="0"/>
        <pt x="656" y="393" on="0"/>
        <pt x="656" y="314" on="1"/>
        <pt x="656" y="237" on="0"/>
        <pt x="609" y="117" on="0"/>
        <pt x="526" y="34" on="0"/>
        <pt x="413" y="-10" on="0"/>
        <pt x="347" y="-10" on="1"/>
        <pt x="281" y="-10" on="0"/>
        <pt x="169" y="32" on="0"/>
        <pt x="88" y="114" on="0"/>
        <pt x="42" y="235" on="0"/>
        <pt x="42" y="314" on="1"/>
        <pt x="42" y="391" on="0"/>
        <pt x="89" y="512" on="0"/>
        <pt x="172" y="596" on="0"/>
        <pt x="285" y="640" on="0"/>
      </contour>
      <contour>
        <pt x="172" y="314" on="1"/>
        <pt x="172" y="255" on="0"/>
        <pt x="200" y="169" on="0"/>
        <pt x="249" y="112" on="0"/>
        <pt x="314" y="84" on="0"/>
        <pt x="351" y="84" on="1"/>
        <pt x="388" y="84" on="0"/>
        <pt x="452" y="112" on="0"/>
        <pt x="499" y="169" on="0"/>
        <pt x="526" y="255" on="0"/>
        <pt x="526" y="314" on="1"/>
        <pt x="526" y="374" on="0"/>
        <pt x="498" y="462" on="0"/>
        <pt x="449" y="519" on="0"/>
        <pt x="384" y="546" on="0"/>
        <pt x="347" y="546" on="1"/>
        <pt x="310" y="546" on="0"/>
        <pt x="246" y="517" on="0"/>
        <pt x="199" y="460" on="0"/>
        <pt x="172" y="372" on="0"/>
      </contour>
      <contour>
        <pt x="306" y="829" on="1"/>
        <pt x="395" y="829" on="1"/>
        <pt x="515" y="700" on="1"/>
        <pt x="420" y="700" on="1"/>
        <pt x="350" y="774" on="1"/>
        <pt x="280" y="700" on="1"/>
        <pt x="189" y="700" on="1"/>
      </contour>
    </TTGlyph>
    <TTGlyph name="Odieresis" xMin="42" yMin="-10" xMax="656" yMax="812">
      <contour>
        <pt x="351" y="640" on="1"/>
        <pt x="417" y="640" on="0"/>
        <pt x="529" y="597" on="0"/>
        <pt x="610" y="514" on="0"/>
        <pt x="656" y="393" on="0"/>
        <pt x="656" y="314" on="1"/>
        <pt x="656" y="237" on="0"/>
        <pt x="609" y="117" on="0"/>
        <pt x="526" y="34" on="0"/>
        <pt x="413" y="-10" on="0"/>
        <pt x="347" y="-10" on="1"/>
        <pt x="281" y="-10" on="0"/>
        <pt x="169" y="32" on="0"/>
        <pt x="88" y="114" on="0"/>
        <pt x="42" y="235" on="0"/>
        <pt x="42" y="314" on="1"/>
        <pt x="42" y="391" on="0"/>
        <pt x="89" y="512" on="0"/>
        <pt x="172" y="596" on="0"/>
        <pt x="285" y="640" on="0"/>
      </contour>
      <contour>
        <pt x="172" y="314" on="1"/>
        <pt x="172" y="255" on="0"/>
        <pt x="200" y="169" on="0"/>
        <pt x="249" y="112" on="0"/>
        <pt x="314" y="84" on="0"/>
        <pt x="351" y="84" on="1"/>
        <pt x="388" y="84" on="0"/>
        <pt x="452" y="112" on="0"/>
        <pt x="499" y="169" on="0"/>
        <pt x="526" y="255" on="0"/>
        <pt x="526" y="314" on="1"/>
        <pt x="526" y="374" on="0"/>
        <pt x="498" y="462" on="0"/>
        <pt x="449" y="519" on="0"/>
        <pt x="384" y="546" on="0"/>
        <pt x="347" y="546" on="1"/>
        <pt x="310" y="546" on="0"/>
        <pt x="246" y="517" on="0"/>
        <pt x="199" y="460" on="0"/>
        <pt x="172" y="372" on="0"/>
      </contour>
      <contour>
        <pt x="198" y="754" on="1"/>
        <pt x="198" y="777" on="0"/>
        <pt x="232" y="812" on="0"/>
        <pt x="257" y="812" on="1"/>
        <pt x="281" y="812" on="0"/>
        <pt x="315" y="777" on="0"/>
        <pt x="315" y="754" on="1"/>
        <pt x="315" y="729" on="0"/>
        <pt x="281" y="694" on="0"/>
        <pt x="257" y="694" on="1"/>
        <pt x="232" y="694" on="0"/>
        <pt x="198" y="729" on="0"/>
      </contour>
      <contour>
        <pt x="383" y="754" on="1"/>
        <pt x="383" y="777" on="0"/>
        <pt x="418" y="812" on="0"/>
        <pt x="442" y="812" on="1"/>
        <pt x="467" y="812" on="0"/>
        <pt x="501" y="777" on="0"/>
        <pt x="501" y="754" on="1"/>
        <pt x="501" y="729" on="0"/>
        <pt x="467" y="694" on="0"/>
        <pt x="442" y="694" on="1"/>
        <pt x="418" y="694" on="0"/>
        <pt x="383" y="729" on="0"/>
      </contour>
    </TTGlyph>
    <TTGlyph name="Ogonek" xMin="27" yMin="-206" xMax="218" yMax="0">
      <contour>
        <pt x="88" y="0" on="1"/>
        <pt x="179" y="0" on="1"/>
        <pt x="148" y="-20" on="0"/>
        <pt x="109" y="-59" on="0"/>
        <pt x="109" y="-85" on="1"/>
        <pt x="109" y="-107" on="0"/>
        <pt x="135" y="-131" on="0"/>
        <pt x="157" y="-131" on="1"/>
        <pt x="182" y="-131" on="0"/>
        <pt x="201" y="-123" on="1"/>
        <pt x="218" y="-185" on="1"/>
        <pt x="201" y="-195" on="0"/>
        <pt x="158" y="-206" on="0"/>
        <pt x="134" y="-206" on="1"/>
        <pt x="88" y="-206" on="0"/>
        <pt x="27" y="-154" on="0"/>
        <pt x="27" y="-107" on="1"/>
        <pt x="27" y="-69" on="0"/>
        <pt x="67" y="-16" on="0"/>
      </contour>
    </TTGlyph>
    <TTGlyph name="Ograve" xMin="42" yMin="-10" xMax="656" yMax="824">
      <contour>
        <pt x="351" y="640" on="1"/>
        <pt x="417" y="640" on="0"/>
        <pt x="529" y="597" on="0"/>
        <pt x="610" y="514" on="0"/>
        <pt x="656" y="393" on="0"/>
        <pt x="656" y="314" on="1"/>
        <pt x="656" y="237" on="0"/>
        <pt x="609" y="117" on="0"/>
        <pt x="526" y="34" on="0"/>
        <pt x="413" y="-10" on="0"/>
        <pt x="347" y="-10" on="1"/>
        <pt x="281" y="-10" on="0"/>
        <pt x="169" y="32" on="0"/>
        <pt x="88" y="114" on="0"/>
        <pt x="42" y="235" on="0"/>
        <pt x="42" y="314" on="1"/>
        <pt x="42" y="391" on="0"/>
        <pt x="89" y="512" on="0"/>
        <pt x="172" y="596" on="0"/>
        <pt x="285" y="640" on="0"/>
      </contour>
      <contour>
        <pt x="172" y="314" on="1"/>
        <pt x="172" y="255" on="0"/>
        <pt x="200" y="169" on="0"/>
        <pt x="249" y="112" on="0"/>
        <pt x="314" y="84" on="0"/>
        <pt x="351" y="84" on="1"/>
        <pt x="388" y="84" on="0"/>
        <pt x="452" y="112" on="0"/>
        <pt x="499" y="169" on="0"/>
        <pt x="526" y="255" on="0"/>
        <pt x="526" y="314" on="1"/>
        <pt x="526" y="374" on="0"/>
        <pt x="498" y="462" on="0"/>
        <pt x="449" y="519" on="0"/>
        <pt x="384" y="546" on="0"/>
        <pt x="347" y="546" on="1"/>
        <pt x="310" y="546" on="0"/>
        <pt x="246" y="517" on="0"/>
        <pt x="199" y="460" on="0"/>
        <pt x="172" y="372" on="0"/>
      </contour>
      <contour>
        <pt x="234" y="824" on="1"/>
        <pt x="365" y="824" on="1"/>
        <pt x="445" y="700" on="1"/>
        <pt x="348" y="700" on="1"/>
      </contour>
    </TTGlyph>
    <TTGlyph name="Ohungarumlaut" xMin="42" yMin="-10" xMax="656" yMax="824">
      <contour>
        <pt x="351" y="640" on="1"/>
        <pt x="417" y="640" on="0"/>
        <pt x="529" y="597" on="0"/>
        <pt x="610" y="514" on="0"/>
        <pt x="656" y="393" on="0"/>
        <pt x="656" y="314" on="1"/>
        <pt x="656" y="237" on="0"/>
        <pt x="609" y="117" on="0"/>
        <pt x="526" y="34" on="0"/>
        <pt x="413" y="-10" on="0"/>
        <pt x="347" y="-10" on="1"/>
        <pt x="281" y="-10" on="0"/>
        <pt x="169" y="32" on="0"/>
        <pt x="88" y="114" on="0"/>
        <pt x="42" y="235" on="0"/>
        <pt x="42" y="314" on="1"/>
        <pt x="42" y="391" on="0"/>
        <pt x="89" y="512" on="0"/>
        <pt x="172" y="596" on="0"/>
        <pt x="285" y="640" on="0"/>
      </contour>
      <contour>
        <pt x="172" y="314" on="1"/>
        <pt x="172" y="255" on="0"/>
        <pt x="200" y="169" on="0"/>
        <pt x="249" y="112" on="0"/>
        <pt x="314" y="84" on="0"/>
        <pt x="351" y="84" on="1"/>
        <pt x="388" y="84" on="0"/>
        <pt x="452" y="112" on="0"/>
        <pt x="499" y="169" on="0"/>
        <pt x="526" y="255" on="0"/>
        <pt x="526" y="314" on="1"/>
        <pt x="526" y="374" on="0"/>
        <pt x="498" y="462" on="0"/>
        <pt x="449" y="519" on="0"/>
        <pt x="384" y="546" on="0"/>
        <pt x="347" y="546" on="1"/>
        <pt x="310" y="546" on="0"/>
        <pt x="246" y="517" on="0"/>
        <pt x="199" y="460" on="0"/>
        <pt x="172" y="372" on="0"/>
      </contour>
      <contour>
        <pt x="270" y="700" on="1"/>
        <pt x="178" y="700" on="1"/>
        <pt x="258" y="824" on="1"/>
        <pt x="379" y="824" on="1"/>
      </contour>
      <contour>
        <pt x="472" y="700" on="1"/>
        <pt x="380" y="700" on="1"/>
        <pt x="460" y="824" on="1"/>
        <pt x="580" y="824" on="1"/>
      </contour>
    </TTGlyph>
    <TTGlyph name="Omacron" xMin="42" yMin="-10" xMax="656" yMax="772">
      <contour>
        <pt x="351" y="640" on="1"/>
        <pt x="417" y="640" on="0"/>
        <pt x="529" y="597" on="0"/>
        <pt x="610" y="514" on="0"/>
        <pt x="656" y="393" on="0"/>
        <pt x="656" y="314" on="1"/>
        <pt x="656" y="237" on="0"/>
        <pt x="609" y="117" on="0"/>
        <pt x="526" y="34" on="0"/>
        <pt x="413" y="-10" on="0"/>
        <pt x="347" y="-10" on="1"/>
        <pt x="281" y="-10" on="0"/>
        <pt x="169" y="32" on="0"/>
        <pt x="88" y="114" on="0"/>
        <pt x="42" y="235" on="0"/>
        <pt x="42" y="314" on="1"/>
        <pt x="42" y="391" on="0"/>
        <pt x="89" y="512" on="0"/>
        <pt x="172" y="596" on="0"/>
        <pt x="285" y="640" on="0"/>
      </contour>
      <contour>
        <pt x="172" y="314" on="1"/>
        <pt x="172" y="255" on="0"/>
        <pt x="200" y="169" on="0"/>
        <pt x="249" y="112" on="0"/>
        <pt x="314" y="84" on="0"/>
        <pt x="351" y="84" on="1"/>
        <pt x="388" y="84" on="0"/>
        <pt x="452" y="112" on="0"/>
        <pt x="499" y="169" on="0"/>
        <pt x="526" y="255" on="0"/>
        <pt x="526" y="314" on="1"/>
        <pt x="526" y="374" on="0"/>
        <pt x="498" y="462" on="0"/>
        <pt x="449" y="519" on="0"/>
        <pt x="384" y="546" on="0"/>
        <pt x="347" y="546" on="1"/>
        <pt x="310" y="546" on="0"/>
        <pt x="246" y="517" on="0"/>
        <pt x="199" y="460" on="0"/>
        <pt x="172" y="372" on="0"/>
      </contour>
      <contour>
        <pt x="478" y="772" on="1"/>
        <pt x="478" y="700" on="1"/>
        <pt x="225" y="700" on="1"/>
        <pt x="225" y="772" on="1"/>
      </contour>
    </TTGlyph>
    <TTGlyph name="Oslash" xMin="42" yMin="-158" xMax="656" yMax="752">
      <contour>
        <pt x="511" y="752" on="1"/>
        <pt x="566" y="729" on="1"/>
        <pt x="511" y="600" on="1"/>
        <pt x="577" y="562" on="0"/>
        <pt x="656" y="420" on="0"/>
        <pt x="656" y="314" on="1"/>
        <pt x="656" y="237" on="0"/>
        <pt x="609" y="117" on="0"/>
        <pt x="526" y="34" on="0"/>
        <pt x="413" y="-10" on="0"/>
        <pt x="347" y="-10" on="1"/>
        <pt x="322" y="-10" on="0"/>
        <pt x="272" y="-3" on="0"/>
        <pt x="251" y="2" on="1"/>
        <pt x="183" y="-158" on="1"/>
        <pt x="128" y="-134" on="1"/>
        <pt x="195" y="24" on="1"/>
        <pt x="125" y="62" on="0"/>
        <pt x="42" y="205" on="0"/>
        <pt x="42" y="314" on="1"/>
        <pt x="42" y="391" on="0"/>
        <pt x="89" y="512" on="0"/>
        <pt x="172" y="596" on="0"/>
        <pt x="285" y="640" on="0"/>
        <pt x="351" y="640" on="1"/>
        <pt x="378" y="640" on="0"/>
        <pt x="432" y="632" on="0"/>
        <pt x="456" y="624" on="1"/>
      </contour>
      <contour>
        <pt x="172" y="314" on="1"/>
        <pt x="172" y="242" on="0"/>
        <pt x="209" y="147" on="0"/>
        <pt x="240" y="121" on="1"/>
        <pt x="413" y="535" on="1"/>
        <pt x="382" y="546" on="0"/>
        <pt x="347" y="546" on="1"/>
        <pt x="310" y="546" on="0"/>
        <pt x="246" y="517" on="0"/>
        <pt x="199" y="460" on="0"/>
        <pt x="172" y="372" on="0"/>
      </contour>
      <contour>
        <pt x="351" y="84" on="1"/>
        <pt x="388" y="84" on="0"/>
        <pt x="452" y="112" on="0"/>
        <pt x="499" y="169" on="0"/>
        <pt x="526" y="255" on="0"/>
        <pt x="526" y="314" on="1"/>
        <pt x="526" y="383" on="0"/>
        <pt x="493" y="474" on="0"/>
        <pt x="464" y="501" on="1"/>
        <pt x="294" y="92" on="1"/>
        <pt x="308" y="87" on="0"/>
        <pt x="336" y="84" on="0"/>
      </contour>
    </TTGlyph>
    <TTGlyph name="Oslashacute" xMin="42" yMin="-158" xMax="656" yMax="824">
      <contour>
        <pt x="340" y="700" on="1"/>
        <pt x="243" y="700" on="1"/>
        <pt x="323" y="824" on="1"/>
        <pt x="454" y="824" on="1"/>
      </contour>
      <contour>
        <pt x="511" y="752" on="1"/>
        <pt x="566" y="729" on="1"/>
        <pt x="511" y="600" on="1"/>
        <pt x="577" y="562" on="0"/>
        <pt x="656" y="420" on="0"/>
        <pt x="656" y="314" on="1"/>
        <pt x="656" y="237" on="0"/>
        <pt x="609" y="117" on="0"/>
        <pt x="526" y="34" on="0"/>
        <pt x="413" y="-10" on="0"/>
        <pt x="347" y="-10" on="1"/>
        <pt x="322" y="-10" on="0"/>
        <pt x="272" y="-3" on="0"/>
        <pt x="251" y="2" on="1"/>
        <pt x="183" y="-158" on="1"/>
        <pt x="128" y="-134" on="1"/>
        <pt x="195" y="24" on="1"/>
        <pt x="125" y="62" on="0"/>
        <pt x="42" y="205" on="0"/>
        <pt x="42" y="314" on="1"/>
        <pt x="42" y="391" on="0"/>
        <pt x="89" y="512" on="0"/>
        <pt x="172" y="596" on="0"/>
        <pt x="285" y="640" on="0"/>
        <pt x="351" y="640" on="1"/>
        <pt x="378" y="640" on="0"/>
        <pt x="432" y="632" on="0"/>
        <pt x="456" y="624" on="1"/>
      </contour>
      <contour>
        <pt x="172" y="314" on="1"/>
        <pt x="172" y="242" on="0"/>
        <pt x="209" y="147" on="0"/>
        <pt x="240" y="121" on="1"/>
        <pt x="413" y="535" on="1"/>
        <pt x="382" y="546" on="0"/>
        <pt x="347" y="546" on="1"/>
        <pt x="310" y="546" on="0"/>
        <pt x="246" y="517" on="0"/>
        <pt x="199" y="460" on="0"/>
        <pt x="172" y="372" on="0"/>
      </contour>
      <contour>
        <pt x="351" y="84" on="1"/>
        <pt x="388" y="84" on="0"/>
        <pt x="452" y="112" on="0"/>
        <pt x="499" y="169" on="0"/>
        <pt x="526" y="255" on="0"/>
        <pt x="526" y="314" on="1"/>
        <pt x="526" y="383" on="0"/>
        <pt x="493" y="474" on="0"/>
        <pt x="464" y="501" on="1"/>
        <pt x="294" y="92" on="1"/>
        <pt x="308" y="87" on="0"/>
        <pt x="336" y="84" on="0"/>
      </contour>
    </TTGlyph>
    <TTGlyph name="Osmall" xMin="42" yMin="-10" xMax="522" yMax="484">
      <contour>
        <pt x="522" y="241" on="1"/>
        <pt x="522" y="182" on="0"/>
        <pt x="485" y="88" on="0"/>
        <pt x="419" y="24" on="0"/>
        <pt x="331" y="-10" on="0"/>
        <pt x="280" y="-10" on="1"/>
        <pt x="229" y="-10" on="0"/>
        <pt x="142" y="22" on="0"/>
        <pt x="78" y="83" on="0"/>
        <pt x="42" y="173" on="0"/>
        <pt x="42" y="231" on="1"/>
        <pt x="42" y="291" on="0"/>
        <pt x="79" y="386" on="0"/>
        <pt x="145" y="450" on="0"/>
        <pt x="233" y="484" on="0"/>
        <pt x="284" y="484" on="1"/>
        <pt x="335" y="484" on="0"/>
        <pt x="422" y="453" on="0"/>
        <pt x="486" y="391" on="0"/>
        <pt x="522" y="301" on="0"/>
      </contour>
      <contour>
        <pt x="400" y="236" on="1"/>
        <pt x="400" y="279" on="0"/>
        <pt x="380" y="340" on="0"/>
        <pt x="347" y="378" on="0"/>
        <pt x="304" y="396" on="0"/>
        <pt x="281" y="396" on="1"/>
        <pt x="258" y="396" on="0"/>
        <pt x="216" y="381" on="0"/>
        <pt x="184" y="344" on="0"/>
        <pt x="164" y="282" on="0"/>
        <pt x="164" y="236" on="1"/>
        <pt x="164" y="194" on="0"/>
        <pt x="184" y="135" on="0"/>
        <pt x="217" y="96" on="0"/>
        <pt x="260" y="78" on="0"/>
        <pt x="283" y="78" on="1"/>
        <pt x="305" y="78" on="0"/>
        <pt x="348" y="94" on="0"/>
        <pt x="380" y="130" on="0"/>
        <pt x="400" y="191" on="0"/>
      </contour>
    </TTGlyph>
    <TTGlyph name="Otilde" xMin="42" yMin="-10" xMax="656" yMax="819">
      <contour>
        <pt x="351" y="640" on="1"/>
        <pt x="417" y="640" on="0"/>
        <pt x="529" y="597" on="0"/>
        <pt x="610" y="514" on="0"/>
        <pt x="656" y="393" on="0"/>
        <pt x="656" y="314" on="1"/>
        <pt x="656" y="237" on="0"/>
        <pt x="609" y="117" on="0"/>
        <pt x="526" y="34" on="0"/>
        <pt x="413" y="-10" on="0"/>
        <pt x="347" y="-10" on="1"/>
        <pt x="281" y="-10" on="0"/>
        <pt x="169" y="32" on="0"/>
        <pt x="88" y="114" on="0"/>
        <pt x="42" y="235" on="0"/>
        <pt x="42" y="314" on="1"/>
        <pt x="42" y="391" on="0"/>
        <pt x="89" y="512" on="0"/>
        <pt x="172" y="596" on="0"/>
        <pt x="285" y="640" on="0"/>
      </contour>
      <contour>
        <pt x="172" y="314" on="1"/>
        <pt x="172" y="255" on="0"/>
        <pt x="200" y="169" on="0"/>
        <pt x="249" y="112" on="0"/>
        <pt x="314" y="84" on="0"/>
        <pt x="351" y="84" on="1"/>
        <pt x="388" y="84" on="0"/>
        <pt x="452" y="112" on="0"/>
        <pt x="499" y="169" on="0"/>
        <pt x="526" y="255" on="0"/>
        <pt x="526" y="314" on="1"/>
        <pt x="526" y="374" on="0"/>
        <pt x="498" y="462" on="0"/>
        <pt x="449" y="519" on="0"/>
        <pt x="384" y="546" on="0"/>
        <pt x="347" y="546" on="1"/>
        <pt x="310" y="546" on="0"/>
        <pt x="246" y="517" on="0"/>
        <pt x="199" y="460" on="0"/>
        <pt x="172" y="372" on="0"/>
      </contour>
      <contour>
        <pt x="194" y="700" on="1"/>
        <pt x="194" y="748" on="0"/>
        <pt x="238" y="816" on="0"/>
        <pt x="283" y="816" on="1"/>
        <pt x="302" y="816" on="0"/>
        <pt x="334" y="804" on="0"/>
        <pt x="361" y="789" on="0"/>
        <pt x="387" y="777" on="0"/>
        <pt x="402" y="777" on="1"/>
        <pt x="419" y="777" on="0"/>
        <pt x="435" y="802" on="0"/>
        <pt x="437" y="819" on="1"/>
        <pt x="497" y="819" on="1"/>
        <pt x="497" y="771" on="0"/>
        <pt x="453" y="704" on="0"/>
        <pt x="411" y="704" on="1"/>
        <pt x="391" y="704" on="0"/>
        <pt x="356" y="716" on="0"/>
        <pt x="326" y="730" on="0"/>
        <pt x="299" y="742" on="0"/>
        <pt x="288" y="742" on="1"/>
        <pt x="270" y="742" on="0"/>
        <pt x="255" y="717" on="0"/>
        <pt x="254" y="700" on="1"/>
      </contour>
    </TTGlyph>
    <TTGlyph name="P" xMin="73" yMin="0" xMax="520" yMax="630">
      <contour>
        <pt x="73" y="630" on="1"/>
        <pt x="286" y="630" on="1"/>
        <pt x="339" y="630" on="0"/>
        <pt x="425" y="604" on="0"/>
        <pt x="487" y="555" on="0"/>
        <pt x="520" y="484" on="0"/>
        <pt x="520" y="438" on="1"/>
        <pt x="520" y="385" on="0"/>
        <pt x="482" y="309" on="0"/>
        <pt x="416" y="258" on="0"/>
        <pt x="326" y="234" on="0"/>
        <pt x="274" y="234" on="1"/>
        <pt x="195" y="234" on="1"/>
        <pt x="195" y="0" on="1"/>
        <pt x="73" y="0" on="1"/>
      </contour>
      <contour>
        <pt x="195" y="329" on="1"/>
        <pt x="251" y="329" on="1"/>
        <pt x="281" y="329" on="0"/>
        <pt x="333" y="339" on="0"/>
        <pt x="372" y="363" on="0"/>
        <pt x="394" y="403" on="0"/>
        <pt x="394" y="433" on="1"/>
        <pt x="394" y="460" on="0"/>
        <pt x="374" y="499" on="0"/>
        <pt x="339" y="524" on="0"/>
        <pt x="293" y="536" on="0"/>
        <pt x="268" y="536" on="1"/>
        <pt x="195" y="536" on="1"/>
      </contour>
    </TTGlyph>
    <TTGlyph name="Psmall" xMin="69" yMin="0" xMax="440" yMax="475">
      <contour>
        <pt x="69" y="475" on="1"/>
        <pt x="260" y="475" on="1"/>
        <pt x="296" y="475" on="0"/>
        <pt x="362" y="455" on="0"/>
        <pt x="411" y="416" on="0"/>
        <pt x="440" y="361" on="0"/>
        <pt x="440" y="325" on="1"/>
        <pt x="440" y="274" on="0"/>
        <pt x="401" y="210" on="0"/>
        <pt x="338" y="175" on="0"/>
        <pt x="261" y="162" on="0"/>
        <pt x="223" y="162" on="1"/>
        <pt x="187" y="162" on="1"/>
        <pt x="187" y="0" on="1"/>
        <pt x="69" y="0" on="1"/>
      </contour>
      <contour>
        <pt x="186" y="250" on="1"/>
        <pt x="226" y="250" on="1"/>
        <pt x="242" y="250" on="0"/>
        <pt x="276" y="256" on="0"/>
        <pt x="303" y="272" on="0"/>
        <pt x="320" y="300" on="0"/>
        <pt x="320" y="322" on="1"/>
        <pt x="320" y="342" on="0"/>
        <pt x="304" y="368" on="0"/>
        <pt x="278" y="382" on="0"/>
        <pt x="245" y="387" on="0"/>
        <pt x="229" y="387" on="1"/>
        <pt x="186" y="387" on="1"/>
      </contour>
    </TTGlyph>
    <TTGlyph name="Q" xMin="42" yMin="-207" xMax="678" yMax="640">
      <contour>
        <pt x="350" y="640" on="1"/>
        <pt x="416" y="640" on="0"/>
        <pt x="528" y="597" on="0"/>
        <pt x="610" y="514" on="0"/>
        <pt x="656" y="393" on="0"/>
        <pt x="656" y="314" on="1"/>
        <pt x="656" y="206" on="0"/>
        <pt x="562" y="52" on="0"/>
        <pt x="472" y="1" on="1"/>
        <pt x="348" y="-68" on="1"/>
        <pt x="373" y="-69" on="0"/>
        <pt x="418" y="-83" on="0"/>
        <pt x="464" y="-98" on="0"/>
        <pt x="516" y="-111" on="0"/>
        <pt x="547" y="-111" on="1"/>
        <pt x="570" y="-111" on="0"/>
        <pt x="618" y="-97" on="0"/>
        <pt x="634" y="-84" on="1"/>
        <pt x="678" y="-168" on="1"/>
        <pt x="658" y="-183" on="0"/>
        <pt x="591" y="-207" on="0"/>
        <pt x="549" y="-207" on="1"/>
        <pt x="509" y="-207" on="0"/>
        <pt x="436" y="-188" on="0"/>
        <pt x="369" y="-165" on="0"/>
        <pt x="304" y="-146" on="0"/>
        <pt x="271" y="-146" on="1"/>
        <pt x="242" y="-146" on="0"/>
        <pt x="194" y="-161" on="0"/>
        <pt x="168" y="-176" on="1"/>
        <pt x="124" y="-95" on="1"/>
        <pt x="284" y="-3" on="1"/>
        <pt x="229" y="6" on="0"/>
        <pt x="140" y="56" on="0"/>
        <pt x="77" y="137" on="0"/>
        <pt x="42" y="246" on="0"/>
        <pt x="42" y="314" on="1"/>
        <pt x="42" y="391" on="0"/>
        <pt x="89" y="512" on="0"/>
        <pt x="171" y="596" on="0"/>
        <pt x="284" y="640" on="0"/>
      </contour>
      <contour>
        <pt x="172" y="315" on="1"/>
        <pt x="172" y="256" on="0"/>
        <pt x="198" y="168" on="0"/>
        <pt x="245" y="110" on="0"/>
        <pt x="308" y="80" on="0"/>
        <pt x="345" y="80" on="1"/>
        <pt x="382" y="80" on="0"/>
        <pt x="448" y="111" on="0"/>
        <pt x="498" y="170" on="0"/>
        <pt x="526" y="258" on="0"/>
        <pt x="526" y="315" on="1"/>
        <pt x="526" y="375" on="0"/>
        <pt x="498" y="463" on="0"/>
        <pt x="449" y="519" on="0"/>
        <pt x="384" y="546" on="0"/>
        <pt x="347" y="546" on="1"/>
        <pt x="310" y="546" on="0"/>
        <pt x="246" y="518" on="0"/>
        <pt x="199" y="460" on="0"/>
        <pt x="172" y="373" on="0"/>
      </contour>
    </TTGlyph>
    <TTGlyph name="Qsmall" xMin="42" yMin="-137" xMax="568" yMax="484">
      <contour>
        <pt x="522" y="240" on="1"/>
        <pt x="522" y="189" on="0"/>
        <pt x="493" y="106" on="0"/>
        <pt x="443" y="44" on="0"/>
        <pt x="376" y="4" on="0"/>
        <pt x="338" y="-4" on="1"/>
        <pt x="338" y="-7" on="1"/>
        <pt x="354" y="-10" on="0"/>
        <pt x="383" y="-23" on="0"/>
        <pt x="413" y="-37" on="0"/>
        <pt x="446" y="-48" on="0"/>
        <pt x="468" y="-48" on="1"/>
        <pt x="492" y="-48" on="0"/>
        <pt x="522" y="-38" on="0"/>
        <pt x="536" y="-30" on="1"/>
        <pt x="568" y="-114" on="1"/>
        <pt x="554" y="-122" on="0"/>
        <pt x="504" y="-137" on="0"/>
        <pt x="474" y="-137" on="1"/>
        <pt x="439" y="-137" on="0"/>
        <pt x="384" y="-119" on="0"/>
        <pt x="336" y="-97" on="0"/>
        <pt x="288" y="-79" on="0"/>
        <pt x="259" y="-79" on="1"/>
        <pt x="224" y="-79" on="0"/>
        <pt x="170" y="-101" on="0"/>
        <pt x="147" y="-117" on="1"/>
        <pt x="105" y="-37" on="1"/>
        <pt x="124" y="-22" on="0"/>
        <pt x="174" y="-2" on="0"/>
        <pt x="195" y="2" on="1"/>
        <pt x="195" y="5" on="1"/>
        <pt x="162" y="15" on="0"/>
        <pt x="106" y="55" on="0"/>
        <pt x="65" y="114" on="0"/>
        <pt x="42" y="189" on="0"/>
        <pt x="42" y="233" on="1"/>
        <pt x="42" y="293" on="0"/>
        <pt x="79" y="386" on="0"/>
        <pt x="145" y="451" on="0"/>
        <pt x="233" y="484" on="0"/>
        <pt x="284" y="484" on="1"/>
        <pt x="335" y="484" on="0"/>
        <pt x="422" y="452" on="0"/>
        <pt x="486" y="391" on="0"/>
        <pt x="522" y="300" on="0"/>
      </contour>
      <contour>
        <pt x="400" y="235" on="1"/>
        <pt x="400" y="278" on="0"/>
        <pt x="380" y="339" on="0"/>
        <pt x="347" y="378" on="0"/>
        <pt x="304" y="396" on="0"/>
        <pt x="281" y="396" on="1"/>
        <pt x="258" y="396" on="0"/>
        <pt x="216" y="381" on="0"/>
        <pt x="184" y="345" on="0"/>
        <pt x="164" y="284" on="0"/>
        <pt x="164" y="238" on="1"/>
        <pt x="164" y="196" on="0"/>
        <pt x="184" y="136" on="0"/>
        <pt x="217" y="96" on="0"/>
        <pt x="259" y="77" on="0"/>
        <pt x="282" y="77" on="1"/>
        <pt x="304" y="77" on="0"/>
        <pt x="347" y="93" on="0"/>
        <pt x="380" y="129" on="0"/>
        <pt x="400" y="190" on="0"/>
      </contour>
    </TTGlyph>
    <TTGlyph name="R" xMin="73" yMin="0" xMax="545" yMax="630">
      <contour>
        <pt x="73" y="630" on="1"/>
        <pt x="300" y="630" on="1"/>
        <pt x="352" y="630" on="0"/>
        <pt x="430" y="600" on="0"/>
        <pt x="483" y="548" on="0"/>
        <pt x="510" y="478" on="0"/>
        <pt x="510" y="437" on="1"/>
        <pt x="510" y="399" on="0"/>
        <pt x="487" y="341" on="0"/>
        <pt x="451" y="297" on="0"/>
        <pt x="407" y="268" on="0"/>
        <pt x="386" y="259" on="1"/>
        <pt x="545" y="0" on="1"/>
        <pt x="406" y="0" on="1"/>
        <pt x="275" y="237" on="1"/>
        <pt x="192" y="237" on="1"/>
        <pt x="192" y="0" on="1"/>
        <pt x="73" y="0" on="1"/>
      </contour>
      <contour>
        <pt x="192" y="332" on="1"/>
        <pt x="253" y="332" on="1"/>
        <pt x="310" y="332" on="0"/>
        <pt x="384" y="379" on="0"/>
        <pt x="384" y="434" on="1"/>
        <pt x="384" y="484" on="0"/>
        <pt x="325" y="536" on="0"/>
        <pt x="268" y="536" on="1"/>
        <pt x="192" y="536" on="1"/>
      </contour>
    </TTGlyph>
    <TTGlyph name="R.alt" xMin="73" yMin="0" xMax="545" yMax="630">
      <contour>
        <pt x="73" y="630" on="1"/>
        <pt x="300" y="630" on="1"/>
        <pt x="352" y="630" on="0"/>
        <pt x="430" y="600" on="0"/>
        <pt x="483" y="548" on="0"/>
        <pt x="510" y="478" on="0"/>
        <pt x="510" y="437" on="1"/>
        <pt x="510" y="399" on="0"/>
        <pt x="487" y="341" on="0"/>
        <pt x="451" y="297" on="0"/>
        <pt x="407" y="268" on="0"/>
        <pt x="386" y="259" on="1"/>
        <pt x="545" y="0" on="1"/>
        <pt x="406" y="0" on="1"/>
        <pt x="275" y="237" on="1"/>
        <pt x="192" y="237" on="1"/>
        <pt x="192" y="0" on="1"/>
        <pt x="73" y="0" on="1"/>
      </contour>
      <contour>
        <pt x="192" y="332" on="1"/>
        <pt x="253" y="332" on="1"/>
        <pt x="310" y="332" on="0"/>
        <pt x="384" y="379" on="0"/>
        <pt x="384" y="434" on="1"/>
        <pt x="384" y="484" on="0"/>
        <pt x="325" y="536" on="0"/>
        <pt x="268" y="536" on="1"/>
        <pt x="192" y="536" on="1"/>
      </contour>
    </TTGlyph>
    <TTGlyph name="Racute" xMin="73" yMin="0" xMax="545" yMax="824">
      <contour>
        <pt x="73" y="630" on="1"/>
        <pt x="300" y="630" on="1"/>
        <pt x="352" y="630" on="0"/>
        <pt x="430" y="600" on="0"/>
        <pt x="483" y="548" on="0"/>
        <pt x="510" y="478" on="0"/>
        <pt x="510" y="437" on="1"/>
        <pt x="510" y="399" on="0"/>
        <pt x="487" y="341" on="0"/>
        <pt x="451" y="297" on="0"/>
        <pt x="407" y="268" on="0"/>
        <pt x="386" y="259" on="1"/>
        <pt x="545" y="0" on="1"/>
        <pt x="406" y="0" on="1"/>
        <pt x="275" y="237" on="1"/>
        <pt x="192" y="237" on="1"/>
        <pt x="192" y="0" on="1"/>
        <pt x="73" y="0" on="1"/>
      </contour>
      <contour>
        <pt x="192" y="332" on="1"/>
        <pt x="253" y="332" on="1"/>
        <pt x="310" y="332" on="0"/>
        <pt x="384" y="379" on="0"/>
        <pt x="384" y="434" on="1"/>
        <pt x="384" y="484" on="0"/>
        <pt x="325" y="536" on="0"/>
        <pt x="268" y="536" on="1"/>
        <pt x="192" y="536" on="1"/>
      </contour>
      <contour>
        <pt x="282" y="700" on="1"/>
        <pt x="185" y="700" on="1"/>
        <pt x="265" y="824" on="1"/>
        <pt x="396" y="824" on="1"/>
      </contour>
    </TTGlyph>
    <TTGlyph name="Rcaron" xMin="73" yMin="0" xMax="545" yMax="829">
      <contour>
        <pt x="73" y="630" on="1"/>
        <pt x="300" y="630" on="1"/>
        <pt x="352" y="630" on="0"/>
        <pt x="430" y="600" on="0"/>
        <pt x="483" y="548" on="0"/>
        <pt x="510" y="478" on="0"/>
        <pt x="510" y="437" on="1"/>
        <pt x="510" y="399" on="0"/>
        <pt x="487" y="341" on="0"/>
        <pt x="451" y="297" on="0"/>
        <pt x="407" y="268" on="0"/>
        <pt x="386" y="259" on="1"/>
        <pt x="545" y="0" on="1"/>
        <pt x="406" y="0" on="1"/>
        <pt x="275" y="237" on="1"/>
        <pt x="192" y="237" on="1"/>
        <pt x="192" y="0" on="1"/>
        <pt x="73" y="0" on="1"/>
      </contour>
      <contour>
        <pt x="192" y="332" on="1"/>
        <pt x="253" y="332" on="1"/>
        <pt x="310" y="332" on="0"/>
        <pt x="384" y="379" on="0"/>
        <pt x="384" y="434" on="1"/>
        <pt x="384" y="484" on="0"/>
        <pt x="325" y="536" on="0"/>
        <pt x="268" y="536" on="1"/>
        <pt x="192" y="536" on="1"/>
      </contour>
      <contour>
        <pt x="307" y="700" on="1"/>
        <pt x="218" y="700" on="1"/>
        <pt x="100" y="829" on="1"/>
        <pt x="195" y="829" on="1"/>
        <pt x="264" y="754" on="1"/>
        <pt x="333" y="829" on="1"/>
        <pt x="426" y="829" on="1"/>
      </contour>
    </TTGlyph>
    <TTGlyph name="Rcommaaccent" xMin="73" yMin="-329" xMax="545" yMax="630">
      <contour>
        <pt x="73" y="630" on="1"/>
        <pt x="300" y="630" on="1"/>
        <pt x="352" y="630" on="0"/>
        <pt x="430" y="600" on="0"/>
        <pt x="483" y="548" on="0"/>
        <pt x="510" y="478" on="0"/>
        <pt x="510" y="437" on="1"/>
        <pt x="510" y="399" on="0"/>
        <pt x="487" y="341" on="0"/>
        <pt x="451" y="297" on="0"/>
        <pt x="407" y="268" on="0"/>
        <pt x="386" y="259" on="1"/>
        <pt x="545" y="0" on="1"/>
        <pt x="406" y="0" on="1"/>
        <pt x="275" y="237" on="1"/>
        <pt x="192" y="237" on="1"/>
        <pt x="192" y="0" on="1"/>
        <pt x="73" y="0" on="1"/>
      </contour>
      <contour>
        <pt x="192" y="332" on="1"/>
        <pt x="253" y="332" on="1"/>
        <pt x="310" y="332" on="0"/>
        <pt x="384" y="379" on="0"/>
        <pt x="384" y="434" on="1"/>
        <pt x="384" y="484" on="0"/>
        <pt x="325" y="536" on="0"/>
        <pt x="268" y="536" on="1"/>
        <pt x="192" y="536" on="1"/>
      </contour>
      <contour>
        <pt x="277" y="-193" on="1"/>
        <pt x="255" y="-188" on="0"/>
        <pt x="221" y="-156" on="0"/>
        <pt x="221" y="-129" on="1"/>
        <pt x="221" y="-103" on="0"/>
        <pt x="255" y="-65" on="0"/>
        <pt x="286" y="-65" on="1"/>
        <pt x="298" y="-65" on="0"/>
        <pt x="325" y="-75" on="0"/>
        <pt x="348" y="-98" on="0"/>
        <pt x="362" y="-134" on="0"/>
        <pt x="362" y="-160" on="1"/>
        <pt x="362" y="-186" on="0"/>
        <pt x="344" y="-236" on="0"/>
        <pt x="313" y="-281" on="0"/>
        <pt x="272" y="-317" on="0"/>
        <pt x="250" y="-329" on="1"/>
        <pt x="221" y="-289" on="1"/>
        <pt x="248" y="-274" on="0"/>
        <pt x="290" y="-223" on="0"/>
        <pt x="294" y="-196" on="1"/>
      </contour>
    </TTGlyph>
    <TTGlyph name="Ring" xMin="27" yMin="690" xMax="231" yMax="866">
      <contour>
        <pt x="27" y="778" on="1"/>
        <pt x="27" y="823" on="0"/>
        <pt x="85" y="866" on="0"/>
        <pt x="129" y="866" on="1"/>
        <pt x="174" y="866" on="0"/>
        <pt x="231" y="823" on="0"/>
        <pt x="231" y="778" on="1"/>
        <pt x="231" y="755" on="0"/>
        <pt x="214" y="722" on="0"/>
        <pt x="186" y="701" on="0"/>
        <pt x="149" y="690" on="0"/>
        <pt x="129" y="690" on="1"/>
        <pt x="87" y="690" on="0"/>
        <pt x="27" y="735" on="0"/>
      </contour>
      <contour>
        <pt x="86" y="778" on="1"/>
        <pt x="86" y="756" on="0"/>
        <pt x="109" y="731" on="0"/>
        <pt x="129" y="731" on="1"/>
        <pt x="149" y="731" on="0"/>
        <pt x="172" y="756" on="0"/>
        <pt x="172" y="778" on="1"/>
        <pt x="172" y="800" on="0"/>
        <pt x="149" y="825" on="0"/>
        <pt x="129" y="825" on="1"/>
        <pt x="109" y="825" on="0"/>
        <pt x="86" y="800" on="0"/>
      </contour>
    </TTGlyph>
    <TTGlyph name="Rsmall" xMin="69" yMin="0" xMax="456" yMax="475">
      <contour>
        <pt x="69" y="475" on="1"/>
        <pt x="260" y="475" on="1"/>
        <pt x="297" y="475" on="0"/>
        <pt x="362" y="456" on="0"/>
        <pt x="410" y="418" on="0"/>
        <pt x="438" y="362" on="0"/>
        <pt x="438" y="325" on="1"/>
        <pt x="438" y="271" on="0"/>
        <pt x="386" y="203" on="0"/>
        <pt x="345" y="186" on="1"/>
        <pt x="456" y="0" on="1"/>
        <pt x="328" y="0" on="1"/>
        <pt x="247" y="160" on="1"/>
        <pt x="187" y="160" on="1"/>
        <pt x="187" y="0" on="1"/>
        <pt x="69" y="0" on="1"/>
      </contour>
      <contour>
        <pt x="186" y="247" on="1"/>
        <pt x="230" y="247" on="1"/>
        <pt x="270" y="247" on="0"/>
        <pt x="320" y="281" on="0"/>
        <pt x="320" y="319" on="1"/>
        <pt x="320" y="355" on="0"/>
        <pt x="273" y="387" on="0"/>
        <pt x="228" y="387" on="1"/>
        <pt x="186" y="387" on="1"/>
      </contour>
    </TTGlyph>
    <TTGlyph name="S" xMin="42" yMin="-10" xMax="486" yMax="640">
      <contour>
        <pt x="268" y="640" on="1"/>
        <pt x="324" y="640" on="0"/>
        <pt x="415" y="619" on="0"/>
        <pt x="453" y="600" on="1"/>
        <pt x="425" y="506" on="1"/>
        <pt x="384" y="526" on="0"/>
        <pt x="310" y="546" on="0"/>
        <pt x="274" y="546" on="1"/>
        <pt x="223" y="546" on="0"/>
        <pt x="166" y="504" on="0"/>
        <pt x="166" y="468" on="1"/>
        <pt x="166" y="433" on="0"/>
        <pt x="213" y="396" on="0"/>
        <pt x="265" y="379" on="1"/>
        <pt x="326" y="359" on="1"/>
        <pt x="404" y="333" on="0"/>
        <pt x="486" y="241" on="0"/>
        <pt x="486" y="178" on="1"/>
        <pt x="486" y="137" on="0"/>
        <pt x="454" y="69" on="0"/>
        <pt x="394" y="18" on="0"/>
        <pt x="307" y="-10" on="0"/>
        <pt x="252" y="-10" on="1"/>
        <pt x="198" y="-10" on="0"/>
        <pt x="96" y="11" on="0"/>
        <pt x="49" y="34" on="1"/>
        <pt x="77" y="127" on="1"/>
        <pt x="120" y="106" on="0"/>
        <pt x="202" y="84" on="0"/>
        <pt x="247" y="84" on="1"/>
        <pt x="301" y="84" on="0"/>
        <pt x="362" y="126" on="0"/>
        <pt x="362" y="166" on="1"/>
        <pt x="362" y="180" on="0"/>
        <pt x="352" y="206" on="0"/>
        <pt x="327" y="229" on="0"/>
        <pt x="284" y="250" on="0"/>
        <pt x="250" y="261" on="1"/>
        <pt x="194" y="280" on="1"/>
        <pt x="125" y="304" on="0"/>
        <pt x="42" y="383" on="0"/>
        <pt x="42" y="455" on="1"/>
        <pt x="42" y="538" on="0"/>
        <pt x="158" y="640" on="0"/>
      </contour>
    </TTGlyph>
    <TTGlyph name="Sacute" xMin="42" yMin="-10" xMax="486" yMax="824">
      <contour>
        <pt x="268" y="640" on="1"/>
        <pt x="324" y="640" on="0"/>
        <pt x="415" y="619" on="0"/>
        <pt x="453" y="600" on="1"/>
        <pt x="425" y="506" on="1"/>
        <pt x="384" y="526" on="0"/>
        <pt x="310" y="546" on="0"/>
        <pt x="274" y="546" on="1"/>
        <pt x="223" y="546" on="0"/>
        <pt x="166" y="504" on="0"/>
        <pt x="166" y="468" on="1"/>
        <pt x="166" y="433" on="0"/>
        <pt x="213" y="396" on="0"/>
        <pt x="265" y="379" on="1"/>
        <pt x="326" y="359" on="1"/>
        <pt x="404" y="333" on="0"/>
        <pt x="486" y="241" on="0"/>
        <pt x="486" y="178" on="1"/>
        <pt x="486" y="137" on="0"/>
        <pt x="454" y="69" on="0"/>
        <pt x="394" y="18" on="0"/>
        <pt x="307" y="-10" on="0"/>
        <pt x="252" y="-10" on="1"/>
        <pt x="198" y="-10" on="0"/>
        <pt x="96" y="11" on="0"/>
        <pt x="49" y="34" on="1"/>
        <pt x="77" y="127" on="1"/>
        <pt x="120" y="106" on="0"/>
        <pt x="202" y="84" on="0"/>
        <pt x="247" y="84" on="1"/>
        <pt x="301" y="84" on="0"/>
        <pt x="362" y="126" on="0"/>
        <pt x="362" y="166" on="1"/>
        <pt x="362" y="180" on="0"/>
        <pt x="352" y="206" on="0"/>
        <pt x="327" y="229" on="0"/>
        <pt x="284" y="250" on="0"/>
        <pt x="250" y="261" on="1"/>
        <pt x="194" y="280" on="1"/>
        <pt x="125" y="304" on="0"/>
        <pt x="42" y="383" on="0"/>
        <pt x="42" y="455" on="1"/>
        <pt x="42" y="538" on="0"/>
        <pt x="158" y="640" on="0"/>
      </contour>
      <contour>
        <pt x="267" y="700" on="1"/>
        <pt x="170" y="700" on="1"/>
        <pt x="250" y="824" on="1"/>
        <pt x="380" y="824" on="1"/>
      </contour>
    </TTGlyph>
    <TTGlyph name="Scaron" xMin="42" yMin="-10" xMax="486" yMax="829">
      <contour>
        <pt x="268" y="640" on="1"/>
        <pt x="324" y="640" on="0"/>
        <pt x="415" y="619" on="0"/>
        <pt x="453" y="600" on="1"/>
        <pt x="425" y="506" on="1"/>
        <pt x="384" y="526" on="0"/>
        <pt x="310" y="546" on="0"/>
        <pt x="274" y="546" on="1"/>
        <pt x="223" y="546" on="0"/>
        <pt x="166" y="504" on="0"/>
        <pt x="166" y="468" on="1"/>
        <pt x="166" y="433" on="0"/>
        <pt x="213" y="396" on="0"/>
        <pt x="265" y="379" on="1"/>
        <pt x="326" y="359" on="1"/>
        <pt x="405" y="334" on="0"/>
        <pt x="486" y="241" on="0"/>
        <pt x="486" y="178" on="1"/>
        <pt x="486" y="137" on="0"/>
        <pt x="454" y="69" on="0"/>
        <pt x="394" y="18" on="0"/>
        <pt x="307" y="-10" on="0"/>
        <pt x="252" y="-10" on="1"/>
        <pt x="198" y="-10" on="0"/>
        <pt x="96" y="11" on="0"/>
        <pt x="49" y="34" on="1"/>
        <pt x="77" y="127" on="1"/>
        <pt x="120" y="106" on="0"/>
        <pt x="202" y="84" on="0"/>
        <pt x="247" y="84" on="1"/>
        <pt x="301" y="84" on="0"/>
        <pt x="362" y="126" on="0"/>
        <pt x="362" y="166" on="1"/>
        <pt x="362" y="180" on="0"/>
        <pt x="352" y="205" on="0"/>
        <pt x="327" y="228" on="0"/>
        <pt x="283" y="250" on="0"/>
        <pt x="250" y="261" on="1"/>
        <pt x="194" y="280" on="1"/>
        <pt x="124" y="303" on="0"/>
        <pt x="42" y="383" on="0"/>
        <pt x="42" y="455" on="1"/>
        <pt x="42" y="538" on="0"/>
        <pt x="158" y="640" on="0"/>
      </contour>
      <contour>
        <pt x="104" y="829" on="1"/>
        <pt x="199" y="829" on="1"/>
        <pt x="268" y="754" on="1"/>
        <pt x="338" y="829" on="1"/>
        <pt x="430" y="829" on="1"/>
        <pt x="312" y="700" on="1"/>
        <pt x="223" y="700" on="1"/>
      </contour>
    </TTGlyph>
    <TTGlyph name="Scedilla" xMin="42" yMin="-215" xMax="486" yMax="640">
      <contour>
        <pt x="268" y="640" on="1"/>
        <pt x="324" y="640" on="0"/>
        <pt x="415" y="619" on="0"/>
        <pt x="453" y="600" on="1"/>
        <pt x="425" y="506" on="1"/>
        <pt x="384" y="526" on="0"/>
        <pt x="310" y="546" on="0"/>
        <pt x="274" y="546" on="1"/>
        <pt x="223" y="546" on="0"/>
        <pt x="166" y="504" on="0"/>
        <pt x="166" y="468" on="1"/>
        <pt x="166" y="433" on="0"/>
        <pt x="213" y="396" on="0"/>
        <pt x="265" y="379" on="1"/>
        <pt x="326" y="359" on="1"/>
        <pt x="404" y="333" on="0"/>
        <pt x="486" y="241" on="0"/>
        <pt x="486" y="178" on="1"/>
        <pt x="486" y="140" on="0"/>
        <pt x="459" y="76" on="0"/>
        <pt x="408" y="27" on="0"/>
        <pt x="333" y="-4" on="0"/>
        <pt x="285" y="-8" on="1"/>
        <pt x="270" y="-47" on="1"/>
        <pt x="315" y="-50" on="0"/>
        <pt x="357" y="-96" on="0"/>
        <pt x="357" y="-125" on="1"/>
        <pt x="357" y="-169" on="0"/>
        <pt x="289" y="-215" on="0"/>
        <pt x="238" y="-215" on="1"/>
        <pt x="214" y="-215" on="0"/>
        <pt x="172" y="-206" on="0"/>
        <pt x="159" y="-201" on="1"/>
        <pt x="174" y="-151" on="1"/>
        <pt x="198" y="-160" on="0"/>
        <pt x="226" y="-160" on="1"/>
        <pt x="280" y="-160" on="0"/>
        <pt x="280" y="-122" on="1"/>
        <pt x="280" y="-104" on="0"/>
        <pt x="246" y="-78" on="0"/>
        <pt x="194" y="-78" on="1"/>
        <pt x="222" y="-9" on="1"/>
        <pt x="176" y="-6" on="0"/>
        <pt x="89" y="14" on="0"/>
        <pt x="49" y="34" on="1"/>
        <pt x="77" y="127" on="1"/>
        <pt x="120" y="106" on="0"/>
        <pt x="202" y="84" on="0"/>
        <pt x="247" y="84" on="1"/>
        <pt x="301" y="84" on="0"/>
        <pt x="362" y="126" on="0"/>
        <pt x="362" y="166" on="1"/>
        <pt x="362" y="180" on="0"/>
        <pt x="352" y="206" on="0"/>
        <pt x="327" y="229" on="0"/>
        <pt x="284" y="250" on="0"/>
        <pt x="250" y="261" on="1"/>
        <pt x="194" y="280" on="1"/>
        <pt x="125" y="304" on="0"/>
        <pt x="42" y="383" on="0"/>
        <pt x="42" y="455" on="1"/>
        <pt x="42" y="538" on="0"/>
        <pt x="158" y="640" on="0"/>
      </contour>
    </TTGlyph>
    <TTGlyph name="Scircumflex" xMin="42" yMin="-10" xMax="486" yMax="829">
      <contour>
        <pt x="268" y="640" on="1"/>
        <pt x="324" y="640" on="0"/>
        <pt x="415" y="619" on="0"/>
        <pt x="453" y="600" on="1"/>
        <pt x="425" y="506" on="1"/>
        <pt x="384" y="526" on="0"/>
        <pt x="310" y="546" on="0"/>
        <pt x="274" y="546" on="1"/>
        <pt x="223" y="546" on="0"/>
        <pt x="166" y="504" on="0"/>
        <pt x="166" y="468" on="1"/>
        <pt x="166" y="433" on="0"/>
        <pt x="213" y="396" on="0"/>
        <pt x="265" y="379" on="1"/>
        <pt x="326" y="359" on="1"/>
        <pt x="404" y="333" on="0"/>
        <pt x="486" y="241" on="0"/>
        <pt x="486" y="178" on="1"/>
        <pt x="486" y="137" on="0"/>
        <pt x="454" y="69" on="0"/>
        <pt x="394" y="18" on="0"/>
        <pt x="307" y="-10" on="0"/>
        <pt x="252" y="-10" on="1"/>
        <pt x="198" y="-10" on="0"/>
        <pt x="96" y="11" on="0"/>
        <pt x="49" y="34" on="1"/>
        <pt x="77" y="127" on="1"/>
        <pt x="120" y="106" on="0"/>
        <pt x="202" y="84" on="0"/>
        <pt x="247" y="84" on="1"/>
        <pt x="301" y="84" on="0"/>
        <pt x="362" y="126" on="0"/>
        <pt x="362" y="166" on="1"/>
        <pt x="362" y="180" on="0"/>
        <pt x="352" y="206" on="0"/>
        <pt x="327" y="229" on="0"/>
        <pt x="284" y="250" on="0"/>
        <pt x="250" y="261" on="1"/>
        <pt x="194" y="280" on="1"/>
        <pt x="125" y="304" on="0"/>
        <pt x="42" y="383" on="0"/>
        <pt x="42" y="455" on="1"/>
        <pt x="42" y="538" on="0"/>
        <pt x="158" y="640" on="0"/>
      </contour>
      <contour>
        <pt x="216" y="829" on="1"/>
        <pt x="305" y="829" on="1"/>
        <pt x="425" y="700" on="1"/>
        <pt x="330" y="700" on="1"/>
        <pt x="260" y="774" on="1"/>
        <pt x="190" y="700" on="1"/>
        <pt x="99" y="700" on="1"/>
      </contour>
    </TTGlyph>
    <TTGlyph name="Scommaaccent" xMin="42" yMin="-329" xMax="486" yMax="640">
      <contour>
        <pt x="268" y="640" on="1"/>
        <pt x="324" y="640" on="0"/>
        <pt x="415" y="619" on="0"/>
        <pt x="453" y="600" on="1"/>
        <pt x="425" y="506" on="1"/>
        <pt x="384" y="526" on="0"/>
        <pt x="310" y="546" on="0"/>
        <pt x="274" y="546" on="1"/>
        <pt x="223" y="546" on="0"/>
        <pt x="166" y="504" on="0"/>
        <pt x="166" y="468" on="1"/>
        <pt x="166" y="433" on="0"/>
        <pt x="213" y="396" on="0"/>
        <pt x="265" y="379" on="1"/>
        <pt x="326" y="359" on="1"/>
        <pt x="404" y="333" on="0"/>
        <pt x="486" y="241" on="0"/>
        <pt x="486" y="178" on="1"/>
        <pt x="486" y="137" on="0"/>
        <pt x="454" y="69" on="0"/>
        <pt x="394" y="18" on="0"/>
        <pt x="307" y="-10" on="0"/>
        <pt x="252" y="-10" on="1"/>
        <pt x="198" y="-10" on="0"/>
        <pt x="96" y="11" on="0"/>
        <pt x="49" y="34" on="1"/>
        <pt x="77" y="127" on="1"/>
        <pt x="120" y="106" on="0"/>
        <pt x="202" y="84" on="0"/>
        <pt x="247" y="84" on="1"/>
        <pt x="301" y="84" on="0"/>
        <pt x="362" y="126" on="0"/>
        <pt x="362" y="166" on="1"/>
        <pt x="362" y="180" on="0"/>
        <pt x="352" y="206" on="0"/>
        <pt x="327" y="229" on="0"/>
        <pt x="284" y="250" on="0"/>
        <pt x="250" y="261" on="1"/>
        <pt x="194" y="280" on="1"/>
        <pt x="125" y="304" on="0"/>
        <pt x="42" y="383" on="0"/>
        <pt x="42" y="455" on="1"/>
        <pt x="42" y="538" on="0"/>
        <pt x="158" y="640" on="0"/>
      </contour>
      <contour>
        <pt x="237" y="-193" on="1"/>
        <pt x="216" y="-188" on="0"/>
        <pt x="181" y="-156" on="0"/>
        <pt x="181" y="-129" on="1"/>
        <pt x="181" y="-103" on="0"/>
        <pt x="215" y="-65" on="0"/>
        <pt x="246" y="-65" on="1"/>
        <pt x="258" y="-65" on="0"/>
        <pt x="285" y="-75" on="0"/>
        <pt x="308" y="-98" on="0"/>
        <pt x="322" y="-134" on="0"/>
        <pt x="322" y="-160" on="1"/>
        <pt x="322" y="-186" on="0"/>
        <pt x="304" y="-236" on="0"/>
        <pt x="274" y="-281" on="0"/>
        <pt x="233" y="-317" on="0"/>
        <pt x="211" y="-329" on="1"/>
        <pt x="182" y="-289" on="1"/>
        <pt x="208" y="-274" on="0"/>
        <pt x="251" y="-223" on="0"/>
        <pt x="255" y="-196" on="1"/>
      </contour>
    </TTGlyph>
    <TTGlyph name="Ssmall" xMin="39" yMin="-10" xMax="395" yMax="484">
      <contour>
        <pt x="346" y="369" on="1"/>
        <pt x="287" y="397" on="0"/>
        <pt x="232" y="397" on="1"/>
        <pt x="195" y="397" on="0"/>
        <pt x="156" y="371" on="0"/>
        <pt x="156" y="348" on="1"/>
        <pt x="156" y="328" on="0"/>
        <pt x="187" y="302" on="0"/>
        <pt x="236" y="288" on="1"/>
        <pt x="266" y="279" on="1"/>
        <pt x="329" y="260" on="0"/>
        <pt x="395" y="194" on="0"/>
        <pt x="395" y="140" on="1"/>
        <pt x="395" y="71" on="0"/>
        <pt x="291" y="-10" on="0"/>
        <pt x="200" y="-10" on="1"/>
        <pt x="105" y="-10" on="0"/>
        <pt x="39" y="22" on="1"/>
        <pt x="66" y="110" on="1"/>
        <pt x="95" y="96" on="0"/>
        <pt x="160" y="78" on="0"/>
        <pt x="194" y="78" on="1"/>
        <pt x="278" y="78" on="0"/>
        <pt x="278" y="131" on="1"/>
        <pt x="278" y="155" on="0"/>
        <pt x="238" y="179" on="0"/>
        <pt x="191" y="193" on="1"/>
        <pt x="160" y="203" on="1"/>
        <pt x="98" y="223" on="0"/>
        <pt x="40" y="286" on="0"/>
        <pt x="40" y="341" on="1"/>
        <pt x="40" y="372" on="0"/>
        <pt x="66" y="425" on="0"/>
        <pt x="113" y="463" on="0"/>
        <pt x="180" y="484" on="0"/>
        <pt x="221" y="484" on="1"/>
        <pt x="261" y="484" on="0"/>
        <pt x="339" y="469" on="0"/>
        <pt x="371" y="454" on="1"/>
      </contour>
    </TTGlyph>
    <TTGlyph name="T" xMin="10" yMin="0" xMax="497" yMax="630">
      <contour>
        <pt x="497" y="630" on="1"/>
        <pt x="497" y="532" on="1"/>
        <pt x="312" y="532" on="1"/>
        <pt x="312" y="0" on="1"/>
        <pt x="190" y="0" on="1"/>
        <pt x="190" y="532" on="1"/>
        <pt x="10" y="532" on="1"/>
        <pt x="10" y="630" on="1"/>
      </contour>
    </TTGlyph>
    <TTGlyph name="Tbar" xMin="10" yMin="0" xMax="497" yMax="630">
      <contour>
        <pt x="497" y="630" on="1"/>
        <pt x="497" y="532" on="1"/>
        <pt x="312" y="532" on="1"/>
        <pt x="312" y="360" on="1"/>
        <pt x="410" y="360" on="1"/>
        <pt x="410" y="278" on="1"/>
        <pt x="312" y="278" on="1"/>
        <pt x="312" y="0" on="1"/>
        <pt x="190" y="0" on="1"/>
        <pt x="190" y="278" on="1"/>
        <pt x="93" y="278" on="1"/>
        <pt x="93" y="360" on="1"/>
        <pt x="190" y="360" on="1"/>
        <pt x="190" y="532" on="1"/>
        <pt x="10" y="532" on="1"/>
        <pt x="10" y="630" on="1"/>
      </contour>
    </TTGlyph>
</ttFont>
